<svg width="24" height="24" viewBox="0 0 24 24" fill="none" xmlns="http://www.w3.org/2000/svg">
<path d="M23.7491 5.45086C23.3494 3.88331 22.4974 2.53163 21.2853 1.54195C20.1044 0.577875 18.6576 0.046875 17.212 0.046875C16.1037 0.046875 15.0462 0.345328 14.0694 0.933844C13.2979 1.39875 12.6042 2.031 11.9979 2.82019C10.6194 1.02338 8.7993 0.046875 6.78621 0.046875C5.34096 0.046875 3.89496 0.577875 2.71432 1.54195C1.50255 2.53163 0.650738 3.88331 0.251035 5.45067C-0.183496 7.15523 -0.26773 9.87928 1.80007 13.1768C3.71407 16.229 7.03179 19.0571 11.6612 21.5823C11.7662 21.6394 11.8818 21.6682 11.9978 21.6682C12.1137 21.6682 12.2294 21.6396 12.3343 21.5823C16.9651 19.0569 20.2839 16.2288 22.1986 13.1768C24.2673 9.87928 24.1836 7.15538 23.7491 5.45086ZM11.9978 20.1625C6.5103 17.1084 3.79483 14.0795 2.50432 11.5605H4.4696C4.73599 11.5605 4.97936 11.4101 5.09838 11.172L5.9756 9.41747L8.35872 14.1839C8.41711 14.3007 8.50685 14.3989 8.61791 14.4675C8.72897 14.5362 8.85695 14.5725 8.9875 14.5725C9.11806 14.5725 9.24604 14.5362 9.3571 14.4675C9.46815 14.3989 9.5579 14.3007 9.61629 14.1839L11.9994 9.41747L12.8767 11.172C12.9351 11.2888 13.0248 11.387 13.1359 11.4556C13.2469 11.5242 13.3749 11.5605 13.5055 11.5605H18.8372C19.2254 11.5605 19.5401 11.2458 19.5401 10.8576C19.5401 10.4694 19.2254 10.1547 18.8372 10.1547H13.94L12.6284 7.53113C12.57 7.41438 12.4802 7.3162 12.3692 7.24758C12.2581 7.17897 12.1302 7.14263 11.9996 7.14263C11.8691 7.14263 11.7411 7.17897 11.6301 7.24758C11.519 7.3162 11.4292 7.41438 11.3708 7.53113L8.9875 12.2976L6.60438 7.53113C6.54598 7.41436 6.45623 7.31617 6.34518 7.24754C6.23412 7.17891 6.10615 7.14256 5.9756 7.14256C5.84505 7.14256 5.71708 7.17891 5.60602 7.24754C5.49496 7.31617 5.40521 7.41436 5.34682 7.53113L4.03507 10.1547H1.90389C1.20719 8.11762 1.42089 6.55336 1.6135 5.7982C2.26591 3.23986 4.39286 1.45294 6.78621 1.45294C8.59643 1.45294 10.2337 2.51058 11.3965 4.43062C11.459 4.53406 11.5472 4.6196 11.6525 4.67897C11.7578 4.73834 11.8767 4.76954 11.9976 4.76953H11.9978C12.1187 4.76952 12.2375 4.73834 12.3429 4.679C12.4482 4.61966 12.5364 4.53416 12.5991 4.43077C13.7627 2.51058 15.401 1.45294 17.2121 1.45294C19.6064 1.45294 21.7342 3.23986 22.3866 5.79825C22.8391 7.57289 23.4089 13.8131 11.9978 20.1625Z" fill="#022548"/>
</svg>
