<svg width="24" height="24" viewBox="0 0 24 24" fill="none" xmlns="http://www.w3.org/2000/svg">
<g clip-path="url(#clip0_2675_1333)">
<path fill-rule="evenodd" clip-rule="evenodd" d="M19.2033 12.0067C19.7118 11.6437 20.2235 11.2107 21.1312 10.1423C21.1312 10.1423 22.6816 8.32277 23.9026 5.12077C23.9756 4.93931 24.0082 4.74414 23.9982 4.54881C23.986 4.37306 23.9388 4.20153 23.8593 4.04433C23.5452 3.39606 23.015 2.99521 22.3402 3.00003C21.6317 3.00485 21.0469 3.44747 20.777 4.10619C20.5727 4.60514 20.3701 4.98529 20.1676 5.36533C20.0195 5.64304 19.8716 5.92069 19.723 6.2446C19.4354 6.87118 19.2394 7.29694 19.0145 7.67449C18.3116 8.85688 17.3437 9.5188 16.8457 9.85942L16.8455 9.8595C15.5739 10.7303 14.0838 11.2058 12.4185 11.3464C12.2472 11.361 12.0759 11.3748 11.9047 11.3886C11.0844 11.4548 10.2659 11.5209 9.45509 11.6678C9.36172 11.6846 9.26832 11.7012 9.17493 11.7179C7.77948 11.9667 6.38746 12.215 5.16621 13.0334C2.86152 14.5773 1.34888 16.7575 0.170426 19.2044C-0.23123 20.0374 0.105357 20.9018 0.882962 21.2127C1.6204 21.5075 2.42532 21.1444 2.78841 20.3523C2.81573 20.2904 2.83316 20.2538 2.86022 20.1969C2.90719 20.0982 2.98315 19.9386 3.19007 19.4799C3.20708 19.4428 3.22373 19.4064 3.24004 19.3708C3.5617 18.6677 3.75025 18.2556 3.99338 17.8733C4.29183 17.4047 4.65934 16.9838 5.08347 16.625C7.06845 14.9613 7.73199 14.7356 7.93282 14.9067C8.0268 14.987 8.01636 15.2577 7.91514 15.7863C7.62194 17.3118 7.62676 17.6918 7.63158 17.8308C7.64925 18.3931 7.79706 18.8244 7.89024 18.9891C8.66544 20.3708 9.68885 21.2834 11.4079 21.2946C12.3446 21.3027 13.0652 20.9259 13.8074 20.4913C14.5931 20.0109 14.9803 19.2623 15.2622 18.4188C15.506 17.6891 15.7398 16.9561 15.9735 16.2231C16.2711 15.2897 16.5688 14.3563 16.8873 13.4294C17.0086 13.2373 17.185 13.0861 17.3934 12.9956C18.0327 12.7366 18.64 12.4048 19.2033 12.0067ZM13.0282 3.62341C11.2609 3.5728 9.87121 4.92236 9.81498 6.74186C9.76357 8.4248 11.1139 9.89968 12.776 9.97439C14.5433 10.0563 16.0912 8.69471 16.1611 6.99732C16.2334 5.16336 14.8541 3.67482 13.0282 3.62341Z" fill="#1589D8"/>
</g>
<defs>
<clipPath id="clip0_2675_1333">
<rect width="24" height="24" fill="white"/>
</clipPath>
</defs>
</svg>
