<svg width="24" height="24" viewBox="0 0 24 24" fill="none" xmlns="http://www.w3.org/2000/svg">
<path d="M21.754 7.56412C21.3207 5.77276 20.3904 4.25072 19.0968 2.94165C18.3385 2.1775 17.4719 1.5073 16.5097 1.00622C15.522 0.492611 14.4388 0.166908 13.33 0.0353738C13.1835 0.0165832 13.0369 0.0103197 12.8903 0.00405618C12.5526 -0.00847086 12.2085 0.0103193 11.8708 0.0291099C11.8581 0.0291099 11.8389 0.0291099 11.8262 0.0291099C11.2782 0.0604275 10.692 0.185697 10.1694 0.361076C6.63926 1.54488 4.35803 3.91875 3.32574 7.42006C2.70127 9.54339 2.98802 11.6041 4.07128 13.552C4.99525 15.2181 6.07851 16.784 7.23825 18.3061C8.65924 20.1726 10.2013 21.9326 11.8071 23.6426C12.2404 24.0998 12.7374 24.1249 13.1835 23.6802C13.98 22.891 14.7446 22.083 15.4838 21.2374C17.5356 18.8886 19.3645 16.3832 20.8874 13.6648C21.9707 11.7294 22.2702 9.69998 21.754 7.56412ZM12.5463 5.76649C14.5981 5.77275 16.2867 7.46391 16.2803 9.51208C16.274 11.5164 14.5853 13.1574 12.5335 13.1512C10.4626 13.1449 8.78668 11.4976 8.78668 9.48076C8.79305 7.44512 10.4944 5.76023 12.5463 5.76649Z" fill="#1589D8"/>
</svg>
