<svg width="115" height="37" viewBox="0 0 115 37" fill="none" xmlns="http://www.w3.org/2000/svg">
<path d="M115 0.0183017C114.126 0.756472 112.993 1.15911 112.008 1.70206C107.25 4.2704 105.754 10.4503 103.692 15.0074C97.8934 27.7332 85.4713 36.3899 71.2825 36.9512C70.7716 36.9695 70.2607 36.9878 69.7498 36.9878H56.7429C49.9778 36.9878 41.5507 36.9878 33.7822 37.0061H31.4123C16.6018 36.9878 5.46007 36.9878 3.21325 36.9878C2.70233 36.9878 2.19141 36.9695 1.68049 36.9512C1.11417 36.9329 0.566321 36.8963 0 36.8414V0H113.849C114.231 0 114.631 0 115 0.0183017Z" fill="white"/>
</svg>
