<svg width="24" height="24" viewBox="0 0 24 24" fill="none" xmlns="http://www.w3.org/2000/svg">
<path d="M21 15.138V8.25C21 6.18225 19.3177 4.5 17.25 4.5C15.1823 4.5 13.5 6.18225 13.5 8.25V18C13.5 19.6545 12.1545 21 10.5 21C8.8455 21 7.5 19.6545 7.5 18V13.44C10.0403 13.074 12 10.8893 12 8.25V3.75C12 2.8455 11.4007 1.5 9.75 1.5H9C8.80109 1.5 8.61032 1.57902 8.46967 1.71967C8.32902 1.86032 8.25 2.05109 8.25 2.25C8.25 2.44891 8.32902 2.63968 8.46967 2.78033C8.61032 2.92098 8.80109 3 9 3H9.75C10.3538 3 10.491 3.4125 10.5 3.75V8.25C10.5 10.3177 8.81775 12 6.75 12C4.68225 12 3 10.3177 3 8.25V3.759C3.009 3.4125 3.14625 3 3.75 3H4.5C4.69891 3 4.88968 2.92098 5.03033 2.78033C5.17098 2.63968 5.25 2.44891 5.25 2.25C5.25 2.05109 5.17098 1.86032 5.03033 1.71967C4.88968 1.57902 4.69891 1.5 4.5 1.5H3.75C2.09925 1.5 1.5 2.8455 1.5 3.75V8.25C1.5 10.8893 3.45975 13.074 6 13.44V18C6 20.4818 8.01825 22.5 10.5 22.5C12.9818 22.5 15 20.4818 15 18V8.25C15 7.0095 16.0095 6 17.25 6C18.4905 6 19.5 7.0095 19.5 8.25V15.138C19.0626 15.2922 18.6836 15.578 18.415 15.9561C18.1465 16.3342 18.0015 16.7862 18 17.25C18 18.4905 19.0095 19.5 20.25 19.5C21.4905 19.5 22.5 18.4905 22.5 17.25C22.4985 16.7862 22.3535 16.3342 22.085 15.9561C21.8164 15.578 21.4374 15.2922 21 15.138ZM20.25 18C20.0511 18 19.8603 17.921 19.7197 17.7803C19.579 17.6397 19.5 17.4489 19.5 17.25C19.5 17.0511 19.579 16.8603 19.7197 16.7197C19.8603 16.579 20.0511 16.5 20.25 16.5C20.4489 16.5 20.6397 16.579 20.7803 16.7197C20.921 16.8603 21 17.0511 21 17.25C21 17.4489 20.921 17.6397 20.7803 17.7803C20.6397 17.921 20.4489 18 20.25 18Z" fill="black"/>
</svg>
