<svg width="24" height="24" viewBox="0 0 24 24" fill="none" xmlns="http://www.w3.org/2000/svg">
<path d="M15.9082 14.5201H13.2339L13.791 12.6687C13.9614 12.1151 13.9079 11.5167 13.6418 11.0022C13.3757 10.4877 12.9184 10.0981 12.3682 9.91722C12.2101 9.86514 12.0431 9.84624 11.8774 9.86172C11.7117 9.8772 11.551 9.92673 11.4054 10.0072C11.2597 10.0877 11.1323 10.1973 11.031 10.3293C10.9297 10.4614 10.8568 10.6129 10.8167 10.7744L10.731 11.1344C10.4078 12.4316 9.73822 13.6166 8.79388 14.5629L8.30531 15.0429C8.18116 14.8866 8.02357 14.76 7.8441 14.6725C7.66463 14.5849 7.46783 14.5387 7.26817 14.5372H6.64246C6.29077 14.5372 5.95324 14.6757 5.70296 14.9228C5.45269 15.1699 5.30982 15.5056 5.30531 15.8572V21.3772C5.30531 21.7319 5.44619 22.072 5.69695 22.3227C5.94772 22.5735 6.28782 22.7144 6.64246 22.7144H7.26817C7.49834 22.7138 7.72442 22.6535 7.92427 22.5393C8.12411 22.4251 8.29086 22.261 8.40817 22.0629L8.52817 22.1229C9.30286 22.5098 10.1565 22.7122 11.0225 22.7144H14.0996C14.6083 22.7168 15.1096 22.5928 15.5585 22.3534C16.0074 22.114 16.3897 21.7668 16.671 21.3429C17.2699 20.4476 17.5891 19.3944 17.5882 18.3172V16.1829C17.5882 15.9631 17.5446 15.7455 17.46 15.5426C17.3753 15.3397 17.2513 15.1557 17.0951 15.001C16.9389 14.8464 16.7535 14.7243 16.5498 14.6417C16.3461 14.5592 16.128 14.5178 15.9082 14.5201ZM7.71388 21.3772C7.71388 21.5045 7.66331 21.6266 7.57329 21.7166C7.48328 21.8067 7.36119 21.8572 7.23388 21.8572H6.64246C6.51515 21.8572 6.39306 21.8067 6.30304 21.7166C6.21303 21.6266 6.16246 21.5045 6.16246 21.3772V15.8572C6.16246 15.7299 6.21303 15.6078 6.30304 15.5178C6.39306 15.4278 6.51515 15.3772 6.64246 15.3772H7.26817C7.38944 15.3859 7.5029 15.4403 7.58563 15.5294C7.66836 15.6185 7.71419 15.7356 7.71388 15.8572V21.3772ZM16.7139 18.3172C16.7175 19.2319 16.4489 20.127 15.9425 20.8887C15.7398 21.1916 15.4657 21.44 15.1443 21.6119C14.8229 21.7838 14.4641 21.874 14.0996 21.8744H11.0225C10.2906 21.8736 9.56894 21.7035 8.91388 21.3772L8.57103 21.2058V15.9429L9.3596 15.1544C10.4147 14.0995 11.1641 12.7784 11.5282 11.3315L11.6139 10.9801C11.6393 10.8861 11.701 10.8059 11.7853 10.7572C11.8286 10.7383 11.8753 10.7286 11.9225 10.7286C11.9697 10.7286 12.0163 10.7383 12.0596 10.7572C12.2285 10.8134 12.3847 10.9023 12.5192 11.0189C12.6537 11.1355 12.764 11.2774 12.8436 11.4367C12.9232 11.5959 12.9706 11.7692 12.9832 11.9468C12.9957 12.1244 12.9732 12.3027 12.9167 12.4715L12.1967 14.8801C12.1781 14.944 12.1746 15.0113 12.1865 15.0767C12.1984 15.1422 12.2254 15.204 12.2653 15.2572C12.3043 15.3115 12.3558 15.3554 12.4156 15.3853C12.4753 15.4152 12.5414 15.4301 12.6082 15.4287H15.8567C15.9625 15.4287 16.0673 15.4495 16.1651 15.49C16.2628 15.5305 16.3517 15.5898 16.4265 15.6646C16.5013 15.7395 16.5606 15.8283 16.6011 15.926C16.6416 16.0238 16.6625 16.1286 16.6625 16.2344L16.7139 18.3172ZM9.42817 6.25723L9.15388 7.84294C9.12089 8.01843 9.13888 8.1997 9.20572 8.36528C9.27256 8.53086 9.38545 8.67382 9.53103 8.77722C9.69216 8.89735 9.8872 8.96336 10.0882 8.9658C10.2433 8.96334 10.3958 8.92521 10.5339 8.85437L11.9996 8.10008L13.431 8.85437C13.5884 8.93748 13.7661 8.97434 13.9436 8.96069C14.1211 8.94704 14.2911 8.88343 14.4339 8.77722C14.578 8.67448 14.6899 8.53293 14.7567 8.36905C14.8234 8.20516 14.8423 8.02569 14.811 7.85151L14.571 6.25723L15.6939 5.14294C15.8236 5.02029 15.9158 4.86336 15.9598 4.69038C16.0038 4.51741 15.9978 4.3355 15.9425 4.1658C15.8871 3.99628 15.7856 3.84553 15.6493 3.73047C15.513 3.61541 15.3474 3.54058 15.171 3.51437L13.5682 3.28294L12.8567 1.81722C12.7767 1.65855 12.6542 1.52521 12.5029 1.43204C12.3515 1.33888 12.1773 1.28955 11.9996 1.28955C11.8219 1.28955 11.6477 1.33888 11.4963 1.43204C11.345 1.52521 11.2225 1.65855 11.1425 1.81722L10.431 3.2658L8.82817 3.49722C8.65177 3.52344 8.48615 3.59827 8.3499 3.71333C8.21364 3.82839 8.11213 3.97913 8.05674 4.14865C7.99788 4.32071 7.99003 4.50611 8.03413 4.68252C8.07824 4.85893 8.17241 5.01883 8.30531 5.14294L9.42817 6.25723ZM8.91388 4.3458L10.7396 4.08008C10.8221 4.08542 10.9043 4.06631 10.9759 4.02514C11.0476 3.98398 11.1055 3.92258 11.1425 3.84865L11.9996 2.19437C12.0071 2.17795 12.0192 2.16405 12.0344 2.1543C12.0496 2.14454 12.0673 2.13936 12.0853 2.13936C12.1034 2.13936 12.121 2.14454 12.1362 2.1543C12.1514 2.16405 12.1635 2.17795 12.171 2.19437L13.0282 3.84865C13.059 3.91124 13.1049 3.96518 13.1617 4.00558C13.2186 4.04599 13.2846 4.07159 13.3539 4.08008L15.1796 4.3458C15.1974 4.34942 15.2138 4.35766 15.2274 4.36971C15.2409 4.38175 15.2511 4.39715 15.2567 4.41437C15.265 4.4287 15.2694 4.44496 15.2694 4.46151C15.2694 4.47806 15.265 4.49432 15.2567 4.50865L13.9367 5.79437C13.8868 5.84426 13.8492 5.90509 13.8269 5.97204C13.8046 6.03899 13.7982 6.11022 13.8082 6.18008L14.1253 7.98865C14.1311 8.00689 14.13 8.02663 14.1221 8.04406C14.1141 8.06148 14.1 8.07534 14.0825 8.08294C14.0676 8.09407 14.0496 8.10008 14.031 8.10008C14.0125 8.10008 13.9944 8.09407 13.9796 8.08294L12.351 7.2258C12.2908 7.19201 12.2229 7.17426 12.1539 7.17426C12.0848 7.17426 12.017 7.19201 11.9567 7.2258L10.3196 8.08294C10.3061 8.09337 10.2895 8.09902 10.2725 8.09902C10.2554 8.09902 10.2388 8.09337 10.2253 8.08294C10.2077 8.07534 10.1936 8.06148 10.1857 8.04406C10.1778 8.02663 10.1766 8.00689 10.1825 7.98865L10.4996 6.18008C10.5096 6.11022 10.5032 6.03899 10.4809 5.97204C10.4586 5.90509 10.4209 5.84426 10.371 5.79437L9.05103 4.50865C9.04275 4.49432 9.03839 4.47806 9.03839 4.46151C9.03839 4.44496 9.04275 4.4287 9.05103 4.41437C9.02877 4.41563 9.0067 4.40963 8.98815 4.39726C8.9696 4.38489 8.95557 4.36683 8.94817 4.3458H8.91388ZM6.29103 11.3572C6.4187 11.3596 6.54529 11.3333 6.66153 11.2805C6.77777 11.2276 6.88072 11.1494 6.96288 11.0517C7.04503 10.9539 7.1043 10.839 7.13636 10.7154C7.16842 10.5918 7.17245 10.4626 7.14817 10.3372L6.91674 9.03437L7.87674 8.10008C7.99769 7.98908 8.08422 7.84569 8.12605 7.68694C8.16787 7.5282 8.16323 7.36078 8.11267 7.2046C8.06211 7.04841 7.96777 6.91003 7.84085 6.80591C7.71394 6.70178 7.55979 6.63629 7.39674 6.61722L6.08531 6.42865L5.49388 5.23722C5.41497 5.10014 5.30132 4.98627 5.16438 4.90709C5.02745 4.82791 4.87206 4.78622 4.71388 4.78622C4.5557 4.78622 4.40032 4.82791 4.26338 4.90709C4.12645 4.98627 4.0128 5.10014 3.93388 5.23722L3.34246 6.42865L2.03103 6.61722C1.86797 6.63629 1.71383 6.70178 1.58691 6.80591C1.46 6.91003 1.36565 7.04841 1.3151 7.2046C1.26454 7.36078 1.2599 7.5282 1.30172 7.68694C1.34355 7.84569 1.43008 7.98908 1.55103 8.10008L2.50246 9.03437L2.27103 10.3372C2.24133 10.4988 2.25867 10.6654 2.32097 10.8174C2.38327 10.9693 2.48792 11.1002 2.62246 11.1944C2.75386 11.2904 2.90989 11.3471 3.0723 11.3577C3.23472 11.3683 3.3968 11.3325 3.5396 11.2544L4.71388 10.6372L5.88817 11.2544C6.01198 11.3212 6.15033 11.3565 6.29103 11.3572ZM4.71388 9.72865C4.6448 9.72823 4.57681 9.74596 4.51674 9.78008L3.1196 10.4829L3.42817 8.95722C3.43294 8.88386 3.41983 8.81043 3.38997 8.74325C3.36011 8.67606 3.31439 8.61713 3.25674 8.57151L2.15103 7.4658L3.69388 7.24294C3.7621 7.23461 3.82705 7.20898 3.88256 7.16847C3.93807 7.12797 3.98229 7.07393 4.01103 7.01151L4.72246 5.61437L5.41674 7.01151C5.44548 7.07393 5.4897 7.12797 5.54521 7.16847C5.60072 7.20898 5.66567 7.23461 5.73388 7.24294L7.27674 7.49151L6.17103 8.57151C6.12111 8.6214 6.0835 8.68223 6.06118 8.74918C6.03886 8.81613 6.03245 8.88736 6.04246 8.95722L6.29103 10.5001L4.91103 9.78008C4.85095 9.74596 4.78297 9.72823 4.71388 9.72865ZM22.671 7.20865C22.6221 7.05354 22.53 6.91556 22.4055 6.81084C22.2811 6.70611 22.1294 6.63896 21.9682 6.61722L20.6567 6.42865L20.0653 5.23722C19.9864 5.10014 19.8727 4.98627 19.7358 4.90709C19.5989 4.82791 19.4435 4.78622 19.2853 4.78622C19.1271 4.78622 18.9717 4.82791 18.8348 4.90709C18.6979 4.98627 18.5842 5.10014 18.5053 5.23722L17.9139 6.42865L16.6025 6.61722C16.4394 6.63629 16.2853 6.70178 16.1583 6.80591C16.0314 6.91003 15.9371 7.04841 15.8865 7.2046C15.836 7.36078 15.8313 7.5282 15.8732 7.68694C15.915 7.84569 16.0015 7.98908 16.1225 8.10008L17.0739 9.03437L16.8425 10.3372C16.8128 10.4988 16.8301 10.6654 16.8924 10.8174C16.9547 10.9693 17.0593 11.1002 17.1939 11.1944C17.3253 11.2904 17.4813 11.3471 17.6437 11.3577C17.8061 11.3683 17.9682 11.3325 18.111 11.2544L19.2853 10.6372L20.4596 11.2544C20.5834 11.3212 20.7218 11.3565 20.8625 11.3572C20.9901 11.3596 21.1167 11.3333 21.233 11.2805C21.3492 11.2276 21.4522 11.1494 21.5343 11.0517C21.6165 10.9539 21.6757 10.839 21.7078 10.7154C21.7398 10.5918 21.7439 10.4626 21.7196 10.3372L21.4882 9.03437L22.4396 8.10008C22.559 7.98892 22.6442 7.846 22.6852 7.68809C22.7262 7.53018 22.7213 7.36386 22.671 7.20865ZM20.7425 8.57151C20.6925 8.6214 20.6549 8.68223 20.6326 8.74918C20.6103 8.81613 20.6039 8.88736 20.6139 8.95722L20.8625 10.5001L19.4825 9.78008C19.4222 9.74629 19.3544 9.72855 19.2853 9.72855C19.2163 9.72855 19.1484 9.74629 19.0882 9.78008L17.691 10.4829L17.9996 8.95722C18.0044 8.88386 17.9913 8.81043 17.9614 8.74325C17.9315 8.67606 17.8858 8.61713 17.8282 8.57151L16.7225 7.4658L18.2653 7.24294C18.3335 7.23461 18.3985 7.20898 18.454 7.16847C18.5095 7.12797 18.5537 7.07393 18.5825 7.01151L19.2939 5.61437L19.9882 7.01151C20.0169 7.07393 20.0611 7.12797 20.1166 7.16847C20.1722 7.20898 20.2371 7.23461 20.3053 7.24294L21.8482 7.49151L20.7425 8.57151Z" fill="black"/>
</svg>
