<svg width="24" height="24" viewBox="0 0 24 24" fill="none" xmlns="http://www.w3.org/2000/svg">
<g clip-path="url(#clip0_3738_10438)">
<path d="M17 24C13.606 24 10 22.948 10 21C10 20.8674 10.0527 20.7402 10.1464 20.6464C10.2402 20.5527 10.3674 20.5 10.5 20.5C10.6326 20.5 10.7598 20.5527 10.8536 20.6464C10.9473 20.7402 11 20.8674 11 21C11 21.835 13.282 23 17 23C20.718 23 23 21.835 23 21C23 20.8674 23.0527 20.7402 23.1464 20.6464C23.2402 20.5527 23.3674 20.5 23.5 20.5C23.6326 20.5 23.7598 20.5527 23.8536 20.6464C23.9473 20.7402 24 20.8674 24 21C24 22.948 20.394 24 17 24Z" fill="black"/>
<path d="M17 21C13.606 21 10 19.948 10 18C10 17.8674 10.0527 17.7402 10.1464 17.6464C10.2402 17.5527 10.3674 17.5 10.5 17.5C10.6326 17.5 10.7598 17.5527 10.8536 17.6464C10.9473 17.7402 11 17.8674 11 18C11 18.835 13.282 20 17 20C20.718 20 23 18.835 23 18C23 17.8674 23.0527 17.7402 23.1464 17.6464C23.2402 17.5527 23.3674 17.5 23.5 17.5C23.6326 17.5 23.7598 17.5527 23.8536 17.6464C23.9473 17.7402 24 17.8674 24 18C24 19.948 20.394 21 17 21Z" fill="black"/>
<path d="M17 18C13.606 18 10 16.948 10 15C10 13.052 13.606 12 17 12C20.394 12 24 13.052 24 15C24 16.948 20.394 18 17 18ZM17 13C13.282 13 11 14.165 11 15C11 15.835 13.282 17 17 17C20.718 17 23 15.835 23 15C23 14.165 20.718 13 17 13Z" fill="black"/>
<path d="M23.5 21.5C23.3674 21.5 23.2402 21.4473 23.1464 21.3536C23.0527 21.2598 23 21.1326 23 21V15C23 14.8674 23.0527 14.7402 23.1464 14.6464C23.2402 14.5527 23.3674 14.5 23.5 14.5C23.6326 14.5 23.7598 14.5527 23.8536 14.6464C23.9473 14.7402 24 14.8674 24 15V21C24 21.1326 23.9473 21.2598 23.8536 21.3536C23.7598 21.4473 23.6326 21.5 23.5 21.5ZM10.5 21.5C10.3674 21.5 10.2402 21.4473 10.1464 21.3536C10.0527 21.2598 10 21.1326 10 21V15C10 14.8674 10.0527 14.7402 10.1464 14.6464C10.2402 14.5527 10.3674 14.5 10.5 14.5C10.6326 14.5 10.7598 14.5527 10.8536 14.6464C10.9473 14.7402 11 14.8674 11 15V21C11 21.1326 10.9473 21.2598 10.8536 21.3536C10.7598 21.4473 10.6326 21.5 10.5 21.5ZM7 12C3.606 12 0 10.948 0 9C0 8.86739 0.0526784 8.74021 0.146447 8.64645C0.240215 8.55268 0.367392 8.5 0.5 8.5C0.632608 8.5 0.759785 8.55268 0.853553 8.64645C0.947322 8.74021 1 8.86739 1 9C1 9.835 3.282 11 7 11C10.718 11 13 9.835 13 9C13 8.86739 13.0527 8.74021 13.1464 8.64645C13.2402 8.55268 13.3674 8.5 13.5 8.5C13.6326 8.5 13.7598 8.55268 13.8536 8.64645C13.9473 8.74021 14 8.86739 14 9C14 10.948 10.394 12 7 12Z" fill="black"/>
<path d="M7 9C3.606 9 0 7.948 0 6C0 5.86739 0.0526784 5.74021 0.146447 5.64645C0.240215 5.55268 0.367392 5.5 0.5 5.5C0.632608 5.5 0.759785 5.55268 0.853554 5.64645C0.947322 5.74021 1 5.86739 1 6C1 6.835 3.282 8 7 8C10.718 8 13 6.835 13 6C13 5.86739 13.0527 5.74021 13.1464 5.64645C13.2402 5.55268 13.3674 5.5 13.5 5.5C13.6326 5.5 13.7598 5.55268 13.8536 5.64645C13.9473 5.74021 14 5.86739 14 6C14 7.948 10.394 9 7 9ZM7 18C3.606 18 0 16.948 0 15C0 14.8674 0.0526784 14.7402 0.146447 14.6464C0.240215 14.5527 0.367392 14.5 0.5 14.5C0.632608 14.5 0.759785 14.5527 0.853554 14.6464C0.947322 14.7402 1 14.8674 1 15C1 15.835 3.282 17 7 17C7.544 17 8.018 16.978 8.447 16.933C8.57686 16.9227 8.70563 16.9635 8.80588 17.0467C8.90613 17.1298 8.96995 17.2489 8.98377 17.3784C8.99758 17.5079 8.96029 17.6378 8.87984 17.7402C8.79939 17.8427 8.68212 17.9097 8.553 17.927C8.087 17.977 7.579 18 7 18ZM7 21C3.606 21 0 19.948 0 18C0 17.8674 0.0526784 17.7402 0.146447 17.6464C0.240215 17.5527 0.367392 17.5 0.5 17.5C0.632608 17.5 0.759785 17.5527 0.853554 17.6464C0.947322 17.7402 1 17.8674 1 18C1 18.835 3.282 20 7 20C7.544 20 8.018 19.978 8.447 19.933C8.57686 19.9227 8.70563 19.9635 8.80588 20.0467C8.90613 20.1298 8.96995 20.2489 8.98377 20.3784C8.99758 20.5079 8.96029 20.6378 8.87984 20.7402C8.79939 20.8427 8.68212 20.9097 8.553 20.927C8.087 20.977 7.579 21 7 21ZM7 15C3.606 15 0 13.948 0 12C0 11.8674 0.0526784 11.7402 0.146447 11.6464C0.240215 11.5527 0.367392 11.5 0.5 11.5C0.632608 11.5 0.759785 11.5527 0.853554 11.6464C0.947322 11.7402 1 11.8674 1 12C1 12.835 3.282 14 7 14C7.544 14 8.018 13.978 8.447 13.933C8.51321 13.9241 8.58052 13.9286 8.64496 13.9462C8.7094 13.9638 8.76967 13.9941 8.82221 14.0353C8.87474 14.0766 8.91848 14.1279 8.95084 14.1864C8.98319 14.2448 9.00351 14.3091 9.0106 14.3756C9.01768 14.442 9.01138 14.5091 8.99208 14.5731C8.97277 14.637 8.94085 14.6965 8.89819 14.7479C8.85554 14.7993 8.80302 14.8416 8.74373 14.8724C8.68444 14.9031 8.61959 14.9217 8.553 14.927C8.087 14.977 7.579 15 7 15Z" fill="black"/>
<path d="M7 6C3.606 6 0 4.948 0 3C0 1.052 3.606 0 7 0C10.394 0 14 1.052 14 3C14 4.948 10.394 6 7 6ZM7 1C3.282 1 1 2.165 1 3C1 3.835 3.282 5 7 5C10.718 5 13 3.835 13 3C13 2.165 10.718 1 7 1Z" fill="black"/>
<path d="M0.5 18.5C0.367392 18.5 0.240215 18.4473 0.146447 18.3536C0.0526784 18.2598 0 18.1326 0 18V3C0 2.86739 0.0526784 2.74021 0.146447 2.64645C0.240215 2.55268 0.367392 2.5 0.5 2.5C0.632608 2.5 0.759785 2.55268 0.853554 2.64645C0.947322 2.74021 1 2.86739 1 3V18C1 18.1326 0.947322 18.2598 0.853554 18.3536C0.759785 18.4473 0.632608 18.5 0.5 18.5ZM13.5 9.5C13.3674 9.5 13.2402 9.44732 13.1464 9.35355C13.0527 9.25979 13 9.13261 13 9V3C13 2.86739 13.0527 2.74021 13.1464 2.64645C13.2402 2.55268 13.3674 2.5 13.5 2.5C13.6326 2.5 13.7598 2.55268 13.8536 2.64645C13.9473 2.74021 14 2.86739 14 3V9C14 9.13261 13.9473 9.25979 13.8536 9.35355C13.7598 9.44732 13.6326 9.5 13.5 9.5Z" fill="black"/>
</g>
<defs>
<clipPath id="clip0_3738_10438">
<rect width="24" height="24" fill="white"/>
</clipPath>
</defs>
</svg>
