<svg width="24" height="24" viewBox="0 0 24 24" fill="none" xmlns="http://www.w3.org/2000/svg">
<g clip-path="url(#clip0_3738_10434)">
<path d="M4.125 15.75C3.30915 15.75 2.51163 15.9919 1.83327 16.4452C1.15492 16.8984 0.62621 17.5427 0.313999 18.2964C0.00178731 19.0502 -0.0799015 19.8796 0.0792626 20.6797C0.238427 21.4799 0.631295 22.2149 1.20819 22.7918C1.78508 23.3687 2.52008 23.7616 3.32025 23.9207C4.12043 24.0799 4.94983 23.9982 5.70357 23.686C6.45732 23.3738 7.10155 22.8451 7.55481 22.1667C8.00808 21.4884 8.25 20.6908 8.25 19.875C8.24881 18.7813 7.81383 17.7328 7.0405 16.9595C6.26717 16.1862 5.21865 15.7512 4.125 15.75ZM4.125 23.25C3.45749 23.25 2.80497 23.0521 2.24995 22.6812C1.69494 22.3104 1.26235 21.7833 1.00691 21.1666C0.751463 20.5499 0.684626 19.8713 0.814852 19.2166C0.945077 18.5619 1.26651 17.9605 1.73852 17.4885C2.21052 17.0165 2.81189 16.6951 3.46657 16.5648C4.12126 16.4346 4.79986 16.5015 5.41656 16.7569C6.03326 17.0124 6.56036 17.4449 6.93121 17.9999C7.30206 18.555 7.5 19.2075 7.5 19.875C7.49901 20.7698 7.14311 21.6277 6.51039 22.2604C5.87767 22.8931 5.0198 23.249 4.125 23.25Z" fill="black"/>
<path d="M4.77937 18.5426C4.83467 18.5948 4.86873 18.6656 4.875 18.7414C4.87263 18.8391 4.90855 18.934 4.9751 19.0056C5.04165 19.0773 5.13357 19.1201 5.23125 19.125C5.32981 19.1268 5.42535 19.091 5.49838 19.0248C5.57142 18.9586 5.61643 18.867 5.62425 18.7687C5.62619 18.4916 5.51833 18.2249 5.32425 18.027C5.10006 17.8114 4.80959 17.678 4.5 17.6483V17.625C4.5 17.5255 4.46049 17.4302 4.39016 17.3598C4.31984 17.2895 4.22446 17.25 4.125 17.25C4.02554 17.25 3.93016 17.2895 3.85984 17.3598C3.78951 17.4302 3.75 17.5255 3.75 17.625V17.6569C3.43899 17.6975 3.15337 17.8499 2.94644 18.0856C2.73951 18.3213 2.6254 18.6242 2.6254 18.9379C2.6254 19.2515 2.73951 19.5545 2.94644 19.7902C3.15337 20.0259 3.43899 20.1783 3.75 20.2189V21.3401C3.64674 21.3215 3.55031 21.2756 3.47063 21.2074C3.41776 21.1571 3.38397 21.09 3.375 21.0176C3.37977 20.9183 3.34488 20.8211 3.278 20.7475C3.21112 20.6738 3.11773 20.6298 3.01837 20.625C2.91902 20.6202 2.82183 20.6551 2.7482 20.722C2.67457 20.7889 2.63052 20.8823 2.62575 20.9816C2.62391 21.2587 2.73176 21.5252 2.92575 21.723C3.14992 21.9386 3.4404 22.0721 3.75 22.1017V22.125C3.75 22.2245 3.78951 22.3198 3.85984 22.3902C3.93016 22.4605 4.02554 22.5 4.125 22.5C4.22446 22.5 4.31984 22.4605 4.39016 22.3902C4.46049 22.3198 4.5 22.2245 4.5 22.125V22.0931C4.81101 22.0525 5.09663 21.9001 5.30356 21.6644C5.51049 21.4287 5.6246 21.1258 5.6246 20.8121C5.6246 20.4985 5.51049 20.1955 5.30356 19.9598C5.09663 19.7241 4.81101 19.5717 4.5 19.5311V18.4103C4.60324 18.4288 4.69967 18.4744 4.77937 18.5426ZM3.375 18.9375C3.37502 18.8238 3.41142 18.713 3.4789 18.6215C3.54637 18.5299 3.64137 18.4623 3.75 18.4286V19.4471C3.64138 19.4132 3.54644 19.3455 3.47904 19.2538C3.41165 19.1621 3.37532 19.0513 3.37538 18.9375H3.375ZM4.87425 20.8125C4.8742 20.9261 4.83787 21.0367 4.77054 21.1281C4.70322 21.2196 4.60843 21.2872 4.5 21.321V20.3025C4.60862 20.3364 4.70356 20.4041 4.77096 20.4958C4.83835 20.5875 4.87468 20.6983 4.87462 20.8121L4.87425 20.8125ZM23.625 21.375H21.75V5.625C21.75 5.52554 21.7105 5.43016 21.6402 5.35984C21.5698 5.28951 21.4745 5.25 21.375 5.25H18.375C18.2755 5.25 18.1802 5.28951 18.1098 5.35984C18.0395 5.43016 18 5.52554 18 5.625V21.375H16.5V7.875C16.5 7.77554 16.4605 7.68016 16.3902 7.60983C16.3198 7.53951 16.2245 7.5 16.125 7.5H13.125C13.0255 7.5 12.9302 7.53951 12.8598 7.60983C12.7895 7.68016 12.75 7.77554 12.75 7.875V21.375H11.25V10.125C11.25 10.0255 11.2105 9.93016 11.1402 9.85983C11.0698 9.78951 10.9745 9.75 10.875 9.75H7.875C7.77554 9.75 7.68016 9.78951 7.60983 9.85983C7.53951 9.93016 7.5 10.0255 7.5 10.125V16.2037C7.5 16.3032 7.53951 16.3986 7.60983 16.4689C7.68016 16.5392 7.77554 16.5787 7.875 16.5787C7.97446 16.5787 8.06984 16.5392 8.14017 16.4689C8.21049 16.3986 8.25 16.3032 8.25 16.2037V10.5H10.5V21.375H9.02625C8.92679 21.375 8.83141 21.4145 8.76109 21.4848C8.69076 21.5552 8.65125 21.6505 8.65125 21.75C8.65125 21.8495 8.69076 21.9448 8.76109 22.0152C8.83141 22.0855 8.92679 22.125 9.02625 22.125H23.25V23.25H7.79625C7.69679 23.25 7.60141 23.2895 7.53109 23.3598C7.46076 23.4302 7.42125 23.5255 7.42125 23.625C7.42125 23.7245 7.46076 23.8198 7.53109 23.8902C7.60141 23.9605 7.69679 24 7.79625 24H23.625C23.7245 24 23.8198 23.9605 23.8902 23.8902C23.9605 23.8198 24 23.7245 24 23.625V21.75C24 21.6505 23.9605 21.5552 23.8902 21.4848C23.8198 21.4145 23.7245 21.375 23.625 21.375ZM18.75 6H21V21.375H18.75V6ZM13.5 8.25H15.75V21.375H13.5V8.25ZM2.625 15.2175C2.72446 15.2175 2.81984 15.178 2.89016 15.1077C2.96049 15.0373 3 14.942 3 14.8425V12.375H5.25V14.8425C5.25 14.942 5.28951 15.0373 5.35984 15.1077C5.43016 15.178 5.52554 15.2175 5.625 15.2175C5.72446 15.2175 5.81984 15.178 5.89016 15.1077C5.96049 15.0373 6 14.942 6 14.8425V12C6 11.9005 5.96049 11.8052 5.89016 11.7348C5.81984 11.6645 5.72446 11.625 5.625 11.625H2.625C2.52554 11.625 2.43016 11.6645 2.35984 11.7348C2.28951 11.8052 2.25 11.9005 2.25 12V14.8425C2.25 14.942 2.28951 15.0373 2.35984 15.1077C2.43016 15.178 2.52554 15.2175 2.625 15.2175ZM4.12462 9.375L4.14262 9.37463C10.8626 9.05438 17.445 3.25238 19.5 1.2765V3.75C19.5 3.84946 19.5395 3.94484 19.6098 4.01516C19.6802 4.08549 19.7755 4.125 19.875 4.125C19.9745 4.125 20.0698 4.08549 20.1402 4.01516C20.2105 3.94484 20.25 3.84946 20.25 3.75V0.375L20.2493 0.3705C20.2458 0.272679 20.2052 0.179852 20.1356 0.110989C20.0661 0.0421265 19.9729 0.0024258 19.875 0L16.5 0C16.4005 0 16.3052 0.0395088 16.2348 0.109835C16.1645 0.180161 16.125 0.275544 16.125 0.375C16.125 0.474456 16.1645 0.569839 16.2348 0.640165C16.3052 0.710491 16.4005 0.75 16.5 0.75H18.9578C16.9369 2.66962 10.47 8.32237 4.10738 8.62537C4.00943 8.62976 3.91709 8.67233 3.85015 8.74396C3.7832 8.8156 3.74698 8.91061 3.74923 9.00863C3.75149 9.10665 3.79204 9.19989 3.86221 9.26837C3.93238 9.33685 4.02658 9.37513 4.12462 9.375Z" fill="black"/>
</g>
<defs>
<clipPath id="clip0_3738_10434">
<rect width="24" height="24" fill="white"/>
</clipPath>
</defs>
</svg>
