<?xml version="1.0" standalone="no"?>
<!DOCTYPE svg PUBLIC "-//W3C//DTD SVG 1.1//EN" "http://www.w3.org/Graphics/SVG/1.1/DTD/svg11.dtd" >
<svg xmlns="http://www.w3.org/2000/svg">
<metadata>Generated by IcoMoon</metadata>
<defs>
<font id="PenguinBoldIcon" horiz-adv-x="1024">
<font-face units-per-em="1024" ascent="960" descent="-64" />
<missing-glyph horiz-adv-x="1024" />
<glyph unicode="&#x20;" horiz-adv-x="512" d="" />
<glyph unicode="&#xe900;" glyph-name="d-cube-scan" d="M938.667 544c-17.493 0-32 14.507-32 32v85.333c0 110.080-71.253 181.333-181.333 181.333h-426.667c-110.080 0-181.333-71.253-181.333-181.333v-85.333c0-17.493-14.507-32-32-32s-32 14.507-32 32v85.333c0 146.773 98.56 245.333 245.333 245.333h426.667c146.773 0 245.333-98.56 245.333-245.333v-85.333c0-17.493-14.507-32-32-32zM725.333-10.667h-426.667c-146.773 0-245.333 98.56-245.333 245.333v85.333c0 17.493 14.507 32 32 32s32-14.507 32-32v-85.333c0-110.080 71.253-181.333 181.333-181.333h426.667c110.080 0 181.333 71.253 181.333 181.333v85.333c0 17.493 14.507 32 32 32s32-14.507 32-32v-85.333c0-146.773-98.56-245.333-245.333-245.333zM699.733 609.708l-160.427 86.613c-17.067 8.96-37.12 8.96-54.187 0l-160.853-86.613c-11.52-6.4-18.773-18.773-18.773-32.427 0-14.080 7.253-26.453 18.773-32.853l160.427-86.615c8.533-4.693 17.92-6.827 27.307-6.827s18.773 2.133 27.307 6.827l160.427 86.615c11.52 6.4 18.773 18.773 18.773 32.853 0 13.653-7.253 26.027-18.773 32.427zM458.24 427.942l-149.333 74.667c-11.52 5.547-24.747 5.12-35.84-1.707-10.667-6.827-17.067-18.347-17.067-31.147v-141.227c0-24.32 13.653-46.507 35.413-57.173l149.333-74.667c5.12-2.56 10.667-3.84 16.64-3.84 6.827 0 13.227 1.707 19.2 5.547 11.093 6.827 17.493 18.347 17.493 31.147v141.227c-0.427 24.32-13.653 46.080-35.84 57.173zM750.507 500.902c-11.093 6.827-24.32 7.253-35.84 1.707l-149.333-74.667c-21.76-11.093-35.413-32.853-35.413-57.173v-141.227c0-12.8 6.4-24.32 17.493-31.147 5.973-3.84 12.373-5.547 19.2-5.547 5.547 0 11.093 1.28 16.64 3.84l149.333 74.667c21.76 11.093 35.413 32.853 35.413 57.173v141.227c0 12.8-6.4 24.32-17.493 31.147z" />
<glyph unicode="&#xe901;" glyph-name="d-rotate" d="M640-10.667c-11.52 0-22.187 6.4-27.733 16.213-5.547 10.24-5.547 22.187 0.427 32.427l44.8 74.667c8.96 14.933 28.587 20.053 43.947 11.093s20.053-28.587 11.093-43.947l-11.52-19.2c117.76 27.733 206.080 133.547 206.080 259.84 0 17.493 14.507 32 32 32s32-14.507 32-32c-0.427-182.613-148.907-331.093-331.093-331.093zM85.333 544c-17.493 0-32 14.507-32 32 0 182.187 148.48 330.667 330.667 330.667 11.52 0 22.187-6.4 27.733-16.213 5.547-10.24 5.547-22.187-0.427-32.427l-44.8-74.667c-8.96-14.933-28.587-20.053-43.947-10.667-14.933 8.96-20.053 28.587-10.667 43.947l11.52 19.2c-118.187-27.733-206.080-133.547-206.080-259.84 0-17.493-14.507-32-32-32zM699.733 609.708l-160.427 86.613c-17.067 8.96-37.12 8.96-54.187 0l-160.853-86.613c-11.52-6.4-18.773-18.773-18.773-32.427 0-14.080 7.253-26.453 18.773-32.853l160.427-86.615c8.533-4.693 17.92-6.827 27.307-6.827s18.773 2.133 27.307 6.827l160.427 86.615c11.52 6.4 18.773 18.773 18.773 32.853 0 13.653-7.253 26.027-18.773 32.427zM458.24 427.942l-149.333 74.667c-11.52 5.547-24.747 5.12-35.84-1.707-10.667-6.827-17.067-18.347-17.067-31.147v-141.227c0-24.32 13.653-46.507 35.413-57.173l149.333-74.667c5.12-2.56 10.667-3.84 16.64-3.84 6.827 0 13.227 1.707 19.2 5.547 11.093 6.827 17.493 18.347 17.493 31.147v141.227c-0.427 24.32-13.653 46.080-35.84 57.173zM750.507 500.902c-11.093 6.827-24.32 7.253-35.84 1.707l-149.333-74.667c-21.76-11.093-35.413-32.853-35.413-57.173v-141.227c0-12.8 6.4-24.32 17.493-31.147 5.973-3.84 12.373-5.547 19.2-5.547 5.547 0 11.093 1.28 16.64 3.84l149.333 74.667c21.76 11.093 35.413 32.853 35.413 57.173v141.227c0 12.8-6.4 24.32-17.493 31.147z" />
<glyph unicode="&#xe902;" glyph-name="d-square" d="M690.773 860.588h-357.547c-155.307 0-247.893-93.013-247.893-248.32v-357.122c0-155.307 92.587-247.893 247.893-247.893h357.12c155.307 0 247.893 92.587 247.893 247.893v357.122c0.427 155.307-92.16 248.32-247.467 248.32zM493.653 229.547c0-12.8-6.4-24.32-17.493-31.147-5.973-3.84-12.373-5.547-19.2-5.547-5.547 0-11.093 1.28-16.64 3.84l-149.333 74.667c-21.333 11.093-34.987 32.853-34.987 57.173v141.227c0 12.8 6.4 24.32 17.493 31.147s24.32 7.253 35.84 1.707l149.333-74.667c21.76-11.093 35.413-32.853 35.413-57.173v-141.227h-0.427zM484.693 457.813l-160.427 86.615c-11.52 6.4-18.773 18.773-18.773 32.853 0 13.653 7.253 26.453 18.773 32.853l160.427 86.613c17.067 8.96 37.12 8.96 54.187 0l160.427-86.613c11.52-6.4 18.773-18.773 18.773-32.853s-7.253-26.453-18.773-32.853l-160.427-86.615c-8.533-4.693-17.92-6.827-27.307-6.827s-18.347 2.133-26.88 6.827zM768 328.533c0-24.32-13.653-46.507-35.413-57.173l-149.333-74.667c-5.12-2.56-10.667-3.84-16.64-3.84-6.827 0-13.227 1.707-19.2 5.547-11.093 6.827-17.493 18.347-17.493 31.147v141.227c0 24.32 13.653 46.507 35.413 57.173l149.333 74.667c11.52 5.547 24.747 5.12 35.84-1.707s17.493-18.347 17.493-31.147v-141.227z" />
<glyph unicode="&#xe903;" glyph-name="dcube" d="M824.751 717.652l-267.52 144.213c-28.16 15.36-62.293 15.36-90.453 0l-267.522-144.213c-19.627-10.667-31.573-31.147-31.573-54.613 0-23.040 11.947-43.947 31.573-54.613l267.522-144.212c14.080-7.68 29.867-11.52 45.227-11.52s31.147 3.84 45.227 11.52l267.52 144.212c19.627 10.667 31.573 31.147 31.573 54.613s-11.947 43.947-31.573 54.613zM422.827 414.293l-249.173 124.587c-19.2 9.387-41.387 8.533-59.307-2.56-18.347-11.52-29.013-30.72-29.013-52.053v-235.093c0-40.533 22.613-77.227 58.88-95.573l248.747-124.587c8.533-4.267 17.92-6.4 27.307-6.4 11.093 0 22.187 2.987 32 8.96 18.347 11.093 29.013 30.72 29.013 52.053v235.093c0.427 40.96-22.187 77.653-58.453 95.573zM909.653 536.319c-18.347 11.093-40.533 12.373-59.307 2.56l-248.747-124.586c-36.267-18.347-58.88-54.613-58.88-95.573v-235.093c0-21.333 10.667-40.96 29.013-52.053 9.813-5.973 20.907-8.96 32-8.96 9.387 0 18.773 2.133 27.307 6.4l248.747 124.587c36.267 18.347 58.88 54.613 58.88 95.573v235.093c0 21.333-10.667 40.533-29.013 52.052z" />
<glyph unicode="&#xe904;" glyph-name="full" d="M871.253 576.001c-5.973 0.427-13.653 0.853-22.187 0.853-16.64 0-29.867-13.227-29.867-29.867v-198.401c0-16.64 13.227-29.867 29.867-29.867 8.533 0 15.787 0.427 23.040 0.853 66.56 7.68 66.56 54.613 66.56 88.747v79.36c0 34.133 0 81.068-67.413 88.321zM551.68 755.625h-238.080c-174.933 0-228.267-53.333-228.267-228.265v-158.72c0-174.933 53.333-228.267 228.267-228.267h238.080c174.933 0 228.267 53.333 228.267 228.267v158.72c0 174.932-53.333 228.265-228.267 228.265zM302.933 354.987c-3.413-14.507-16.64-24.32-31.147-24.32-2.56 0-5.12 0.427-7.68 0.853-17.067 4.267-27.733 21.76-23.467 38.827 12.8 50.773 12.8 104.533 0 155.307-4.267 17.065 5.973 34.558 23.467 38.825s34.56-6.4 38.827-23.467c15.36-61.012 15.36-125.012 0-186.025zM452.267 354.987c-3.413-14.507-16.64-24.32-31.147-24.32-2.56 0-5.12 0.427-7.68 0.853-17.067 4.267-27.733 21.76-23.467 38.827 12.8 50.773 12.8 104.533 0 155.307-4.267 17.065 5.973 34.558 23.467 38.825 17.067 4.267 34.56-5.973 38.827-23.467 15.36-61.012 15.36-125.012 0-186.025z" />
<glyph unicode="&#xe905;" glyph-name="square" d="M512 170.667v-37.547c0-79.787-32-111.787-112.213-111.787h-202.667c-61.867 0-111.787 49.92-111.787 111.787v202.667c0 80.213 32 112.213 111.787 112.213h37.547v-149.333c0-70.827 57.173-128 128-128h149.333zM725.333 384v-37.12c0-61.867-50.347-112.213-112.213-112.213h-202.667c-79.787 0-111.787 32-111.787 112.213v202.667c0 61.867 49.92 111.787 111.787 111.787h37.547v-149.333c0-70.827 57.173-128 128-128h149.333zM938.667 762.88v-202.667c0-80.213-32-112.213-112.213-112.213h-202.667c-79.787 0-111.787 32-111.787 112.213v202.667c0 79.787 32 111.787 111.787 111.787h202.667c80.213 0 112.213-32 112.213-111.787z" />
<glyph unicode="&#xe906;" glyph-name="support" d="M768 874.667h-512c-70.827 0-128-56.747-128-126.72v-465.493c0-69.973 57.173-126.72 128-126.72h32.427c34.133 0 66.56-13.227 90.453-37.12l72.96-72.107c33.28-32.853 87.467-32.853 120.747 0l72.96 72.107c23.893 23.893 56.747 37.12 90.453 37.12h32c70.827 0 128 56.747 128 126.72v465.493c0 69.973-57.173 126.72-128 126.72zM442.88 404.907c17.493 0 32-14.507 32-32s-14.507-32-32-32h-114.347c-18.773 0-36.267 8.96-47.36 24.32-10.667 14.507-13.227 32.427-8.107 49.493 14.933 45.653 51.627 70.4 84.053 92.587 34.133 23.040 53.333 37.547 53.333 62.293 0 22.187-17.92 40.107-40.107 40.107s-39.68-18.347-39.68-40.533c0-17.493-14.507-32-32-32s-32 14.507-32 32c0 57.173 46.507 104.107 104.107 104.107s104.107-46.507 104.107-104.107c0-60.16-45.227-90.88-81.493-115.627-22.613-15.36-43.947-29.867-54.613-49.067h104.107v0.427zM725.333 401.92h-8.96v-29.44c0-17.493-14.507-32-32-32s-32 14.507-32 32v29.44h-83.627c0 0 0 0-0.427 0-20.907 0-40.107 11.093-50.773 29.013-10.667 18.347-10.667 40.96 0 58.88 29.013 49.92 62.72 106.667 93.44 156.16 13.653 21.76 39.68 31.573 64 24.747 24.32-7.253 41.387-29.44 40.96-55.040v-150.187h9.387c17.493 0 32-14.507 32-32s-14.507-31.573-32-31.573zM652.373 465.924v125.44c-25.173-40.96-51.2-84.907-74.667-125.014h74.667v-0.427z" />
<glyph unicode="&#xe907;" glyph-name="aave-aave" d="M512 874.667c-235.52 0-426.667-191.147-426.667-426.667s191.147-426.667 426.667-426.667c235.52 0 426.667 191.147 426.667 426.667s-191.147 426.667-426.667 426.667zM695.467 247.893c-4.267-1.707-8.533-2.56-12.8-2.56-12.373 0-23.893 7.253-29.44 19.2l-141.227 317.867-45.653-102.4h45.653c17.493 0 32-14.507 32-32s-14.507-32-32-32h-73.813l-67.413-151.467c-7.253-16.213-26.453-23.467-42.24-16.213-16.213 7.253-23.467 26.027-16.213 42.24l55.893 125.867h-26.88c-17.493 0-32 14.507-32 32s14.507 32 32 32h55.039l86.188 194.133c10.24 23.040 48.213 23.040 58.453 0l170.667-384c7.253-16.213 0-35.413-16.213-42.667z" />
<glyph unicode="&#xe908;" glyph-name="activity" d="M690.773 874.667h-357.547c-155.307 0-247.893-92.587-247.893-247.893v-357.12c0-155.733 92.587-248.32 247.893-248.32h357.12c155.307 0 247.893 92.587 247.893 247.893v357.547c0.427 155.307-92.16 247.893-247.467 247.893zM736.427 535.040l-98.56-127.147c-12.373-15.787-29.867-26.027-49.92-28.16-20.053-2.56-39.68 2.987-55.467 15.36l-78.080 61.44c-2.987 2.56-6.4 2.56-8.107 2.133-1.707 0-4.693-0.853-7.253-4.267l-101.547-131.84c-6.4-8.107-15.787-12.373-25.173-12.373-6.827 0-13.653 2.133-19.627 6.827-14.080 10.667-16.64 30.72-5.973 44.8l101.547 131.84c12.373 15.787 29.867 26.027 49.92 28.587 19.627 2.56 39.68-2.987 55.467-15.36l78.080-61.44c2.987-2.56 5.973-2.56 8.107-2.133 1.707 0 4.693 0.853 7.253 4.267l98.56 127.147c10.667 14.080 31.147 16.64 44.8 5.547 14.080-11.52 16.64-31.573 5.973-45.227z" />
<glyph unicode="&#xe909;" glyph-name="add-circle" d="M512 874.667c-235.093 0-426.667-191.573-426.667-426.667s191.573-426.667 426.667-426.667c235.093 0 426.667 191.573 426.667 426.667s-191.573 426.667-426.667 426.667zM682.667 416h-138.667v-138.667c0-17.493-14.507-32-32-32s-32 14.507-32 32v138.667h-138.667c-17.493 0-32 14.507-32 32s14.507 32 32 32h138.667v138.667c0 17.493 14.507 32 32 32s32-14.507 32-32v-138.667h138.667c17.493 0 32-14.507 32-32s-14.507-32-32-32z" />
<glyph unicode="&#xe90a;" glyph-name="add-square" d="M690.773 874.667h-357.547c-155.307 0-247.893-92.587-247.893-247.893v-357.12c0-155.733 92.587-248.32 247.893-248.32h357.12c155.307 0 247.893 92.587 247.893 247.893v357.547c0.427 155.307-92.16 247.893-247.467 247.893zM682.667 416h-138.667v-138.667c0-17.493-14.507-32-32-32s-32 14.507-32 32v138.667h-138.667c-17.493 0-32 14.507-32 32s14.507 32 32 32h138.667v138.667c0 17.493 14.507 32 32 32s32-14.507 32-32v-138.667h138.667c17.493 0 32-14.507 32-32s-14.507-32-32-32z" />
<glyph unicode="&#xe90b;" glyph-name="add" d="M690.773 874.667h-357.547c-155.307 0-247.893-92.587-247.893-247.893v-357.12c0-155.733 92.587-248.32 247.893-248.32h357.12c155.307 0 247.893 92.587 247.893 247.893v357.547c0.427 155.307-92.16 247.893-247.467 247.893zM768 416h-224v-224c0-17.493-14.507-32-32-32s-32 14.507-32 32v224h-224c-17.493 0-32 14.507-32 32s14.507 32 32 32h224v224c0 17.493 14.507 32 32 32s32-14.507 32-32v-224h224c17.493 0 32-14.507 32-32s-14.507-32-32-32z" />
<glyph unicode="&#xe90c;" glyph-name="additem" d="M573.013 728.32v-57.173c-111.787-8.96-175.36-80.64-175.36-198.827v-194.987h-165.973c-97.707 0-146.347 48.64-146.347 146.347v304.64c0 97.707 48.64 146.347 146.347 146.347h194.987c97.707 0 146.347-48.64 146.347-146.347zM792.316 618.667h-194.987c-97.707 0-146.347-48.64-146.347-146.347v-304.64c0-97.707 48.64-146.347 146.347-146.347h194.987c97.707 0 146.347 48.64 146.347 146.347v304.64c0 97.707-48.64 146.347-146.347 146.347zM773.542 288h-37.547v-37.547c0-17.493-14.507-32-32-32s-32 14.507-32 32v37.547h-37.547c-17.493 0-32 14.507-32 32s14.507 32 32 32h37.547v37.547c0 17.493 14.507 32 32 32s32-14.507 32-32v-37.547h37.547c17.493 0 32-14.507 32-32s-14.507-32-32-32z" />
<glyph unicode="&#xe90d;" glyph-name="airdrop" d="M602.88 476.16c16.64 69.972-44.373 130.985-114.347 114.345-32.853-8.107-59.733-34.987-67.841-67.839-16.64-69.973 44.374-130.987 114.348-114.347 33.28 8.107 60.16 34.987 67.84 67.84zM256.852 193.28c-7.68 0-15.787 2.987-21.76 8.533-82.773 76.8-130.133 185.173-130.133 297.813 0 224.427 182.613 407.040 407.042 407.040 224.427 0 407.040-182.613 407.040-407.040 0-113.493-45.653-218.453-128.427-296.533-12.8-11.947-33.28-11.52-45.227 1.28s-11.52 33.28 1.28 45.227c69.973 65.707 108.373 154.027 108.373 249.6 0 189.013-154.027 343.040-343.040 343.040-189.015 0-343.042-154.027-343.042-343.040 0-96.427 38.827-185.173 109.653-250.88 12.8-11.947 13.653-32.427 1.707-45.227-6.4-6.4-14.933-9.813-23.467-9.813zM682.667 307.196c-7.68 0-15.787 2.987-21.76 8.533-12.8 11.947-13.653 32.427-1.28 45.227 35.413 37.547 55.040 87.040 55.040 138.24 0 111.788-90.88 202.242-202.24 202.242s-202.239-90.88-202.239-202.242c0-51.627 19.627-100.693 55.040-138.24 11.947-12.8 11.52-33.28-1.28-45.227-12.8-12.373-33.28-11.52-45.227 1.28-46.507 49.493-72.533 114.347-72.533 182.187 0 146.775 119.467 266.242 266.239 266.242s266.24-119.467 266.24-266.242c0-67.84-25.6-132.693-72.533-182.187-6.4-6.4-14.933-9.813-23.467-9.813zM439.462 249.173l-61.441-76.373c-48.64-61.013-5.12-151.467 72.534-151.467h122.453c78.080 0 121.6 90.453 72.533 151.040l-61.44 76.373c-36.693 46.933-107.52 46.933-144.64 0.427z" />
<glyph unicode="&#xe90e;" glyph-name="airplane-square" d="M690.773 874.667h-357.547c-155.307 0-247.893-92.587-247.893-247.893v-357.12c0-155.733 92.587-248.32 247.893-248.32h357.12c155.307 0 247.893 92.587 247.893 247.893v357.547c0.427 155.307-92.16 247.893-247.467 247.893zM789.76 397.227c0-25.6-19.627-38.4-43.093-28.16l-142.933 61.44c-16.64 6.827-29.867-1.707-29.867-19.627v-78.933c0-6.827 3.84-16.64 8.96-21.76l69.973-70.4c7.253-7.253 10.667-21.76 7.253-31.573l-13.653-40.96c-5.973-17.92-26.453-26.453-43.093-17.92l-71.253 60.587c-11.093 8.96-29.013 8.96-39.68 0l-71.68-60.587c-17.067-8.533-37.12 0-43.093 18.347l-13.653 40.96c-3.413 9.813 0 24.32 7.253 31.573l71.253 69.973c4.693 4.693 8.96 14.507 8.96 21.76v78.933c0 17.92-13.653 26.88-29.867 19.627l-142.933-61.44c-23.893-10.24-43.093 2.56-43.093 28.16v39.68c0 20.48 15.787 44.373 34.56 52.48l168.107 72.533c6.827 2.987 12.8 11.947 12.8 19.627v88.32c0 29.013 20.907 63.573 46.933 76.373 9.387 4.693 20.053 4.693 29.44 0 25.6-13.227 46.933-47.36 46.933-76.373v-88.32c0-7.68 5.547-16.64 12.8-19.627l168.107-72.533c19.2-8.107 34.56-32 34.56-52.48v-39.68z" />
<glyph unicode="&#xe90f;" glyph-name="airplane" d="M855.471 506.449l-199.253 85.762-44.373 18.773c-6.827 3.413-12.8 12.373-12.8 20.053v130.56c0 40.96-30.293 89.6-66.987 108.373-12.8 6.4-28.16 6.4-40.96 0-36.267-18.773-66.562-67.84-66.562-108.8v-130.56c0-7.68-5.973-16.64-12.8-20.053l-243.2-104.535c-26.88-11.093-48.64-44.8-48.64-73.813v-56.32c0-36.267 27.307-54.187 61.013-39.68l213.76 92.16c16.64 7.253 30.293-1.707 30.293-20.053v-124.16c0-9.813-5.547-23.893-12.373-30.72l-98.987-99.413c-10.24-10.24-14.933-30.293-10.24-44.8l19.2-58.027c7.68-25.173 36.267-37.12 59.733-25.173l101.548 85.333c15.36 13.227 40.533 13.227 55.893 0l101.547-85.333c23.467-11.52 52.053 0 60.587 25.173l19.2 58.027c4.693 14.080 0 34.56-10.24 44.8l-98.987 99.413c-7.253 6.827-12.8 20.907-12.8 30.72v124.16c0 18.347 13.227 26.88 30.293 20.053l213.76-92.16c33.707-14.507 61.013 3.413 61.013 39.68v56.32c0 29.013-21.76 62.72-48.64 74.24z" />
<glyph unicode="&#xe910;" glyph-name="airpod" d="M643.413 476.16h-262.827c-27.307 0-54.187 11.093-73.387 30.72-5.973 5.973-11.093 12.373-15.36 19.627-7.68 12.798-21.333 20.905-36.267 20.905h-106.24c-23.467 0-42.667-19.198-42.667-42.665v-291.413c0-106.24 85.76-192 192-192h426.667c106.24 0 192 85.76 192 192v291.413c0 23.467-19.2 42.665-42.667 42.665h-106.667c-15.36 0-29.013-8.533-36.693-21.758-17.92-29.44-50.773-49.493-87.893-49.493zM725.333 874.667h-426.667c-106.24 0-192-85.76-192-192v-28.587c0-23.467 19.2-42.667 42.667-42.667h106.667c15.36 0 29.013 8.533 36.693 21.76 17.92 29.44 50.773 49.493 87.893 49.493h255.573c26.027 0 63.573-13.653 81.493-32 5.547-5.547 9.813-11.52 14.080-17.92 7.68-12.8 21.333-21.333 36.693-21.333h106.667c23.467 0 42.667 19.2 42.667 42.667v28.587c-0.427 106.24-86.187 192-192.427 192z" />
<glyph unicode="&#xe911;" glyph-name="airpods" d="M327.253 874.667h-80.64c-44.373 0-84.48-17.92-113.92-47.36s-47.36-69.547-47.36-113.92c0-88.747 72.533-161.28 161.28-161.28h40.107v-322.133c0-31.147 17.92-58.027 43.947-71.253 10.667-5.973 23.467-9.387 36.693-9.387 9.387 0 18.773 1.707 27.307 5.12 31.147 11.093 53.333 40.533 53.333 75.52v523.947c0 66.133-54.613 120.747-120.747 120.747zM246.613 705.28c17.493 0 32-14.507 32-32s-14.507-32-32-32c-39.68 0-72.107 32.427-72.107 72.533s32.427 72.107 72.107 72.107c17.493 0 32-14.507 32-32s-14.507-32-32-32c-4.693 0-8.107-3.84-8.107-8.107s3.413-8.533 8.107-8.533zM891.307 827.307c-29.44 29.44-69.547 47.36-113.92 47.36h-80.64c-66.56 0-120.747-54.613-120.747-120.747v-523.947c0-34.987 22.187-64.427 53.333-75.52 8.533-3.413 17.92-5.12 27.307-5.12 13.227 0 26.027 3.413 36.693 9.387 26.027 13.227 43.947 40.107 43.947 71.253v322.133h40.107c88.747 0 161.28 72.533 161.28 161.28 0 44.373-17.92 84.48-47.36 113.92zM777.387 641.28c-17.493 0-32 14.507-32 32s14.507 32 32 32c4.693 0 8.107 3.84 8.107 8.533s-3.84 8.107-8.107 8.107c-17.493 0-32 14.507-32 32s14.507 32 32 32c39.68 0 72.107-32.427 72.107-72.107s-32-72.533-72.107-72.533zM394.667 154.453v-133.12c0-17.493-14.507-32-32-32s-32 14.507-32 32v137.387c10.667-5.973 23.467-9.387 36.693-9.387 9.387 0 18.773 1.707 27.307 5.12zM693.333 158.72v-137.387c0-17.493-14.507-32-32-32s-32 14.507-32 32v133.12c8.533-3.413 17.92-5.12 27.307-5.12 13.227 0 26.027 3.413 36.693 9.387z" />
<glyph unicode="&#xe912;" glyph-name="alarm" d="M938.667 53.333h-42.667v266.667c0 212.053-171.947 384-384 384s-384-171.947-384-384v-266.667h-42.667c-17.493 0-32-14.507-32-32s14.507-32 32-32h853.333c17.493 0 32 14.507 32 32s-14.507 32-32 32zM512 800c-17.493 0-32 14.507-32 32v42.667c0 17.493 14.507 32 32 32s32-14.507 32-32v-42.667c0-17.493-14.507-32-32-32zM213.333 714.669c-8.107 0-16.213 2.987-22.613 9.387l-42.667 42.667c-12.373 12.373-12.373 32.853 0 45.227s32.853 12.373 45.227 0l42.667-42.667c12.373-12.373 12.373-32.853 0-45.227-6.4-6.4-14.507-9.387-22.613-9.387zM810.667 714.669c-8.107 0-16.213 2.987-22.613 9.387-12.373 12.373-12.373 32.853 0 45.227l42.667 42.667c12.373 12.373 32.853 12.373 45.227 0s12.373-32.853 0-45.227l-42.667-42.667c-6.4-6.4-14.507-9.387-22.613-9.387z" />
<glyph unicode="&#xe913;" glyph-name="align-bottom" d="M681.813 133.12h44.373c67.84 0 95.147 25.6 95.147 90.453v506.88h-234.667v-506.88c0.427-64.853 27.733-90.453 95.147-90.453zM319.147 346.453h44.373c67.84 0 95.147 26.027 95.147 90.453v293.547h-234.667v-293.547c0.427-64.427 27.733-90.453 95.147-90.453zM906.667 698.88h-789.333c-17.493 0-32 14.080-32 31.573s14.507 32 32 32h789.333c17.493 0 32-14.507 32-32s-14.507-31.573-32-31.573z" />
<glyph unicode="&#xe914;" glyph-name="align-horizontally" d="M202.667 217.6v460.8c0 64 27.307 89.6 95.147 89.6h44.373c67.84 0 95.147-25.6 95.147-89.6v-460.8c0-64-27.307-89.6-95.147-89.6h-44.373c-67.84 0-95.147 25.6-95.147 89.6zM202.667 416h-85.333c-17.493 0-32 14.507-32 32s14.507 32 32 32h85.333v-64zM565.333 480h-128v-64h128v64zM906.667 416h-106.667v64h106.667c17.493 0 32-14.507 32-32s-14.507-32-32-32zM565.333 302.933v290.133c0 64 27.307 89.6 95.147 89.6h44.373c67.84 0 95.147-25.6 95.147-89.6v-290.133c0-64-27.307-89.6-95.147-89.6h-44.373c-67.84 0-95.147 25.6-95.147 89.6z" />
<glyph unicode="&#xe915;" glyph-name="align-left" d="M826.88 278.187v-44.373c0-67.84-25.6-95.147-90.453-95.147h-506.88v234.667h506.88c64.853 0 90.453-27.307 90.453-95.147zM613.547 640.853v-44.373c0-67.84-26.027-95.147-90.453-95.147h-293.547v234.667h293.547c64.427 0 90.453-27.307 90.453-95.147zM229.546 21.333c-17.493 0-32 14.507-32 32v789.333c-0.427 17.92 14.080 32 32 32s32-14.507 32-32v-789.333c-0.427-17.493-14.507-32-32-32z" />
<glyph unicode="&#xe916;" glyph-name="align-right" d="M197.12 278.187v-44.373c0-67.84 25.6-95.147 90.453-95.147h506.88v234.667h-506.88c-64.853 0-90.453-27.307-90.453-95.147zM410.453 640.853v-44.373c0-67.84 26.027-95.147 90.453-95.147h293.547v234.667h-293.547c-64.427 0-90.453-27.307-90.453-95.147zM794.453 21.333c-17.493 0-32 14.507-32 32v789.333c0 17.493 14.507 32 32 32s32-14.507 32-32v-789.333c0.427-17.493-14.080-32-32-32z" />
<glyph unicode="&#xe917;" glyph-name="align-vertically" d="M742.4 138.667h-460.8c-64 0-89.6 27.307-89.6 95.147v44.373c0 67.84 25.6 95.147 89.6 95.147h460.8c64 0 89.6-27.307 89.6-95.147v-44.373c0-67.84-25.6-95.147-89.6-95.147zM544 138.667v-85.333c0-17.493-14.507-32-32-32s-32 14.507-32 32v85.333h64zM544 501.333h-64v-128h64v128zM544 842.667v-106.667h-64v106.667c0 17.493 14.507 32 32 32s32-14.507 32-32zM657.067 501.333h-290.133c-64 0-89.6 27.307-89.6 95.147v44.373c0 67.84 25.6 95.147 89.6 95.147h290.133c64 0 89.6-27.307 89.6-95.147v-44.373c0-67.84-25.6-95.147-89.6-95.147z" />
<glyph unicode="&#xe918;" glyph-name="android" d="M469.333 192v-128c0-23.467-19.2-42.667-42.667-42.667s-42.667 19.2-42.667 42.667v128h85.333zM640 192v-128c0-23.467-19.2-42.667-42.667-42.667s-42.667 19.2-42.667 42.667v128h85.333zM725.333 490.667v-213.333c0-46.933-38.4-85.333-85.333-85.333h-256c-46.933 0-85.333 38.4-85.333 85.333v213.333c0 46.933 38.4 85.333 85.333 85.333h256c46.933 0 85.333-38.4 85.333-85.333zM213.333 490.667v-170.667c0-23.467-19.2-42.667-42.667-42.667s-42.667 19.2-42.667 42.667v170.667c0 23.467 19.2 42.667 42.667 42.667s42.667-19.2 42.667-42.667zM896 490.667v-170.667c0-23.467-19.2-42.667-42.667-42.667s-42.667 19.2-42.667 42.667v170.667c0 23.467 19.2 42.667 42.667 42.667s42.667-19.2 42.667-42.667zM409.599 635.733h204.801c37.547 0 68.267 30.72 68.267 68.267 0 94.293-76.373 170.667-170.667 170.667s-170.667-76.373-170.667-170.667c0-37.547 30.719-68.267 68.266-68.267z" />
<glyph unicode="&#xe919;" glyph-name="ankr-ankr" d="M891.302 510.72c-17.493 0-32 14.507-32 32v122.453l-347.307 173.654-347.308-173.654v-122.453c0-17.494-14.507-32-32-32s-32 14.507-32 32v142.080c0 11.947 6.829 23.040 17.922 28.587l379.306 189.44c8.96 4.693 19.627 4.693 28.587 0l379.307-189.44c10.667-5.547 17.92-16.64 17.92-28.587v-142.080c-0.427-17.494-14.933-32-32.427-32zM511.996-10.667c-5.12 0-9.813 1.28-14.080 3.413l-379.306 189.44c-10.667 5.547-17.922 16.64-17.922 28.587v142.080c0 17.493 14.507 32 32 32s32-14.507 32-32v-122.453l347.308-173.653 347.307 173.653v122.453c0 17.493 14.507 32 32 32s32-14.507 32-32v-142.080c0-11.947-6.831-23.040-17.924-28.587l-379.302-189.44c-4.267-2.133-8.96-3.413-14.080-3.413zM701.444 448c0 104.533-84.907 189.44-189.44 189.44-104.535 0-189.442-84.907-189.442-189.44 0-93.867 68.694-171.52 158.295-186.453 0-1.28-0.427-2.133-0.427-2.987v-237.227c0-17.493 14.507-32 32-32s32 14.507 32 32v237.227c0 1.28-0.427 2.133-0.427 2.987 89.173 14.933 157.44 92.587 157.44 186.453z" />
<glyph unicode="&#xe91a;" glyph-name="apple" d="M814.938 142.507c25.173 38.4 34.56 58.027 53.76 101.12-141.653 53.76-164.267 255.573-24.32 332.8-42.667 53.76-102.827 84.906-159.573 84.906-40.96 0-69.12-10.667-94.293-20.48-21.333-8.107-40.533-15.36-64.427-15.36-25.6 0-48.213 8.106-72.107 16.64-26.027 9.387-53.335 19.2-87.468 19.2-63.573 0-131.413-38.827-174.506-105.387-60.587-93.867-49.92-269.653 47.787-419.84 34.987-53.76 81.92-113.92 142.933-114.773 25.6-0.427 42.24 7.253 60.588 15.36 20.907 9.387 43.52 19.627 83.2 19.627 39.68 0.427 61.867-10.24 82.773-19.627 17.92-8.107 34.133-15.787 59.307-15.36 61.867 0.853 111.36 67.413 146.347 121.173zM675.836 874.667c6.827-46.933-12.373-93.44-37.547-125.867-26.88-34.987-73.813-62.293-119.040-60.586-8.107 45.227 12.8 91.734 38.4 122.88 28.587 34.133 76.8 60.586 118.187 63.573z" />
<glyph unicode="&#xe91b;" glyph-name="aquarius" d="M842.667 576c0 182.187-148.48 330.667-330.667 330.667s-330.667-148.48-330.667-330.667c0-17.493 14.507-32 32-32s32 14.507 32 32c0 147.2 119.467 266.667 266.667 266.667s266.667-119.467 266.667-266.667c0-147.2-119.467-266.667-266.667-266.667-17.493 0-32-14.507-32-32v-256c0-17.493 14.507-32 32-32s32 14.507 32 32v225.707c167.253 16.213 298.667 157.44 298.667 328.96zM640 117.333h-256c-17.493 0-32 14.507-32 32s14.507 32 32 32h256c17.493 0 32-14.507 32-32s-14.507-32-32-32z" />
<glyph unicode="&#xe91c;" glyph-name="archive-1" d="M717.658 874.667h-411.308c-90.88 0-164.693-74.24-164.693-164.693v-601.173c0-76.8 55.040-109.227 122.453-72.107l208.215 115.627c22.187 12.373 58.027 12.373 79.787 0l208.213-115.627c67.413-37.547 122.453-5.12 122.453 72.107v601.173c-0.427 90.453-74.24 164.693-165.12 164.693zM640.431 544c-41.387-14.933-84.907-22.613-128.427-22.613s-87.041 7.68-128.428 22.613c-16.64 5.973-25.173 24.32-19.2 40.96 6.4 16.64 24.747 25.173 41.387 19.2 68.695-24.747 144.215-24.747 212.908 0 16.64 5.973 34.987-2.56 40.96-19.2s-2.56-34.987-19.2-40.96z" />
<glyph unicode="&#xe91d;" glyph-name="archive-2" d="M938.667 746.667v-85.333c0-78.080-35.413-120.32-106.667-126.72-6.827-0.853-14.080-1.28-21.333-1.28h-597.333c-7.253 0-14.507 0.427-21.333 1.28-71.253 6.4-106.667 48.64-106.667 126.72v85.333c0 85.333 42.667 128 128 128h597.333c85.333 0 128-42.667 128-128zM234.667 480c-23.467 0-42.667-19.2-42.667-42.667v-288c0-85.333 21.333-128 128-128h384c106.667 0 128 42.667 128 128v288c0 23.467-19.2 42.667-42.667 42.667h-554.667zM589.653 288h-155.307c-17.493 0-32 14.507-32 32s14.507 32 32 32h155.307c17.493 0 32-14.507 32-32s-14.507-32-32-32z" />
<glyph unicode="&#xe91e;" glyph-name="archive-add" d="M717.658 874.667h-411.308c-90.88 0-164.693-74.24-164.693-164.693v-601.173c0-76.8 55.040-109.227 122.453-72.107l208.215 115.627c22.187 12.373 58.027 12.373 79.787 0l208.213-115.627c67.413-37.547 122.453-5.12 122.453 72.107v601.173c-0.427 90.453-74.24 164.693-165.12 164.693zM618.671 473.6h-74.667v-77.227c0-17.493-14.507-32-32-32s-32 14.507-32 32v77.227h-74.668c-17.493 0-32 14.507-32 32s14.507 32 32 32h74.668v72.107c0 17.493 14.507 32 32 32s32-14.507 32-32v-72.107h74.667c17.493 0 32-14.507 32-32s-14.507-32-32-32z" />
<glyph unicode="&#xe91f;" glyph-name="archive-book" d="M637.018 853.333v-251.733c0-18.773-22.187-28.16-35.84-15.787l-74.667 68.693c-8.107 7.68-20.907 7.68-29.013 0l-74.668-68.267c-13.653-12.8-35.84-2.987-35.84 15.36v251.733c0 11.947 9.387 21.333 21.333 21.333h207.361c11.947 0 21.333-9.387 21.333-21.333zM724.48 872.107c-12.373 1.707-23.467-8.96-23.467-21.333v-256.853c0-32.427-19.2-61.867-49.067-75.093-29.867-12.8-64.427-7.253-88.32 14.933l-37.12 34.133c-8.107 7.68-20.48 7.68-29.013 0l-37.12-34.133c-15.36-14.507-35.413-21.76-55.467-21.76-11.093 0-22.187 2.133-32.853 6.827-29.867 13.227-49.067 42.667-49.067 75.093v256.853c0 12.373-11.093 23.040-23.467 21.333-119.467-14.933-171.52-95.573-171.52-210.773v-426.667c0-128 64-213.333 213.333-213.333h341.333c149.333 0 213.333 85.333 213.333 213.333v426.667c0 115.2-52.053 195.84-171.52 210.773zM746.667 160h-362.667c-17.493 0-32 14.507-32 32s14.507 32 32 32h362.667c17.493 0 32-14.507 32-32s-14.507-32-32-32zM746.667 330.667h-181.333c-17.493 0-32 14.507-32 32s14.507 32 32 32h181.333c17.493 0 32-14.507 32-32s-14.507-32-32-32z" />
<glyph unicode="&#xe920;" glyph-name="archive-minus" d="M717.658 874.667h-411.308c-90.88 0-164.693-74.24-164.693-164.693v-601.173c0-76.8 55.040-109.227 122.453-72.107l208.215 115.627c22.187 12.373 58.027 12.373 79.787 0l208.213-115.627c67.413-37.547 122.453-5.12 122.453 72.107v601.173c-0.427 90.453-74.24 164.693-165.12 164.693zM618.671 473.6h-213.335c-17.493 0-32 14.507-32 32s14.507 32 32 32h213.335c17.493 0 32-14.507 32-32s-14.507-32-32-32z" />
<glyph unicode="&#xe921;" glyph-name="archive-slash" d="M858.458 794.453l-713.815-713.813c-2.133 8.533-2.987 17.92-2.987 28.16v601.173c0 90.453 73.813 164.693 164.693 164.693h411.308c59.733 0 112.213-32 140.8-80.213zM928.849 864.853c-12.8 12.8-33.707 12.8-46.507 0l-787.201-787.627c-12.8-12.8-12.8-33.707 0-46.507 6.4-5.973 14.507-9.387 23.040-9.387s16.64 3.413 23.040 9.813l787.628 787.627c13.227 12.8 13.227 33.28 0 46.080zM823.036 631.040l-315.307-315.307c-19.627-19.627-15.787-52.48 8.107-66.56l315.307-189.013c28.587-17.067 64.427 3.413 64.427 36.693v504.32c0.427 37.973-45.653 56.747-72.533 29.867z" />
<glyph unicode="&#xe922;" glyph-name="archive-tick" d="M717.658 878.508h-411.308c-90.453 0-164.693-74.24-164.693-164.693v-601.175c0-76.8 55.040-109.227 122.453-72.107l208.215 115.627c22.187 12.373 58.027 12.373 79.787 0l208.213-115.627c67.413-37.547 122.453-5.12 122.453 72.107v601.175c-0.427 90.453-74.24 164.693-165.12 164.693zM666.458 574.721l-170.667-170.668c-6.4-6.4-14.507-9.387-22.613-9.387s-16.213 2.987-22.613 9.387l-64.001 64c-12.373 12.373-12.373 32.853 0 45.227s32.853 12.373 45.228 0l41.387-41.387 148.053 148.055c12.373 12.373 32.853 12.373 45.227 0s12.373-32.853 0-45.227z" />
<glyph unicode="&#xe923;" glyph-name="archive" d="M682.667 544h-341.333c-29.44 0-53.333-23.893-53.333-53.333v-44.8c1.28 0.427 2.133 0.853 3.413 1.28 5.12 2.56 10.667 4.267 16.213 5.973 2.56 0.853 5.12 1.707 8.107 2.56 8.533 1.707 17.067 2.987 26.027 2.987h341.333c8.96 0 17.493-1.28 26.027-2.987 2.56-0.427 5.12-1.707 8.107-2.56 5.547-1.707 11.093-3.413 16.213-5.973 1.28-0.427 2.56-0.853 3.413-1.28v44.8c-0.853 29.44-24.747 53.333-54.187 53.333zM682.667 394.667h-341.333c-29.44 0-53.333-23.893-53.333-53.333v-21.333h117.333c17.493 0 32-14.507 32-32 0-40.96 33.707-74.667 74.667-74.667s74.667 33.707 74.667 74.667c0 17.493 14.507 32 32 32h117.333v21.333c0 29.44-23.893 53.333-53.333 53.333zM682.667 682.667h-341.333c-29.44 0-53.333-23.893-53.333-53.333v-34.56c16.213 8.107 34.133 13.227 53.333 13.227h341.333c19.2 0 37.12-5.12 53.333-13.227v34.56c0 29.44-23.893 53.333-53.333 53.333zM690.773 874.667h-357.547c-155.307 0-247.893-92.587-247.893-247.893v-357.12c0-155.733 92.587-248.32 247.893-248.32h357.12c155.307 0 247.893 92.587 247.893 247.893v357.547c0.427 155.307-92.16 247.893-247.467 247.893zM810.667 256h-163.84c-14.507-61.013-69.547-106.667-134.827-106.667s-120.32 45.653-134.827 106.667h-163.84c-17.493 0-32 14.507-32 32s14.507 32 32 32h10.667v309.333c0 64.853 52.48 117.333 117.333 117.333h341.333c64.853 0 117.333-52.48 117.333-117.333v-309.333h10.667c17.493 0 32-14.507 32-32s-14.507-32-32-32z" />
<glyph unicode="&#xe924;" glyph-name="arrange-circle-2" d="M512 874.667c-235.52 0-426.667-191.147-426.667-426.667s191.147-426.667 426.667-426.667c235.52 0 426.667 191.147 426.667 426.667s-191.147 426.667-426.667 426.667zM761.6 358.4c-1.707-3.84-3.84-7.253-6.827-10.24l-129.707-129.707c-6.4-6.4-14.507-9.387-22.613-9.387s-16.213 2.987-22.613 9.387c-12.373 12.373-12.373 32.853 0 45.227l75.093 75.093h-362.667c-17.493 0-32 14.507-32 32s14.507 32 32 32h439.893c4.267 0 8.107-0.853 12.373-2.56 7.68-3.413 14.080-9.387 17.493-17.493 2.56-7.68 2.56-16.64-0.427-24.32zM731.733 493.653h-439.467c-4.267 0-8.533 0.853-12.373 2.56-7.68 3.413-14.080 9.387-17.493 17.493-3.413 7.68-3.413 16.64 0 24.32 1.707 3.84 3.84 7.253 6.827 10.24l129.707 129.707c12.373 12.373 32.853 12.373 45.227 0s12.373-32.853 0-45.227l-74.667-75.093h362.667c17.493 0 32-14.507 32-32s-14.507-32-32.427-32z" />
<glyph unicode="&#xe925;" glyph-name="arrange-circle" d="M512 874.667c-235.52 0-426.667-191.147-426.667-426.667s191.147-426.667 426.667-426.667c235.52 0 426.667 191.147 426.667 426.667s-191.147 426.667-426.667 426.667zM466.347 228.267c0-4.267-0.853-8.107-2.56-12.373-3.413-7.68-9.387-14.080-17.493-17.493-3.84-1.707-8.107-2.56-12.373-2.56s-8.107 0.853-12.373 2.56c-3.84 1.707-7.253 3.84-10.24 6.827l-129.707 129.707c-12.373 12.373-12.373 32.853 0 45.227s32.853 12.373 45.227 0l75.093-75.093v362.667c0 17.493 14.507 32 32 32s32-14.507 32-32v-439.467h0.427zM741.973 515.413c-6.4-6.4-14.507-9.387-22.613-9.387s-16.213 2.987-22.613 9.387l-75.093 75.093v-362.667c0-17.493-14.507-32-32-32s-32 14.507-32 32v439.893c0 4.267 0.853 8.107 2.56 12.373 3.413 7.68 9.387 14.080 17.493 17.493 7.68 3.413 16.64 3.413 24.32 0 3.84-1.707 7.253-3.84 10.24-6.827l129.707-129.707c12.373-12.8 12.373-32.853 0-45.653z" />
<glyph unicode="&#xe926;" glyph-name="arrange-square-2" d="M690.773 874.667h-357.547c-155.307 0-247.893-92.587-247.893-247.893v-357.12c0-155.733 92.587-248.32 247.893-248.32h357.12c155.307 0 247.893 92.587 247.893 247.893v357.547c0.427 155.307-92.16 247.893-247.467 247.893zM466.347 228.267c0-4.267-0.853-8.107-2.56-12.373-3.413-7.68-9.387-14.080-17.493-17.493-3.84-1.707-8.107-2.56-12.373-2.56s-8.107 0.853-12.373 2.56c-3.84 1.707-7.253 3.84-10.24 6.827l-129.707 129.707c-12.373 12.373-12.373 32.853 0 45.227s32.853 12.373 45.227 0l75.093-75.093v362.667c0 17.493 14.507 32 32 32s32-14.507 32-32v-439.467h0.427zM741.973 515.413c-6.4-6.4-14.507-9.387-22.613-9.387s-16.213 2.987-22.613 9.387l-75.093 75.093v-362.667c0-17.493-14.507-32-32-32s-32 14.507-32 32v439.893c0 4.267 0.853 8.107 2.56 12.373 3.413 7.68 9.387 14.080 17.493 17.493 7.68 3.413 16.64 3.413 24.32 0 3.84-1.707 7.253-3.84 10.24-6.827l129.707-129.707c12.373-12.8 12.373-32.853 0-45.653z" />
<glyph unicode="&#xe927;" glyph-name="arrange-square" d="M690.773 874.667h-357.547c-155.307 0-247.893-92.587-247.893-247.893v-357.12c0-155.733 92.587-248.32 247.893-248.32h357.12c155.307 0 247.893 92.587 247.893 247.893v357.547c0.427 155.307-92.16 247.893-247.467 247.893zM761.6 358.4c-1.707-3.84-3.84-7.253-6.827-10.24l-129.707-129.707c-6.4-6.4-14.507-9.387-22.613-9.387s-16.213 2.987-22.613 9.387c-12.373 12.373-12.373 32.853 0 45.227l75.093 75.093h-362.667c-17.493 0-32 14.507-32 32s14.507 32 32 32h439.893c4.267 0 8.107-0.853 12.373-2.56 7.68-3.413 14.080-9.387 17.493-17.493 2.56-7.68 2.56-16.64-0.427-24.32zM731.733 493.653h-439.467c-4.267 0-8.107 0.853-12.373 2.56-7.68 3.413-14.080 9.387-17.493 17.493-3.413 7.68-3.413 16.64 0 24.32 1.707 3.84 3.84 7.253 6.827 10.24l129.707 129.707c12.373 12.373 32.853 12.373 45.227 0s12.373-32.853 0-45.227l-74.667-75.093h362.667c17.493 0 32-14.507 32-32s-14.507-32-32.427-32z" />
<glyph unicode="&#xe928;" glyph-name="arrow-2" d="M928 672.853c0 8.533-3.413 16.64-9.387 22.613l-158.72 158.72c-12.373 12.373-32.853 12.373-45.227 0s-12.373-32.853 0-45.227l104.533-104.533h-691.2c-17.493 0-32-14.507-32-32s14.507-31.573 32-31.573h690.773l-104.107-104.107c-12.373-12.373-12.373-32.853 0-45.226 6.4-6.4 14.507-9.387 22.613-9.387s16.213 2.987 22.613 9.387l158.293 158.293c2.987 2.987 5.547 6.827 7.253 11.093 0 0.427 0 0.853 0.427 1.28 1.28 3.413 2.133 6.827 2.133 10.667zM896 255.147h-690.773l104.107 104.107c12.373 12.373 12.373 32.853 0 45.227s-32.853 12.373-45.227 0l-158.293-158.293c-2.987-2.987-5.547-6.827-7.253-11.093 0-0.427 0-0.853-0.427-1.28-1.28-3.413-2.133-7.253-2.133-11.093 0-8.533 3.413-16.64 9.387-22.613l158.72-158.72c6.4-6.4 14.507-9.387 22.613-9.387s16.213 2.987 22.613 9.387c12.373 12.373 12.373 32.853 0 45.227l-104.533 104.533h691.2c17.493 0 32 14.507 32 32s-14.507 32-32 32z" />
<glyph unicode="&#xe929;" glyph-name="arrow-3" d="M468.476 695.893l-158.292 158.293c-2.987 2.987-6.827 5.547-11.093 7.253-0.427 0-0.853 0-1.28 0.427-3.413 1.28-6.827 2.133-10.667 2.133-8.533 0-16.64-3.413-22.613-9.387l-159.147-158.72c-12.373-12.373-12.373-32.853 0-45.227s32.853-12.373 45.227 0l104.533 104.533v-691.2c0-17.493 14.507-32 32-32s32 14.507 32 32v690.773l104.107-104.107c6.398-6.4 14.505-9.387 22.612-9.387s16.213 2.987 22.613 9.387c12.373 12.373 12.373 32.427 0 45.227zM918.613 245.333c-12.373 12.373-32.853 12.373-45.227 0l-104.533-104.533v691.2c0 17.493-14.507 32-32 32s-32-14.507-32-32v-690.773l-104.107 104.107c-12.373 12.373-32.853 12.373-45.227 0s-12.373-32.853 0-45.227l158.293-158.293c2.987-2.987 6.827-5.547 11.093-7.253 0.427 0 0.853 0 1.28-0.427 3.413-1.28 7.253-2.133 11.093-2.133 8.533 0 16.64 3.413 22.613 9.387l158.72 158.72c12.373 12.8 12.373 32.853 0 45.227z" />
<glyph unicode="&#xe92a;" glyph-name="arrow-bottom" d="M398.080 704h227.84c141.653 0 199.253-100.267 128.853-222.72l-31.573-54.613c-7.68-13.227-21.76-21.333-37.12-21.333h-348.16c-15.36 0-29.44 8.107-37.12 21.333l-31.573 54.613c-70.4 122.453-12.8 222.72 128.853 222.72zM375.040 362.667h274.347c16.64 0 26.88-17.92 18.347-32l-27.307-46.933c-70.4-122.453-186.453-122.453-256.853 0l-27.307 46.933c-8.107 14.080 2.133 32 18.773 32z" />
<glyph unicode="&#xe92b;" glyph-name="arrow-circle-down" d="M512 874.667c-235.093 0-426.667-191.573-426.667-426.667s191.573-426.667 426.667-426.667c235.093 0 426.667 191.573 426.667 426.667s-191.573 426.667-426.667 426.667zM685.227 479.147l-150.613-150.613c-6.4-6.4-14.507-9.387-22.613-9.387s-16.213 2.987-22.613 9.387l-150.613 150.613c-12.373 12.373-12.373 32.853 0 45.227s32.853 12.373 45.227 0l128-128 128 128c12.373 12.373 32.853 12.373 45.227 0s12.373-32.427 0-45.227z" />
<glyph unicode="&#xe92c;" glyph-name="arrow-circle-left" d="M512 874.667c-235.093 0-426.667-191.573-426.667-426.667s191.573-426.667 426.667-426.667c235.093 0 426.667 191.573 426.667 426.667s-191.573 426.667-426.667 426.667zM588.373 320c12.373-12.373 12.373-32.853 0-45.227-6.4-6.4-14.507-9.387-22.613-9.387s-16.213 2.987-22.613 9.387l-150.613 150.613c-12.373 12.373-12.373 32.853 0 45.227l150.613 150.613c12.373 12.373 32.853 12.373 45.227 0s12.373-32.853 0-45.227l-128-128 128-128z" />
<glyph unicode="&#xe92d;" glyph-name="arrow-circle-right" d="M512 874.667c-235.093 0-426.667-191.573-426.667-426.667s191.573-426.667 426.667-426.667c235.093 0 426.667 191.573 426.667 426.667s-191.573 426.667-426.667 426.667zM631.040 425.387l-150.613-150.613c-6.4-6.4-14.507-9.387-22.613-9.387s-16.213 2.987-22.613 9.387c-12.373 12.373-12.373 32.853 0 45.227l128 128-128 128c-12.373 12.373-12.373 32.853 0 45.227s32.853 12.373 45.227 0l150.613-150.613c12.8-12.373 12.8-32.853 0-45.227z" />
<glyph unicode="&#xe92e;" glyph-name="arrow-circle-up" d="M512 874.667c-235.093 0-426.667-191.573-426.667-426.667s191.573-426.667 426.667-426.667c235.093 0 426.667 191.573 426.667 426.667s-191.573 426.667-426.667 426.667zM685.227 371.627c-6.4-6.4-14.507-9.387-22.613-9.387s-16.213 2.987-22.613 9.387l-128 128-128-128c-12.373-12.373-32.853-12.373-45.227 0s-12.373 32.853 0 45.227l150.613 150.613c12.373 12.373 32.853 12.373 45.227 0l150.613-150.613c12.373-12.8 12.373-32.853 0-45.227z" />
<glyph unicode="&#xe92f;" glyph-name="arrow-down-1" d="M690.773 874.667h-357.547c-155.307 0-247.893-92.587-247.893-247.893v-357.12c0-155.733 92.587-248.32 247.893-248.32h357.12c155.307 0 247.893 92.587 247.893 247.893v357.547c0.427 155.307-92.16 247.893-247.467 247.893zM717.653 352.427l-183.040-183.040c-5.973-5.973-14.080-9.387-22.613-9.387s-16.64 3.413-22.613 9.387l-183.040 183.040c-12.373 12.373-12.373 32.853 0 45.227s32.853 12.373 45.227 0l128.427-128.427v434.773c0 17.493 14.507 32 32 32s32-14.507 32-32v-434.773l128.427 128.427c12.373 12.373 32.853 12.373 45.227 0 6.4-6.4 9.387-14.507 9.387-22.613s-3.413-16.64-9.387-22.613z" />
<glyph unicode="&#xe930;" glyph-name="arrow-down-2" d="M512 874.667c-235.52 0-426.667-191.147-426.667-426.667s191.147-426.667 426.667-426.667c235.52 0 426.667 191.147 426.667 426.667s-191.147 426.667-426.667 426.667zM662.613 404.053l-128-128c-6.4-6.4-14.507-9.387-22.613-9.387s-16.213 2.987-22.613 9.387l-128 128c-12.373 12.373-12.373 32.853 0 45.227s32.853 12.373 45.227 0l73.387-73.387v221.44c0 17.493 14.507 32 32 32s32-14.507 32-32v-221.44l73.387 73.387c12.373 12.373 32.853 12.373 45.227 0s12.373-32.853 0-45.227z" />
<glyph unicode="&#xe931;" glyph-name="arrow-down" d="M764.587 610.987h-505.174c-40.96 0-61.44-49.493-32.427-78.507l221.014-221.013c35.413-35.413 93.013-35.413 128.427 0l221.013 221.013c28.587 29.014 8.107 78.507-32.853 78.507z" />
<glyph unicode="&#xe932;" glyph-name="arrow-left-1" d="M690.773 874.667h-357.547c-155.307 0-247.893-92.587-247.893-247.893v-357.12c0-155.733 92.587-248.32 247.893-248.32h357.12c155.307 0 247.893 92.587 247.893 247.893v357.547c0.427 155.307-92.16 247.893-247.467 247.893zM768 416h-434.773l128.427-128.427c12.373-12.373 12.373-32.853 0-45.227-6.4-6.4-14.507-9.387-22.613-9.387s-16.213 2.987-22.613 9.387l-183.040 183.040c-5.973 5.973-9.387 14.080-9.387 22.613s3.413 16.64 9.387 22.613l183.040 183.040c12.373 12.373 32.853 12.373 45.227 0s12.373-32.853 0-45.227l-128.427-128.427h434.773c17.493 0 32-14.507 32-32s-14.507-32-32-32z" />
<glyph unicode="&#xe933;" glyph-name="arrow-left-2" d="M512 874.667c-235.52 0-426.667-191.147-426.667-426.667s191.147-426.667 426.667-426.667c235.52 0 426.667 191.147 426.667 426.667s-191.147 426.667-426.667 426.667zM661.333 416h-221.44l73.387-73.387c12.373-12.373 12.373-32.853 0-45.227-6.4-6.4-14.507-9.387-22.613-9.387s-16.213 2.987-22.613 9.387l-128 128c-12.373 12.373-12.373 32.853 0 45.227l128 128c12.373 12.373 32.853 12.373 45.227 0s12.373-32.853 0-45.227l-73.387-73.387h221.44c17.493 0 32-14.507 32-32s-14.507-32-32-32z" />
<glyph unicode="&#xe934;" glyph-name="arrow-left-3" d="M596.48 733.014l-136.96-136.96-84.054-83.627c-35.413-35.413-35.413-93.013 0-128.427l221.014-221.013c29.013-29.013 78.507-8.107 78.507 32.427v505.174c0 40.96-49.493 61.44-78.507 32.427z" />
<glyph unicode="&#xe935;" glyph-name="arrow-left" d="M768 561.92v-227.84c0-141.653-100.267-199.253-222.72-128.853l-54.613 31.573c-13.227 7.68-21.333 21.76-21.333 37.12v348.16c0 15.36 8.107 29.44 21.333 37.12l54.613 31.573c122.453 70.4 222.72 12.8 222.72-128.853zM426.667 584.96v-274.347c0-16.64-17.92-26.88-32-18.347l-46.933 27.307c-122.453 70.4-122.453 186.453 0 256.853l46.933 27.307c14.080 8.107 32-2.133 32-18.773z" />
<glyph unicode="&#xe936;" glyph-name="arrow-right-1" d="M256 561.92v-227.84c0-141.653 100.267-199.253 222.72-128.853l54.613 31.573c13.227 7.68 21.333 21.76 21.333 37.12v348.16c0 15.36-8.107 29.44-21.333 37.12l-54.613 31.573c-122.453 70.4-222.72 12.8-222.72-128.853zM597.333 584.96v-274.347c0-16.64 17.92-26.88 32-18.347l46.933 27.307c122.453 70.4 122.453 186.453 0 256.853l-46.933 27.307c-14.080 8.107-32-2.133-32-18.773z" />
<glyph unicode="&#xe937;" glyph-name="arrow-right-2" d="M648.538 512.427l-221.013 221.014c-29.015 28.587-78.509 8.107-78.509-32.853v-505.174c0-40.96 49.493-61.44 78.509-32.427l221.013 221.013c35.413 34.987 35.413 93.013 0 128.427z" />
<glyph unicode="&#xe938;" glyph-name="arrow-right-3" d="M690.773 874.667h-357.547c-155.307 0-247.893-92.587-247.893-247.893v-357.12c0-155.733 92.587-248.32 247.893-248.32h357.12c155.307 0 247.893 92.587 247.893 247.893v357.547c0.427 155.307-92.16 247.893-247.467 247.893zM790.613 425.387l-183.040-183.040c-6.4-6.4-14.507-9.387-22.613-9.387s-16.213 2.987-22.613 9.387c-12.373 12.373-12.373 32.853 0 45.227l128.427 128.427h-434.773c-17.493 0-32 14.507-32 32s14.507 32 32 32h434.773l-128.427 128.427c-12.373 12.373-12.373 32.853 0 45.227s32.853 12.373 45.227 0l183.040-183.040c5.973-5.973 9.387-14.080 9.387-22.613s-3.413-16.64-9.387-22.613z" />
<glyph unicode="&#xe939;" glyph-name="arrow-right" d="M512 874.667c-235.52 0-426.667-191.147-426.667-426.667s191.147-426.667 426.667-426.667c235.52 0 426.667 191.147 426.667 426.667s-191.147 426.667-426.667 426.667zM683.947 425.387l-128-128c-6.4-6.4-14.507-9.387-22.613-9.387s-16.213 2.987-22.613 9.387c-12.373 12.373-12.373 32.853 0 45.227l73.387 73.387h-221.44c-17.493 0-32 14.507-32 32s14.507 32 32 32h221.44l-73.387 73.387c-12.373 12.373-12.373 32.853 0 45.227s32.853 12.373 45.227 0l128-128c12.373-12.373 12.373-32.853 0-45.227z" />
<glyph unicode="&#xe93a;" glyph-name="arrow-square-down" d="M690.773 874.667h-357.547c-155.307 0-247.893-92.587-247.893-247.893v-357.12c0-155.733 92.587-248.32 247.893-248.32h357.12c155.307 0 247.893 92.587 247.893 247.893v357.547c0.427 155.307-92.16 247.893-247.467 247.893zM685.227 483.413l-150.613-150.613c-6.4-6.4-14.507-9.387-22.613-9.387s-16.213 2.987-22.613 9.387l-150.613 150.613c-12.373 12.373-12.373 32.853 0 45.227s32.853 12.373 45.227 0l128-128 128 128c12.373 12.373 32.853 12.373 45.227 0s12.373-32.427 0-45.227z" />
<glyph unicode="&#xe93b;" glyph-name="arrow-square-left" d="M690.773 874.667h-357.547c-155.307 0-247.893-92.587-247.893-247.893v-357.12c0-155.733 92.587-248.32 247.893-248.32h357.12c155.307 0 247.893 92.587 247.893 247.893v357.547c0.427 155.307-92.16 247.893-247.467 247.893zM588.373 320c12.373-12.373 12.373-32.853 0-45.227-6.4-6.4-14.507-9.387-22.613-9.387s-16.213 2.987-22.613 9.387l-150.613 150.613c-12.373 12.373-12.373 32.853 0 45.227l150.613 150.613c12.373 12.373 32.853 12.373 45.227 0s12.373-32.853 0-45.227l-128-128 128-128z" />
<glyph unicode="&#xe93c;" glyph-name="arrow-square-right" d="M690.773 874.667h-357.547c-155.307 0-247.893-92.587-247.893-247.893v-357.12c0-155.733 92.587-248.32 247.893-248.32h357.12c155.307 0 247.893 92.587 247.893 247.893v357.547c0.427 155.307-92.16 247.893-247.467 247.893zM631.040 425.387l-150.613-150.613c-6.4-6.4-14.507-9.387-22.613-9.387s-16.213 2.987-22.613 9.387c-12.373 12.373-12.373 32.853 0 45.227l128 128-128 128c-12.373 12.373-12.373 32.853 0 45.227s32.853 12.373 45.227 0l150.613-150.613c12.8-12.373 12.8-32.853 0-45.227z" />
<glyph unicode="&#xe93d;" glyph-name="arrow-square-up" d="M690.773 874.667h-357.547c-155.307 0-247.893-92.587-247.893-247.893v-357.12c0-155.733 92.587-248.32 247.893-248.32h357.12c155.307 0 247.893 92.587 247.893 247.893v357.547c0.427 155.307-92.16 247.893-247.467 247.893zM685.227 362.667c-6.4-6.4-14.507-9.387-22.613-9.387s-16.213 3.413-22.613 9.387l-128 128-128-128c-12.373-12.373-32.853-12.373-45.227 0s-12.373 32.853 0 45.227l150.613 150.613c12.373 12.373 32.853 12.373 45.227 0l150.613-150.613c12.373-12.373 12.373-32.427 0-45.227z" />
<glyph unicode="&#xe93e;" glyph-name="arrow-square" d="M690.773 874.667h-357.547c-155.307 0-247.893-92.587-247.893-247.893v-357.12c0-155.733 92.587-248.32 247.893-248.32h357.12c155.307 0 247.893 92.587 247.893 247.893v357.547c0.427 155.307-92.16 247.893-247.467 247.893zM825.6 582.827c-1.707-3.84-3.84-7.253-6.827-10.24l-76.8-76.8c-6.4-6.4-14.507-9.387-22.613-9.387s-16.213 2.987-22.613 9.387c-12.373 12.373-12.373 32.853 0 45.227l22.187 22.187h-6.4c-89.6 0-162.987-72.96-162.987-162.56v-176.213c0-17.493-14.507-32-32-32s-32 14.507-32 32v176.213c0 89.6-72.96 162.56-162.56 162.56h-17.92l22.187-22.187c12.373-12.373 12.373-32.853 0-45.227-6.4-6.4-14.507-9.387-22.613-9.387s-16.213 2.987-22.613 9.387l-76.8 76.8c-12.373 12.373-12.373 32.853 0 45.227l76.8 76.8c12.373 12.373 32.853 12.373 45.227 0s12.373-32.853 0-45.227l-22.187-22.187h18.347c83.2 0 155.307-45.653 194.56-112.64 39.253 66.987 111.36 112.64 194.987 112.64h6.4l-22.187 22.187c-12.373 12.373-12.373 32.853 0 45.227s32.853 12.373 45.227 0l76.8-76.8c2.987-2.987 5.12-6.4 6.827-10.24 2.987-8.107 2.987-17.067-0.427-24.747z" />
<glyph unicode="&#xe93f;" glyph-name="arrow-swap-horizontal" d="M690.773 874.667h-357.547c-155.307 0-247.893-92.587-247.893-247.893v-357.12c0-155.733 92.587-248.32 247.893-248.32h357.12c155.307 0 247.893 92.587 247.893 247.893v357.547c0.427 155.307-92.16 247.893-247.467 247.893zM754.773 360.533c-1.707-3.84-3.84-7.253-6.827-10.24l-125.867-125.867c-6.4-6.4-14.507-9.387-22.613-9.387s-16.213 2.987-22.613 9.387c-12.373 12.373-12.373 32.853 0 45.227l71.253 71.253h-349.44c-17.493 0-32 14.507-32 32s14.507 32 32 32h426.667c4.267 0 8.107-0.853 12.373-2.56 7.68-3.413 14.080-9.387 17.493-17.493 2.987-7.68 2.987-16.213-0.427-24.32zM725.333 491.093h-426.667c-4.267 0-8.107 0.853-12.373 2.56-7.68 3.413-14.080 9.387-17.493 17.493-3.413 7.68-3.413 16.64 0 24.32 2.133 3.84 4.267 7.253 7.253 10.24l125.867 125.867c12.373 12.373 32.853 12.373 45.227 0s12.373-32.853 0-45.227l-71.253-71.253h349.44c17.493 0 32-14.507 32-32s-14.507-32-32-32z" />
<glyph unicode="&#xe940;" glyph-name="arrow-swap" d="M690.773 874.667h-357.547c-155.307 0-247.893-92.587-247.893-247.893v-357.12c0-155.733 92.587-248.32 247.893-248.32h357.12c155.307 0 247.893 92.587 247.893 247.893v357.547c0.427 155.307-92.16 247.893-247.467 247.893zM468.907 234.667c0-4.267-0.853-8.107-2.56-12.373-3.413-7.68-9.387-14.080-17.493-17.493-3.84-1.707-8.107-2.56-12.373-2.56s-8.107 0.853-12.373 2.56c-3.84 1.707-7.253 3.84-10.24 6.827l-125.867 125.867c-12.373 12.373-12.373 32.853 0 45.227s32.853 12.373 45.227 0l71.253-71.253v349.867c0 17.493 14.507 32 32 32s32.427-14.507 32.427-32v-426.667zM735.573 512.853c-6.4-6.4-14.507-9.387-22.613-9.387s-16.213 2.987-22.613 9.387l-71.253 71.253v-349.44c0-17.493-14.507-32-32-32s-32 14.507-32 32v426.667c0 4.267 0.853 8.107 2.56 12.373 3.413 7.68 9.387 14.080 17.493 17.493 7.68 3.413 16.64 3.413 24.32 0 3.84-1.707 7.253-3.84 10.24-6.827l125.867-125.867c12.373-12.8 12.373-33.28 0-45.653z" />
<glyph unicode="&#xe941;" glyph-name="arrow-up-1" d="M797.009 363.52l-136.96 136.96-83.627 84.054c-35.413 35.413-93.013 35.413-128.427 0l-221.011-221.014c-29.013-29.013-8.107-78.507 32.427-78.507h505.171c40.96 0 61.444 49.493 32.427 78.507z" />
<glyph unicode="&#xe942;" glyph-name="arrow-up-2" d="M398.080 192h227.84c141.653 0 199.253 100.267 128.853 222.72l-31.573 54.613c-7.68 13.227-21.76 21.333-37.12 21.333h-348.16c-15.36 0-29.44-8.107-37.12-21.333l-31.573-54.613c-70.4-122.453-12.8-222.72 128.853-222.72zM375.040 533.333h274.347c16.64 0 26.88 17.92 18.347 32l-27.307 46.933c-70.4 122.453-186.453 122.453-256.853 0l-27.307-46.933c-8.107-14.080 2.133-32 18.773-32z" />
<glyph unicode="&#xe943;" glyph-name="arrow-up-3" d="M690.773 874.667h-357.547c-155.307 0-247.893-92.587-247.893-247.893v-357.12c0-155.733 92.587-248.32 247.893-248.32h357.12c155.307 0 247.893 92.587 247.893 247.893v357.547c0.427 155.307-92.16 247.893-247.467 247.893zM717.653 498.347c-12.373-12.373-32.853-12.373-45.227 0l-128.427 128.427v-434.773c0-17.493-14.507-32-32-32s-32 14.507-32 32v434.773l-128.427-128.427c-12.373-12.373-32.853-12.373-45.227 0-6.4 6.4-9.387 14.507-9.387 22.613s3.413 16.64 9.387 22.613l183.040 183.040c5.973 5.973 14.080 9.387 22.613 9.387s16.64-3.413 22.613-9.387l183.040-183.040c12.373-12.373 12.373-32.427 0-45.227z" />
<glyph unicode="&#xe944;" glyph-name="arrow-up" d="M512 874.667c-235.52 0-426.667-191.147-426.667-426.667s191.147-426.667 426.667-426.667c235.52 0 426.667 191.147 426.667 426.667s-191.147 426.667-426.667 426.667zM662.613 446.72c-6.4-6.4-14.507-9.387-22.613-9.387s-16.213 2.987-22.613 9.387l-73.387 73.387v-221.44c0-17.493-14.507-32-32-32s-32 14.507-32 32v221.44l-73.387-73.387c-12.373-12.373-32.853-12.373-45.227 0s-12.373 32.853 0 45.227l128 128c12.373 12.373 32.853 12.373 45.227 0l128-128c12.373-12.373 12.373-32.853 0-45.227z" />
<glyph unicode="&#xe945;" glyph-name="arrow" d="M512-10.667c-17.493 0-32 14.507-32 32v85.333c0 17.493 14.507 32 32 32s32-14.507 32-32v-85.333c0-17.493-14.507-32-32-32zM512 160c-17.493 0-32 14.507-32 32v85.333c0 17.493 14.507 32 32 32s32-14.507 32-32v-85.333c0-17.493-14.507-32-32-32zM512 330.667c-17.493 0-32 14.507-32 32v128c0 182.187 148.48 330.667 330.667 330.667h128c17.493 0 32-14.507 32-32s-14.507-32-32-32h-128c-147.2 0-266.667-119.467-266.667-266.667v-128c0-17.493-14.507-32-32-32zM512 330.667c-17.493 0-32 14.507-32 32v128c0 147.2-119.467 266.667-266.667 266.667h-128c-17.493 0-32 14.507-32 32s14.507 32 32 32h128c182.187 0 330.667-148.48 330.667-330.667v-128c0-17.493-14.507-32-32-32zM170.667 672c-8.107 0-16.213 2.987-22.613 9.387l-85.333 85.333c-12.373 12.373-12.373 32.853 0 45.227l85.333 85.333c12.373 12.373 32.853 12.373 45.227 0s12.373-32.853 0-45.227l-62.72-62.72 62.72-62.72c12.373-12.373 12.373-32.853 0-45.227-6.4-6.4-14.507-9.387-22.613-9.387zM853.333 672c-8.107 0-16.213 2.987-22.613 9.387-12.373 12.373-12.373 32.853 0 45.227l62.72 62.72-62.72 62.72c-12.373 12.373-12.373 32.853 0 45.227s32.853 12.373 45.227 0l85.333-85.333c12.373-12.373 12.373-32.853 0-45.227l-85.333-85.333c-6.4-6.4-14.507-9.387-22.613-9.387z" />
<glyph unicode="&#xe946;" glyph-name="attach-circle" d="M512 874.667c-235.52 0-426.667-191.147-426.667-426.667s191.147-426.667 426.667-426.667c235.52 0 426.667 191.147 426.667 426.667s-191.147 426.667-426.667 426.667zM698.453 347.733l-94.72-94.72c-23.040-23.040-52.907-34.133-82.773-34.133s-60.16 11.52-82.773 34.133c-22.187 22.187-34.56 51.627-34.56 82.773s12.373 61.013 34.56 82.773l60.16 60.16c12.373 12.373 32.853 12.373 45.227 0s12.373-32.853 0-45.227l-60.16-60.16c-10.24-10.24-15.787-23.467-15.787-37.547s5.547-27.733 15.787-37.547c20.907-20.907 54.613-20.907 75.52 0l94.72 94.72c54.187 54.187 54.187 142.080 0 196.267s-142.080 54.187-196.267 0l-103.253-103.253c-21.76-21.76-33.707-50.347-33.707-80.64s11.947-59.307 33.707-80.64c12.373-12.373 12.373-32.853 0-45.227s-32.853-12.373-45.227 0c-34.133 32.853-52.907 77.653-52.907 125.44s18.347 92.587 52.053 126.293l103.253 103.253c78.933 78.933 207.787 78.933 286.72 0 79.36-78.933 79.36-207.787 0.427-286.72z" />
<glyph unicode="&#xe947;" glyph-name="attach-square" d="M690.773 874.667h-357.547c-155.307 0-247.893-92.587-247.893-247.893v-357.12c0-155.733 92.587-248.32 247.893-248.32h357.12c155.307 0 247.893 92.587 247.893 247.893v357.547c0.427 155.307-92.16 247.893-247.467 247.893zM698.453 347.733l-94.72-94.72c-23.040-23.040-52.907-34.133-82.773-34.133s-60.16 11.52-82.773 34.133c-22.187 22.187-34.56 51.627-34.56 82.773s12.373 61.013 34.56 82.773l60.16 60.16c12.373 12.373 32.853 12.373 45.227 0s12.373-32.853 0-45.227l-60.16-60.16c-10.24-10.24-15.787-23.467-15.787-37.547s5.547-27.733 15.787-37.547c20.907-20.907 54.613-20.907 75.52 0l94.72 94.72c54.187 54.187 54.187 142.080 0 196.267s-142.080 54.187-196.267 0l-103.253-103.253c-21.76-21.76-33.707-50.347-33.707-80.64s11.947-59.307 33.707-80.64c12.373-12.373 12.373-32.853 0-45.227s-32.853-12.373-45.227 0c-34.133 32.853-52.907 77.653-52.907 125.44s18.347 92.587 52.053 126.293l103.253 103.253c78.933 78.933 207.787 78.933 286.72 0 79.36-78.933 79.36-207.787 0.427-286.72z" />
<glyph unicode="&#xe948;" glyph-name="audio-square" d="M412.588 366.080c-31.573 0-56.747-25.6-56.747-57.173s25.6-56.747 56.747-56.747c31.572 0 57.172 25.6 57.172 56.747 0 31.573-25.6 57.173-57.172 57.173zM690.773 874.667h-357.547c-155.307 0-247.893-92.587-247.893-247.893v-357.12c0-155.733 92.587-248.32 247.893-248.32h357.12c155.307 0 247.893 92.587 247.893 247.893v357.547c0.427 155.307-92.16 247.893-247.467 247.893zM730.453 541.867c0-26.027-11.093-49.067-29.867-62.72-11.947-8.533-26.453-13.227-41.813-13.227-8.96 0-17.92 1.707-27.307 4.693l-97.707 32.427c-0.427 0-1.28 0.427-1.707 0.853v-194.56c0-65.707-53.76-119.467-119.467-119.467s-119.467 53.76-119.467 119.467c0 65.707 53.76 119.467 119.467 119.467 20.907 0 40.107-5.973 57.173-14.933v203.947c0 26.027 11.093 49.067 29.867 62.72 19.2 13.653 44.373 17.067 69.12 8.533l97.707-32.427c36.693-12.373 64.427-50.773 64.427-89.173v-25.6h-0.427z" />
<glyph unicode="&#xe949;" glyph-name="augur-rep" d="M512 874.667c-235.52 0-426.667-191.147-426.667-426.667s191.147-426.667 426.667-426.667c235.52 0 426.667 191.147 426.667 426.667s-191.147 426.667-426.667 426.667zM355.413 505.173l106.667 213.333c5.547 10.667 16.64 17.493 28.587 17.493h42.667c11.947 0 23.040-6.827 28.587-17.493l106.667-213.333c8.107-15.787 1.707-34.987-14.507-43.093-4.693-2.133-9.387-3.413-14.080-3.413-11.52 0-23.040 6.4-28.587 17.493l-97.707 195.84h-2.987l-97.707-195.84c-7.68-15.787-26.88-22.187-43.093-14.507-16.213 8.107-22.613 27.307-14.507 43.52zM741.973 292.693l-213.333-128c-5.12-2.987-10.667-4.693-16.64-4.693s-11.52 1.707-16.64 4.693l-213.333 128c-14.507 8.533-19.627 26.88-12.373 41.813l42.667 85.333c8.107 15.787 27.307 22.187 43.093 14.507 15.787-8.107 22.187-27.307 14.507-43.093l-29.44-58.88 171.52-102.827 171.52 102.827-29.44 58.88c-8.107 15.787-1.707 34.987 14.507 43.093 15.787 7.68 34.987 1.707 43.093-14.507l42.667-85.333c7.253-14.933 1.707-33.28-12.373-41.813z" />
<glyph unicode="&#xe94a;" glyph-name="autobrightness" d="M919.893 501.76l-57.6 67.415c-10.667 12.8-19.627 36.693-19.627 53.76v72.533c0 45.227-37.12 82.347-82.347 82.347h-72.533c-17.067 0-41.387 8.96-54.187 19.627l-67.413 57.6c-29.44 25.173-77.653 25.173-107.093 0l-68.267-57.6c-12.8-10.667-36.693-19.627-53.76-19.627h-73.813c-45.227 0-82.347-37.12-82.347-82.347v-72.533c0-16.64-8.533-40.533-19.2-53.333l-57.6-67.842c-24.747-29.867-24.747-77.653 0-106.667l57.6-67.84c10.667-12.373 19.2-36.693 19.2-53.333v-72.96c0-45.227 37.12-82.347 82.347-82.347h74.24c16.64 0 40.96-8.96 53.76-19.627l67.413-57.6c29.44-25.173 77.653-25.173 107.093 0l67.413 57.6c12.8 10.667 36.693 19.627 53.76 19.627h72.533c45.227 0 82.347 37.12 82.347 82.347v72.533c0 17.067 8.96 40.96 19.627 53.76l57.6 67.413c26.027 29.013 26.027 77.227 0.853 107.093zM631.893 267.093l-41.813 93.867c-1.28 0-2.56-0.853-3.84-0.853h-149.333c-1.28 0-2.56 0.427-3.84 0.853l-41.813-93.867-58.453 26.027 149.333 336.215h58.453l149.333-336.215-58.027-26.027zM461.649 424.107h100.693l-50.347 113.065-50.347-113.065z" />
<glyph unicode="&#xe94b;" glyph-name="autonio-niox" d="M512 874.667c-235.52 0-426.667-191.147-426.667-426.667s191.147-426.667 426.667-426.667c235.52 0 426.667 191.147 426.667 426.667s-191.147 426.667-426.667 426.667zM456.533 271.36h-181.76c-8.107 0-13.228 8.96-8.961 16.213l90.88 151.467c4.267 6.827 14.080 6.827 18.346 0l90.881-151.467c4.267-7.253-0.853-16.213-9.387-16.213zM421.12 527.36c-8.107 0-13.228 8.96-8.961 16.214l90.881 151.466c4.267 6.827 14.080 6.827 18.347 0l90.88-151.466c4.267-7.253-0.853-16.214-8.96-16.214h-182.187zM749.227 271.36h-181.76c-8.107 0-13.227 8.96-8.96 16.213l90.88 151.467c4.267 6.827 14.080 6.827 18.347 0l90.88-151.467c3.84-7.253-1.28-16.213-9.387-16.213z" />
<glyph unicode="&#xe94c;" glyph-name="avalanche-avax" d="M512 874.667c-235.52 0-426.667-191.147-426.667-426.667s191.147-426.667 426.667-426.667c235.52 0 426.667 191.147 426.667 426.667s-191.147 426.667-426.667 426.667zM457.387 302.507c-14.080-22.613-38.827-36.267-65.707-36.267h-116.906c-14.933 0-24.32 16.213-16.64 29.013l239.36 410.027c6.827 11.947 23.893 12.8 32 1.707l66.56-89.173c19.2-25.6 20.48-60.16 3.84-87.467l-142.507-227.84zM748.8 266.24h-163.84c-14.933 0-24.32 16.213-16.64 29.44l81.92 136.533c7.68 12.373 25.6 12.373 33.28 0l81.92-136.533c7.68-12.8-1.707-29.44-16.64-29.44z" />
<glyph unicode="&#xe94d;" glyph-name="award" d="M759.893 725.76v-31.573l-151.040 87.467c-57.173 32.853-136.96 32.853-193.707 0l-151.040-87.893v32c0 96 52.48 148.907 148.48 148.907h198.827c96 0 148.48-52.907 148.48-148.907zM761.173 619.947l-5.973 2.987-58.027 33.28-120.32 69.547c-36.693 21.333-93.013 21.333-129.707 0l-120.32-69.12-58.027-34.133-7.68-3.84c-74.667-50.347-79.787-59.733-79.787-140.374v-192.853c0-80.64 5.12-90.027 81.493-141.653l184.32-106.24c18.347-11.093 41.387-15.787 64.853-15.787 23.040 0 46.507 5.12 64.853 15.787l186.027 107.52c75.093 50.347 79.787 59.307 79.787 140.373v192.853c0 80.64-5.12 90.027-81.493 141.654zM631.040 384l-26.027-32c-4.267-4.693-7.253-13.653-6.827-20.053l2.56-40.96c1.707-25.173-16.213-37.973-39.68-29.013l-37.973 15.36c-5.973 2.133-15.787 2.133-21.76 0l-37.973-14.933c-23.467-9.387-41.387 3.84-39.68 29.013l2.56 40.96c0.427 6.4-2.56 15.36-6.827 20.053l-26.453 31.573c-16.213 19.2-8.96 40.533 15.36 46.933l39.68 10.24c6.4 1.707 13.653 7.68 17.067 12.8l22.187 34.133c13.653 21.333 35.413 21.333 49.493 0l22.187-34.133c3.413-5.547 11.093-11.093 17.067-12.8l39.68-10.24c24.32-6.4 31.573-27.733 15.36-46.933z" />
<glyph unicode="&#xe94e;" glyph-name="back-square" d="M690.773 874.667h-357.547c-155.307 0-247.893-92.587-247.893-247.893v-357.12c0-155.733 92.587-248.32 247.893-248.32h357.12c155.307 0 247.893 92.587 247.893 247.893v357.547c0.427 155.307-92.16 247.893-247.467 247.893zM593.92 271.787h-209.92c-17.493 0-32 14.507-32 32s14.507 32 32 32h209.92c54.613 0 99.413 44.373 99.413 99.413s-44.373 99.413-99.413 99.413h-216.32l11.093-11.093c12.373-12.8 12.373-32.853-0.427-45.653-6.4-6.4-14.507-9.387-22.613-9.387s-16.213 2.987-22.613 9.387l-66.987 67.413c-12.373 12.373-12.373 32.853 0 45.227l66.987 66.987c12.373 12.373 32.853 12.373 45.227 0s12.373-32.853 0-45.227l-14.080-14.080h219.733c90.027 0 163.413-73.387 163.413-163.413s-73.387-162.987-163.413-162.987z" />
<glyph unicode="&#xe94f;" glyph-name="backward-5-seconds" d="M528.213 238.080h-97.707c-17.493 0-32 14.507-32 32s14.507 32 32 32h97.707c18.347 0 33.28 14.933 33.28 33.28s-14.933 33.28-33.28 33.28h-97.707c-10.24 0-20.053 5.12-26.026 13.227s-7.68 19.2-4.267 29.013l32.426 97.707c4.267 13.227 16.64 21.76 30.293 21.76h130.56c17.493 0 32-14.507 32-32s-14.507-32-32-32h-107.52l-11.093-33.707h53.333c53.76 0 97.28-43.52 97.28-97.28s-43.52-97.28-97.28-97.28zM512 811.52c-3.413 0-6.827-0.427-10.24-0.427l34.987 43.52c11.093 13.653 8.96 34.133-5.12 44.8s-33.707 8.96-44.8-5.12l-84.054-104.96c-0.427-0.427-0.427-0.853-0.853-1.707-1.28-1.707-2.133-3.84-2.987-5.547-0.853-2.133-1.707-3.84-2.133-5.547-0.427-2.133-0.427-3.84-0.427-5.973s0-4.267 0-6.4c0-0.853 0-1.28 0-2.133 0.427-1.28 1.28-2.133 1.707-3.413 0.853-2.133 1.707-3.84 2.56-5.973 1.28-1.707 2.56-3.413 4.267-4.693 0.853-1.28 1.28-2.56 2.56-3.413 0.853-0.427 1.28-0.853 2.133-1.28 1.28-0.853 2.133-1.28 3.413-1.707 2.133-1.28 4.693-2.133 7.253-2.56 1.28-0.853 2.56-0.853 3.84-0.853s2.133-0.427 3.414-0.427c1.28 0 2.133 0.427 2.987 0.853 1.28 0 2.56-0.427 3.84 0 27.307 6.4 52.907 9.387 77.227 9.387 191.573 0 347.307-155.733 347.307-347.307s-155.733-347.307-347.307-347.307c-191.574 0-347.308 155.733-347.308 347.307 0 74.24 24.32 145.92 70.4 207.36 10.667 14.080 7.68 34.133-6.4 44.8s-34.133 7.68-44.8-6.4c-54.613-72.533-83.2-157.44-83.2-245.76 0-226.56 184.32-411.307 411.308-411.307 226.987 0 411.307 184.32 411.307 411.307s-184.32 410.88-410.88 410.88z" />
<glyph unicode="&#xe950;" glyph-name="backward-10-seconds" d="M407.039 248.747c-17.493 0-32 14.507-32 32v144.64l-8.107-9.387c-11.947-13.227-32-14.080-45.227-2.56-13.227 11.947-14.080 32-2.56 45.227l64 71.253c8.96 9.813 23.040 13.227 35.413 8.533s20.481-16.64 20.481-29.867v-228.267c0-17.493-14.081-31.573-32.001-31.573zM512 811.52c-3.413 0-6.827-0.427-10.24-0.427l34.987 43.52c11.093 13.653 8.96 34.133-5.12 44.8-13.653 11.093-33.707 8.96-44.8-5.12l-84.054-104.96c-0.427-0.427-0.426-0.853-0.853-1.707-1.28-1.707-2.133-3.84-2.987-5.547-0.853-2.133-1.707-3.84-2.133-5.547-0.427-2.133-0.427-3.84-0.427-5.973s0-4.267 0-6.4c0-0.853 0-1.28 0-2.133 0.427-1.28 1.28-2.133 1.707-3.84 0.853-2.133 1.28-3.84 2.56-5.547s2.56-3.413 4.267-5.12c0.853-0.853 1.707-2.133 2.56-2.987 0.427-0.427 1.28-0.427 1.707-0.853 1.28-0.853 2.56-1.707 4.266-2.133 2.134-1.28 4.267-2.133 6.4-2.56 1.707-0.853 2.987-0.853 4.693-0.853 1.28 0 2.133-0.427 3.413-0.427 0.853 0 2.133 0.427 2.987 0.853 1.28 0 2.56 0 4.267 0 27.307 6.4 52.907 9.387 77.227 9.387 191.573 0 347.307-155.733 347.307-347.307s-155.733-347.307-347.307-347.307c-191.573 0-347.307 155.733-347.307 347.307 0 74.24 24.32 145.92 70.4 207.36 10.667 14.080 7.68 34.133-6.4 44.8s-34.133 7.68-44.8-6.4c-54.613-72.533-83.2-157.44-83.2-245.76 0-226.56 184.32-411.307 411.307-411.307s411.307 184.32 411.307 411.307c0 226.987-185.173 410.88-411.733 410.88zM597.333 248.747c-64.853 0-117.333 52.48-117.333 117.333v57.6c0 64.853 52.48 117.333 117.333 117.333s117.333-52.48 117.333-117.333v-57.6c0-64.853-52.48-117.333-117.333-117.333zM597.333 476.587c-29.44 0-53.333-23.893-53.333-53.333v-57.6c0-29.44 23.893-53.333 53.333-53.333s53.333 23.893 53.333 53.333v57.6c0 29.44-23.893 53.333-53.333 53.333z" />
<glyph unicode="&#xe951;" glyph-name="backward-15-seconds" d="M615.68 238.080h-97.707c-17.493 0-32 14.507-32 32s14.507 32 32 32h97.707c18.347 0 33.28 14.933 33.28 33.28s-14.933 33.28-33.28 33.28h-97.707c-10.24 0-20.053 5.12-26.027 13.227s-7.68 19.2-4.267 29.013l32.427 97.707c4.267 13.227 16.64 21.76 30.293 21.76h130.56c17.493 0 32-14.507 32-32s-14.507-32-32-32h-107.52l-11.093-33.707h53.333c53.76 0 97.28-43.52 97.28-97.28s-43.947-97.28-97.28-97.28zM407.039 238.080c-17.493 0-32 14.507-32 32v144.64l-8.107-9.387c-11.947-13.227-32-14.080-45.227-2.56-12.8 11.947-14.080 32-2.133 45.227l64 71.253c8.96 9.813 23.040 13.227 35.413 8.533s20.481-16.64 20.481-29.867v-228.267c-0.427-17.493-14.508-31.573-32.428-31.573zM512 811.52c-3.413 0-6.827-0.427-10.24-0.427l34.987 43.52c11.093 13.653 8.96 34.133-5.12 44.8s-33.707 8.96-44.8-5.12l-84.054-104.96c-0.427-0.427-0.427-0.853-0.853-1.707-1.28-1.707-2.133-3.84-2.987-5.547-0.853-2.133-1.707-3.84-2.133-5.547-0.427-2.133-0.427-3.84-0.427-5.973s0-4.267 0-6.4c0-0.853 0-1.28 0-2.133 0.427-1.28 1.28-2.133 1.707-3.413 0.853-2.133 1.707-3.84 2.56-5.973 1.28-1.707 2.56-3.413 4.267-4.693 0.853-1.28 1.28-2.56 2.56-3.413 0.853-0.427 1.28-0.853 2.133-1.28 0.853-0.853 2.133-1.28 3.413-1.707 2.133-1.28 4.693-2.133 6.827-2.56 1.707-0.853 2.987-0.853 4.267-0.853s2.133-0.427 3.414-0.427c1.28 0 2.133 0.427 2.987 0.853 1.28 0 2.56-0.427 3.84 0 27.307 6.4 52.907 9.387 77.227 9.387 191.573 0 347.307-155.733 347.307-347.307s-155.733-347.307-347.307-347.307c-191.574 0-347.308 155.733-347.308 347.307 0 74.24 24.32 145.92 70.4 207.36 10.667 14.080 7.68 34.133-6.4 44.8s-34.133 7.68-44.8-6.4c-54.613-72.533-83.2-157.44-83.2-245.76 0-226.56 184.32-411.307 411.308-411.307 226.987 0 411.307 184.32 411.307 411.307s-184.32 410.88-410.88 410.88z" />
<glyph unicode="&#xe952;" glyph-name="backward-item" d="M906.667 740.267v-115.2c0-78.507-23.893-102.4-102.4-102.4h-115.2c-78.507 0-102.4 23.893-102.4 102.4v115.2c0 78.507 23.893 102.4 102.4 102.4h115.2c78.507 0 102.4-23.893 102.4-102.4zM437.333 270.933v-115.2c0-78.507-23.893-102.4-102.4-102.4h-115.2c-78.507 0-102.4 23.893-102.4 102.4v115.2c0 78.507 23.893 102.4 102.4 102.4h115.2c78.507 0 102.4-23.893 102.4-102.4zM689.067 458.667c11.311 0 20.48-9.169 20.48-20.48v-59.307c0-97.28-31.147-128.427-128.427-128.427h-59.307c-11.311 0-20.48 9.169-20.48 20.48 0 113.493-52.907 166.4-166.4 166.4-11.311 0-20.48 9.169-20.48 20.48v59.307c0 97.28 31.147 128.427 128.427 128.427h59.307c11.311 0 20.48-9.169 20.48-20.48 0-113.493 52.907-166.4 166.4-166.4z" />
<glyph unicode="&#xe953;" glyph-name="backward" d="M938.667 604.16v-312.32c0-64-69.547-104.107-125.013-72.107l-291.413 168.107v120.32l20.907 11.947 270.507 156.16c55.467 32 125.013-8.107 125.013-72.107zM522.24 604.16v-312.32c0-64-69.547-104.107-124.587-72.107l-270.933 156.16c-55.040 32-55.040 112.213 0 144.213l270.933 156.16c55.040 32 124.587-8.107 124.587-72.107z" />
<glyph unicode="&#xe954;" glyph-name="bag-2" d="M851.627 577.706c-28.587 31.573-71.68 49.92-131.413 56.32v32.427c0 58.453-24.747 114.773-68.267 154.027-43.947 40.107-101.12 58.88-160.427 53.333-101.974-9.813-187.734-108.373-187.734-215.040v-24.747c-59.733-6.4-102.827-24.747-131.413-56.32-41.387-46.079-40.107-107.519-35.413-150.186l29.867-237.653c8.96-83.2 42.667-168.533 226.133-168.533h238.080c183.467 0 217.173 85.333 226.133 168.107l29.867 238.507c4.693 42.24 5.547 103.68-35.413 149.759zM497.493 814.506c42.667 3.84 83.2-9.387 114.773-37.973 31.147-28.16 48.64-68.267 48.64-110.080v-29.867h-297.814v22.187c0 75.947 62.72 148.907 134.4 155.733zM359.253 398.933h-0.427c-23.467 0-42.667 19.2-42.667 42.667s19.2 42.667 42.667 42.667c23.893 0 43.093-19.2 43.093-42.667s-19.2-42.667-42.667-42.667zM657.92 398.933h-0.427c-23.467 0-42.667 19.2-42.667 42.667s19.2 42.667 42.667 42.667c23.893 0 43.093-19.2 43.093-42.667s-19.2-42.667-42.667-42.667z" />
<glyph unicode="&#xe955;" glyph-name="bag-cross-1" d="M820.907 721.917h-17.067l-144.213 144.213c-11.52 11.52-30.293 11.52-42.24 0-11.52-11.52-11.52-30.293 0-42.24l101.973-101.973h-414.72l101.973 101.973c11.52 11.52 11.52 30.293 0 42.24-11.52 11.52-30.293 11.52-42.24 0l-143.787-144.213h-17.067c-38.4 0-118.187 0-118.187-109.227 0-41.387 8.533-68.693 26.453-86.615 10.24-10.667 22.613-16.213 35.84-19.2 12.373-2.987 25.6-3.413 38.4-3.413h651.947c13.227 0 25.6 0.853 37.547 3.413 35.84 8.533 63.147 34.135 63.147 105.815 0 109.227-79.787 109.227-117.76 109.227zM814.507 448h-605.013c-26.453 0-46.507-23.467-42.24-49.493l35.84-219.307c11.947-73.387 43.947-157.867 186.027-157.867h239.36c143.787 0 169.387 72.107 184.747 152.747l43.093 223.147c5.12 26.453-14.933 50.773-41.813 50.773zM593.92 154.027c-5.973-6.4-14.080-9.387-22.613-9.387-8.107 0-16.213 2.987-22.613 9.387l-35.84 36.267-37.547-37.547c-6.4-6.4-14.507-9.387-22.613-9.387-8.533 0-16.64 2.987-22.613 9.387-12.8 12.373-12.8 32.427 0 45.227l37.547 37.547-36.267 35.84c-12.8 12.8-12.8 32.853 0 45.227 12.373 12.8 32.427 12.8 45.227 0l36.267-35.84 34.56 34.56c12.8 12.8 32.853 12.8 45.227 0 12.8-12.373 12.8-32.427 0-45.227l-34.56-34.56 35.84-36.267c12.8-12.8 12.8-32.853 0-45.227z" />
<glyph unicode="&#xe956;" glyph-name="bag-cross" d="M851.627 577.706c-28.587 31.573-71.68 49.92-131.413 56.32v32.427c0 58.453-24.747 114.773-68.267 154.027-43.947 40.107-101.12 58.88-160.427 53.333-101.974-9.813-187.734-108.373-187.734-215.040v-24.747c-59.733-6.4-102.827-24.747-131.413-56.32-41.387-46.079-40.107-107.519-35.413-150.186l29.867-237.653c8.96-83.2 42.667-168.533 226.133-168.533h238.080c183.467 0 217.173 85.333 226.133 168.107l29.867 238.507c4.693 42.24 5.973 103.68-35.413 149.759zM497.493 814.506c42.667 3.84 83.2-9.387 114.773-37.973 31.147-28.16 48.64-68.267 48.64-110.080v-29.867h-297.814v22.187c0 75.947 62.72 148.907 134.4 155.733zM512 167.253c-89.174 0-161.707 72.533-161.707 161.707s72.533 161.707 161.707 161.707c89.173 0 161.707-72.533 161.707-161.707s-72.533-161.707-161.707-161.707zM580.267 306.773l-22.613 22.613 21.333 21.333c12.373 12.373 12.373 32.853 0 45.227s-32.853 12.373-45.227 0l-21.333-21.333-22.613 22.613c-12.373 12.373-32.853 12.373-45.227 0s-12.373-32.853 0-45.227l22.613-22.613-23.467-23.467c-12.373-12.373-12.373-32.853 0-45.227 6.4-6.4 14.507-9.387 22.613-9.387s16.213 2.987 22.613 9.387l23.467 23.467 22.613-22.613c6.4-6.4 14.507-9.387 22.613-9.387s16.213 2.987 22.613 9.387c12.373 12.373 12.373 32.427 0 45.227z" />
<glyph unicode="&#xe957;" glyph-name="bag-happy" d="M820.907 721.917h-17.067l-144.213 144.213c-11.52 11.52-30.293 11.52-42.24 0-11.52-11.52-11.52-30.293 0-42.24l101.973-101.973h-414.72l101.973 101.973c11.52 11.52 11.52 30.293 0 42.24-11.52 11.52-30.293 11.52-42.24 0l-143.787-144.213h-17.067c-38.4 0-118.187 0-118.187-109.227 0-41.387 8.533-68.693 26.453-86.615 10.24-10.667 22.613-16.213 35.84-19.2 12.373-2.987 25.6-3.413 38.4-3.413h651.947c13.227 0 25.6 0.853 37.547 3.413 35.84 8.533 63.147 34.135 63.147 105.815 0 109.227-79.787 109.227-117.76 109.227zM812.8 448h-605.015c-26.453 0-46.507-23.467-42.24-49.493l35.84-219.307c11.947-73.387 43.947-157.867 186.027-157.867h239.361c143.787 0 169.387 72.107 184.747 152.747l43.093 223.147c5.12 26.453-14.933 50.773-41.813 50.773zM512 128c-99.841 0-181.335 81.493-181.335 181.333 0 17.493 14.507 32 32 32s32-14.507 32-32c0-64.853 52.481-117.333 117.335-117.333s117.333 52.48 117.333 117.333c0 17.493 14.507 32 32 32s32-14.507 32-32c0-99.84-81.493-181.333-181.333-181.333z" />
<glyph unicode="&#xe958;" glyph-name="bag-tick-2" d="M851.627 577.706c-28.587 31.573-71.68 49.92-131.413 56.32v32.427c0 58.453-24.747 114.773-68.267 154.027-43.947 40.107-101.12 58.88-160.427 53.333-101.974-9.813-187.734-108.373-187.734-215.040v-24.747c-59.733-6.4-102.827-24.747-131.413-56.32-41.387-46.079-40.107-107.519-35.413-150.186l29.867-237.653c8.96-83.2 42.667-168.533 226.133-168.533h238.080c183.467 0 217.173 85.333 226.133 168.107l29.867 238.507c4.693 42.24 5.973 103.68-35.413 149.759zM497.493 814.506c42.667 3.84 83.2-9.387 114.773-37.973 31.147-28.16 48.64-68.267 48.64-110.080v-29.867h-297.814v22.187c0 75.947 62.72 148.907 134.4 155.733zM512 167.253c-89.174 0-161.707 72.533-161.707 161.707s72.533 161.707 161.707 161.707c89.173 0 161.707-72.533 161.707-161.707s-72.533-161.707-161.707-161.707zM487.68 250.027c-8.107 0-16.213 2.987-22.613 9.387l-42.24 42.24c-12.373 12.373-12.373 32.853 0 45.227s32.853 12.373 45.227 0l20.48-20.48 68.267 63.147c12.8 11.947 33.28 11.093 45.227-1.707s11.093-33.28-1.707-45.227l-90.88-84.053c-6.4-5.547-14.080-8.533-21.76-8.533z" />
<glyph unicode="&#xe959;" glyph-name="bag-tick" d="M820.907 721.917h-17.067l-144.213 144.213c-11.52 11.52-30.293 11.52-42.24 0-11.52-11.52-11.52-30.293 0-42.24l101.973-101.973h-414.72l101.973 101.973c11.52 11.52 11.52 30.293 0 42.24-11.52 11.52-30.293 11.52-42.24 0l-143.787-144.213h-17.067c-38.4 0-118.187 0-118.187-109.227 0-41.387 8.533-68.693 26.453-86.615 10.24-10.667 22.613-16.213 35.84-19.2 12.373-2.987 25.6-3.413 38.4-3.413h651.947c13.227 0 25.6 0.853 37.547 3.413 35.84 8.533 63.147 34.135 63.147 105.815 0 109.227-79.787 109.227-117.76 109.227zM814.507 448h-605.013c-26.453 0-46.507-23.467-42.24-49.493l35.84-219.307c11.947-73.387 43.947-157.867 186.027-157.867h239.36c143.787 0 169.387 72.107 184.747 152.747l43.093 223.147c5.12 26.453-14.933 50.773-41.813 50.773zM634.88 275.2l-138.667-128c-5.973-5.547-13.653-8.533-21.76-8.533s-16.213 2.987-22.613 9.387l-64 64c-12.373 12.373-12.373 32.853 0 45.227 12.8 12.373 32.853 12.373 45.653 0l42.24-42.24 116.053 107.093c12.8 11.947 33.28 11.093 45.227-1.707 11.947-13.227 11.093-33.28-2.133-45.227z" />
<glyph unicode="&#xe95a;" glyph-name="bag-timer" d="M851.627 577.706c-28.587 31.573-71.68 49.92-131.413 56.32v32.427c0 58.453-24.747 114.773-68.267 154.027-43.947 40.107-101.12 58.88-160.427 53.333-101.974-9.813-187.734-108.373-187.734-215.040v-24.747c-59.733-6.4-102.827-24.747-131.413-56.32-41.387-46.079-40.107-107.519-35.413-150.186l29.867-237.653c8.96-83.2 42.667-168.533 226.133-168.533h238.080c183.467 0 217.173 85.333 226.133 168.107l29.867 238.507c4.693 42.24 5.973 103.68-35.413 149.759zM497.493 814.506c42.667 3.84 83.2-9.387 114.773-37.973 31.147-28.16 48.64-68.267 48.64-110.080v-29.867h-297.814v22.187c0 75.947 62.72 148.907 134.4 155.733zM512 167.253c-89.174 0-161.707 72.533-161.707 161.707s72.533 161.707 161.707 161.707c89.173 0 161.707-72.533 161.707-161.707s-72.533-161.707-161.707-161.707zM469.333 252.587c-10.667 0-21.333 5.547-27.307 15.36-8.96 14.933-4.267 34.987 11.093 43.947l37.973 22.613v46.080c0 17.493 14.507 32 32 32s31.573-14.080 31.573-32v-64c0-11.093-5.973-21.76-15.36-27.307l-53.333-32c-5.12-2.987-11.093-4.693-16.64-4.693z" />
<glyph unicode="&#xe95b;" glyph-name="bag" d="M820.907 721.917h-17.067l-144.213 144.213c-11.52 11.52-30.293 11.52-42.24 0-11.52-11.52-11.52-30.293 0-42.24l101.973-101.973h-414.72l101.973 101.973c11.52 11.52 11.52 30.293 0 42.24-11.52 11.52-30.293 11.52-42.24 0l-143.787-144.213h-17.067c-38.4 0-118.187 0-118.187-109.227 0-41.387 8.533-68.693 26.453-86.615 10.24-10.667 22.613-16.213 35.84-19.2 12.373-2.987 25.6-3.413 38.4-3.413h651.947c13.227 0 25.6 0.853 37.547 3.413 35.84 8.533 63.147 34.135 63.147 105.815 0 109.227-79.787 109.227-117.76 109.227zM812.8 448h-605.015c-26.453 0-46.507-23.467-42.24-49.493l35.84-219.307c11.947-73.387 43.947-157.867 186.027-157.867h239.361c143.787 0 169.387 72.107 184.747 152.747l43.093 223.147c5.12 26.453-14.933 50.773-41.813 50.773zM452.693 172.8c0-16.64-13.227-29.867-29.441-29.867-16.64 0-29.867 13.227-29.867 29.867v140.8c0 16.213 13.227 29.867 29.867 29.867 16.215 0 29.441-13.653 29.441-29.867v-140.8zM635.307 172.8c0-16.64-13.227-29.867-29.867-29.867-16.213 0-29.867 13.227-29.867 29.867v140.8c0 16.213 13.653 29.867 29.867 29.867 16.64 0 29.867-13.653 29.867-29.867v-140.8z" />
<glyph unicode="&#xe95c;" glyph-name="bank" d="M938.667 149.333v-128h-853.333v128c0 23.467 19.2 42.667 42.667 42.667h768c23.467 0 42.667-19.2 42.667-42.667zM298.667 490.667h-85.333v-298.667h85.333v298.667zM469.333 490.667h-85.333v-298.667h85.333v298.667zM640 490.667h-85.333v-298.667h85.333v298.667zM810.667 490.667h-85.333v-298.667h85.333v298.667zM981.333-10.667h-938.667c-17.493 0-32 14.507-32 32s14.507 32 32 32h938.667c17.493 0 32-14.507 32-32s-14.507-32-32-32zM911.787 714.665l-384 153.6c-8.533 3.413-23.040 3.413-31.573 0l-384-153.6c-14.933-5.973-26.88-23.467-26.88-39.68v-141.652c0-23.467 19.2-42.667 42.667-42.667h768c23.467 0 42.667 19.2 42.667 42.667v141.652c0 16.213-11.947 33.707-26.88 39.68zM512 597.332c-35.413 0-64 28.587-64 64s28.587 64 64 64c35.413 0 64-28.587 64-64s-28.587-64-64-64z" />
<glyph unicode="&#xe95d;" glyph-name="barcode" d="M725.333 810.667h-426.667c-128 0-213.333-64-213.333-213.333v-298.667c0-149.333 85.333-213.333 213.333-213.333h426.667c128 0 213.333 64 213.333 213.333v298.667c0 149.333-85.333 213.333-213.333 213.333zM288 277.333c0-17.493-14.507-32-32-32s-32 14.507-32 32v341.333c0 17.493 14.507 32 32 32s32-14.507 32-32v-341.333zM416 277.333c0-17.493-14.507-32-32-32s-32 14.507-32 32v42.667c0 17.493 14.507 32 32 32s32-14.507 32-32v-42.667zM416 448c0-17.493-14.507-32-32-32s-32 14.507-32 32v170.667c0 17.493 14.507 32 32 32s32-14.507 32-32v-170.667zM544 277.333c0-17.493-14.507-32-32-32s-32 14.507-32 32v341.333c0 17.493 14.507 32 32 32s32-14.507 32-32v-341.333zM672 277.333c0-17.493-14.507-32-32-32s-32 14.507-32 32v170.667c0 17.493 14.507 32 32 32s32-14.507 32-32v-170.667zM672 576c0-17.493-14.507-32-32-32s-32 14.507-32 32v42.667c0 17.493 14.507 32 32 32s32-14.507 32-32v-42.667zM800 277.333c0-17.493-14.507-32-32-32s-32 14.507-32 32v341.333c0 17.493 14.507 32 32 32s32-14.507 32-32v-341.333z" />
<glyph unicode="&#xe95e;" glyph-name="battery-charging" d="M871.253 576.001c-5.973 0.427-13.653 0.853-22.187 0.853-16.64 0-29.867-13.227-29.867-29.867v-198.401c0-16.64 13.227-29.867 29.867-29.867 8.533 0 15.787 0.427 23.040 0.853 66.56 7.68 66.56 54.613 66.56 88.747v79.36c0 34.133 0 81.068-67.413 88.321zM551.68 755.625h-238.080c-174.933 0-228.267-53.333-228.267-228.265v-158.72c0-174.933 53.333-228.267 228.267-228.267h238.080c174.933 0 228.267 53.333 228.267 228.267v158.72c0 174.932-53.333 228.265-228.267 228.265zM534.613 376.32c-0.853-1.707-2.133-3.413-3.413-4.693l-79.787-93.44c-6.4-7.253-15.36-11.093-24.32-11.093-7.253 0-14.933 2.56-20.907 7.68-13.227 11.52-14.933 31.573-3.413 45.227l76.8 90.027c0.427 1.28 0 2.56-0.853 3.84-0.853 1.707-2.56 2.56-4.693 2.56h-84.907c-25.173 0-47.36 12.8-60.16 34.56-12.373 21.76-12.373 47.36 0 69.12l72.96 96.425c10.667 14.080 30.72 17.067 44.8 6.4s17.067-30.72 6.4-44.8l-70.4-93.438c1.28 1.707 1.28 0 2.133-2.133 0.853-1.707 2.56-2.56 4.693-2.56h85.76c25.173 0 47.36-12.8 60.16-34.56 11.52-21.76 11.52-47.36-0.853-69.12z" />
<glyph unicode="&#xe95f;" glyph-name="battery-disable" d="M871.253 576.001c-5.973 0.427-13.653 0.853-22.187 0.853-16.64 0-29.867-13.227-29.867-29.867v-198.401c0-16.64 13.227-29.867 29.867-29.867 8.533 0 15.787 0.427 23.040 0.853 66.56 7.68 66.56 54.613 66.56 88.747v79.36c0 34.133 0 81.068-67.413 88.321zM779.942 527.36v-158.72c0-125.867-102.4-228.267-228.267-228.267h-156.586c-33.707 0-54.187 37.12-36.267 65.28l309.76 489.813c15.36 24.32 49.92 26.453 69.12 4.693 30.72-35.413 42.24-90.453 42.24-172.8zM699.733 880.214c-14.933 9.387-34.56 5.12-43.947-9.813l-72.96-115.627c-9.813 0.427-20.053 0.853-31.147 0.853h-238.080c-174.933 0-228.267-53.333-228.267-228.267v-158.72c0-130.133 29.867-192.427 116.907-215.893l-58.453-93.013c-9.387-14.933-5.12-34.56 9.813-43.947 5.12-3.413 11.093-5.12 17.067-5.12 10.667 0 20.907 5.12 26.88 14.933l512 810.667c9.813 14.933 5.12 34.56-9.813 43.947z" />
<glyph unicode="&#xe960;" glyph-name="battery-empty-1" d="M551.68 755.625h-238.080c-174.933 0-228.267-53.333-228.267-228.265v-158.72c0-174.933 53.333-228.267 228.267-228.267h238.080c174.933 0 228.267 53.333 228.267 228.267v158.72c0 174.932-53.333 228.265-228.267 228.265zM871.253 576.001c-5.973 0.427-13.653 0.853-22.187 0.853-16.64 0-29.867-13.227-29.867-29.867v-198.401c0-16.64 13.227-29.867 29.867-29.867 8.533 0 15.787 0.427 23.040 0.853 66.56 7.68 66.56 54.613 66.56 88.747v79.36c0 34.133 0 81.068-67.413 88.321z" />
<glyph unicode="&#xe961;" glyph-name="battery-empty" d="M871.253 576.001c-5.973 0.427-13.653 0.853-22.187 0.853-16.64 0-29.867-13.227-29.867-29.867v-198.401c0-16.64 13.227-29.867 29.867-29.867 8.533 0 15.787 0.427 23.040 0.853 66.56 7.68 66.56 54.613 66.56 88.747v79.36c0 34.133 0 81.068-67.413 88.321zM551.68 755.625h-238.080c-174.933 0-228.267-53.333-228.267-228.265v-158.72c0-174.933 53.333-228.267 228.267-228.267h238.080c174.933 0 228.267 53.333 228.267 228.267v158.72c0 174.932-53.333 228.265-228.267 228.265zM302.933 354.987c-3.413-14.507-16.64-24.32-31.147-24.32-2.56 0-5.12 0.427-7.68 0.853-17.067 4.267-27.733 21.76-23.467 38.827 12.8 50.773 12.8 104.533 0 155.307-4.267 17.065 5.973 34.558 23.467 38.825 17.067 4.267 34.56-6.4 38.827-23.467 15.36-61.012 15.36-125.012 0-186.025z" />
<glyph unicode="&#xe962;" glyph-name="battery-full" d="M871.253 576.001c-5.973 0.427-13.653 0.853-22.187 0.853-16.64 0-29.867-13.227-29.867-29.867v-198.401c0-16.64 13.227-29.867 29.867-29.867 8.533 0 15.787 0.427 23.040 0.853 66.56 7.68 66.56 54.613 66.56 88.747v79.36c0 34.133 0 81.068-67.413 88.321zM551.68 755.625h-238.080c-174.933 0-228.267-53.333-228.267-228.265v-158.72c0-174.933 53.333-228.267 228.267-228.267h238.080c174.933 0 228.267 53.333 228.267 228.267v158.72c0 174.932-53.333 228.265-228.267 228.265zM302.933 354.987c-3.413-14.507-16.64-24.32-31.147-24.32-2.56 0-5.12 0.427-7.68 0.853-17.067 4.267-27.733 21.76-23.467 38.827 12.8 50.773 12.8 104.533 0 155.307-4.267 17.065 5.973 34.558 23.467 38.825s34.56-6.4 38.827-23.467c15.36-61.012 15.36-125.012 0-186.025zM452.267 354.987c-3.413-14.507-16.64-24.32-31.147-24.32-2.56 0-5.12 0.427-7.68 0.853-17.067 4.267-27.733 21.76-23.467 38.827 12.8 50.773 12.8 104.533 0 155.307-4.267 17.065 5.973 34.558 23.467 38.825 17.067 4.267 34.56-5.973 38.827-23.467 15.36-61.012 15.36-125.012 0-186.025zM601.6 354.987c-3.413-14.507-16.64-24.32-31.147-24.32-2.56 0-5.12 0.427-7.68 0.853-17.067 4.267-27.733 21.76-23.467 38.827 12.8 50.773 12.8 104.533 0 155.307-4.267 17.065 5.973 34.558 23.467 38.825 17.067 4.267 34.56-5.973 38.827-23.467 15.36-61.012 15.36-125.012 0-186.025z" />
<glyph unicode="&#xe963;" glyph-name="be" d="M384 160h-256c-40.96 0-74.667 33.707-74.667 74.667v426.667c0 40.96 33.707 74.667 74.667 74.667h213.333c88.32 0 160-71.68 160-160 0-43.947-17.92-83.627-46.507-112.64 52.907-26.027 89.173-80.64 89.173-143.36 0-88.32-71.68-160-160-160zM117.333 416v-181.333c0-5.973 4.693-10.667 10.667-10.667h256c52.907 0 96 43.093 96 96s-43.093 96-96 96h-266.667zM117.333 480h224c52.907 0 96 43.093 96 96s-43.093 96-96 96h-213.333c-5.973 0-10.667-4.693-10.667-10.667v-181.333zM839.253 160h-71.253c-111.787 0-202.667 90.88-202.667 202.667s90.88 202.667 202.667 202.667c111.787 0 202.667-90.88 202.667-202.667 0-17.493-14.507-32-32-32h-305.493c14.507-61.013 69.547-106.667 134.827-106.667h71.253c17.493 0 32-14.507 32-32s-14.507-32-32-32zM633.173 394.667h270.080c-14.507 61.013-69.547 106.667-134.827 106.667s-120.747-45.653-135.253-106.667zM832 608h-128c-17.493 0-32 14.507-32 32s14.507 32 32 32h128c17.493 0 32-14.507 32-32s-14.507-32-32-32z" />
<glyph unicode="&#xe964;" glyph-name="bezier" d="M816.64 630.613c12.373-32 43.093-54.613 79.36-54.613 46.933 0 85.333 38.4 85.333 85.333s-38.4 85.333-85.333 85.333c-36.267 0-66.987-22.613-79.36-54.613-2.133 0.427-3.84 1.28-5.973 1.28h-170.667v32c0 34.987-29.013 64-64 64h-128c-34.987 0-64-29.013-64-64v-32h-170.667c-2.133 0-3.84-0.853-5.973-1.28-12.373 32-43.093 54.613-79.36 54.613-46.933 0-85.333-38.4-85.333-85.333s38.4-85.333 85.333-85.333c36.267 0 66.987 22.613 79.36 54.613 2.133-0.427 3.84-1.28 5.973-1.28h109.653c-87.467-64.853-141.653-172.373-141.653-288 0-7.253 0.427-14.080 1.28-21.333h-11.947c-35.413 0-64-28.587-64-64v-85.333c0-35.413 28.587-64 64-64h85.333c9.387 0 17.92 2.133 26.027 5.973 22.187 9.387 37.973 32 37.973 58.027v85.333c0 35.413-28.587 64-64 64h-9.813c0 1.28 0.427 2.56 0.427 3.84-0.853 5.973-0.853 11.52-0.853 17.493 0 105.387 54.187 201.813 139.093 251.733 1.707-32.853 29.44-59.733 63.147-59.733h128c33.707 0 61.44 26.88 63.573 59.733 84.907-49.92 139.093-146.773 139.093-251.733 0-5.973-0.427-11.52-0.853-17.493 0-1.28 0.427-2.56 0.427-3.84h-10.24c-35.413 0-64-28.587-64-64v-85.333c0-26.027 15.787-48.64 37.973-58.027 8.107-3.84 16.64-5.973 26.027-5.973h85.333c35.413 0 64 28.587 64 64v85.333c0 35.413-28.587 64-64 64h-11.947c0.853 7.253 1.28 14.080 1.28 21.333 0 115.627-54.187 223.147-141.653 288h109.653c2.133 0 3.84 0.853 5.973 1.28z" />
<glyph unicode="&#xe965;" glyph-name="bill" d="M938.667 821.333h-853.333c-17.493 0-32 14.507-32 32s14.507 32 32 32h853.333c17.493 0 32-14.507 32-32s-14.507-32-32-32zM156.583 853.333v-510.72c0-41.813 19.627-81.493 53.333-106.667l222.292-166.4c47.36-35.413 112.64-35.413 160 0l222.293 166.4c33.707 25.173 53.333 64.853 53.333 106.667v510.72h-711.252zM682.662 373.333h-341.332c-17.493 0-32 14.507-32 32s14.507 32 32 32h341.332c17.493 0 32-14.507 32-32s-14.507-32-32-32zM682.662 586.667h-341.332c-17.493 0-32 14.507-32 32s14.507 32 32 32h341.332c17.493 0 32-14.507 32-32s-14.507-32-32-32z" />
<glyph unicode="&#xe966;" glyph-name="binance-coin-bnb" d="M497.067 859.733l-225.708-225.707c-8.533-8.533-8.533-21.76 0-30.293l55.040-55.040c8.533-8.533 21.76-8.533 30.294 0l140.375 140.373c8.533 8.533 21.76 8.533 30.293 0l140.373-140.373c8.533-8.533 21.76-8.533 30.293 0l55.040 55.040c8.533 8.533 8.533 21.76 0 30.293l-225.707 225.707c-8.533 8.107-22.187 8.107-30.293 0zM497.067 36.267l-225.708 225.707c-8.533 8.533-8.533 21.76 0 30.293l55.040 55.040c8.533 8.533 21.76 8.533 30.294 0l140.375-140.373c8.533-8.533 21.76-8.533 30.293 0l140.373 140.373c8.533 8.533 21.76 8.533 30.293 0l55.040-55.040c8.533-8.533 8.533-21.76 0-30.293l-225.707-225.707c-8.533-8.107-22.187-8.107-30.293 0zM857.609 529.067l65.707-65.707c8.533-8.533 8.533-21.76 0-30.293l-65.707-65.707c-8.533-8.533-21.76-8.533-30.293 0l-65.707 65.707c-8.533 8.533-8.533 21.76 0 30.293l65.707 65.707c8.533 8.107 22.187 8.107 30.293 0zM196.275 529.067l65.706-65.707c8.533-8.533 8.533-21.76 0-30.293l-65.706-65.707c-8.533-8.533-21.76-8.533-30.294 0l-65.706 65.707c-8.533 8.533-8.533 21.76 0 30.293l65.706 65.707c8.533 8.107 22.187 8.107 30.294 0zM526.942 538.453l75.52-75.52c8.533-8.533 8.533-21.76 0-30.293l-75.52-75.52c-8.533-8.533-21.76-8.533-30.293 0l-75.52 75.52c-8.533 8.533-8.533 21.76 0 30.293l75.52 75.52c8.533 8.533 22.187 8.533 30.293 0z" />
<glyph unicode="&#xe967;" glyph-name="binance-usd-busd" d="M486.404 859.733l-219.733-219.733c-8.533-8.533-8.533-21.76 0-30.293l73.814-73.813c8.533-8.533 21.76-8.533 30.293 0l219.733 219.733c8.533 8.533 8.533 21.76 0 30.293l-73.813 73.813c-8.533 8.107-21.76 8.107-30.293 0zM652.804 692.907l-386.133-386.133c-8.533-8.533-8.533-21.76 0-30.293l73.814-73.813c8.533-8.533 21.76-8.533 30.293 0l386.133 386.133c8.533 8.533 8.533 21.76 0 30.293l-73.813 73.813c-8.107 8.533-21.76 8.533-30.293 0zM819.618 526.507l-386.133-386.133c-8.535-8.533-8.535-21.76 0-30.293l73.813-73.813c8.533-8.533 21.76-8.533 30.293 0l386.133 386.133c8.533 8.533 8.533 21.76 0 30.293l-73.813 73.813c-8.533 8.533-22.187 8.533-30.293 0zM174.505 369.493l-73.814 73.813c-8.533 8.533-8.533 21.76 0 30.293l73.814 73.813c8.533 8.533 21.76 8.533 30.293 0l73.814-73.813c8.533-8.533 8.533-21.76 0-30.293l-73.814-73.813c-8.533-8.533-22.186-8.533-30.293 0z" />
<glyph unicode="&#xe968;" glyph-name="bitcoin-btc" d="M638.711 416h-232.107v-120.747h232.107c40.533 0 73.813 27.307 73.813 60.587s-33.28 60.16-73.813 60.16zM512 874.667c-235.52 0-426.667-191.147-426.667-426.667s191.147-426.667 426.667-426.667c235.52 0 426.667 191.147 426.667 426.667s-191.147 426.667-426.667 426.667zM638.72 231.253h-70.4v-60.587c0-17.493-14.507-32-32-32s-32 14.507-32 32v60.587h-51.627v-60.587c0-17.493-14.507-32-32-32s-32 14.507-32 32v60.587h-87.893c-17.493 0-32 14.507-32 32s14.507 32 32 32h41.813v305.493h-41.813c-17.493 0-32 14.507-32 32s14.507 32 32 32h87.893v60.587c0 17.493 14.507 32 32 32s32-14.507 32-32v-60.587h51.627v60.587c0 17.493 14.507 32 32 32s32-14.507 32-32v-60.587h37.547c66.133 0 124.587-58.027 124.587-124.587 0-28.587-10.24-54.613-26.453-75.947 43.093-20.907 72.533-61.867 72.533-109.227 0-67.84-61.867-123.733-137.813-123.733zM666.445 540.587c0 28.16-26.453 60.587-60.587 60.587h-199.254v-120.747h199.254c33.28-0.427 60.587 26.88 60.587 60.16z" />
<glyph unicode="&#xe969;" glyph-name="bitcoin-card" d="M741.547 501.333c0 9.387-10.24 21.333-21.333 21.333h-101.547v-42.667h101.547c11.52 0 21.333 9.387 21.333 21.333zM738.987 416h-120.32v-42.667h120.32c15.787 0 29.013 9.813 29.013 21.333s-13.227 21.333-29.013 21.333zM761.6 814.932h-499.2c-97.707 0-177.067-78.933-177.067-176.64v-380.586c0-97.707 79.36-176.64 177.067-176.64h499.2c97.707 0 177.067 78.933 177.067 176.64v380.586c0 97.707-79.36 176.64-177.067 176.64zM394.667 416h-170.667c-17.493 0-32 14.507-32 32s14.507 32 32 32h170.667c17.493 0 32-14.507 32-32s-14.507-32-32-32zM738.987 309.333h-45.227v-21.333c0-17.493-14.507-32-32-32s-32 14.507-32 32v21.333h-85.76c-17.493 0-32 14.507-32 32s14.507 32 32 32h10.667v149.333h-10.667c-17.493 0-32 14.506-32 31.999s14.507 32 32 32h85.76v21.333c0 17.493 14.507 32 32 32s32-14.507 32-32v-21.333h26.027c45.653 0 85.333-39.68 85.333-85.332 0-14.080-3.84-27.307-9.813-39.253 22.187-15.787 36.693-40.107 36.693-67.413 0-46.933-41.813-85.333-93.013-85.333z" />
<glyph unicode="&#xe96a;" glyph-name="bitcoin-convert" d="M981.333 310.613c-17.493 0-32-14.507-32-32 0-126.293-87.893-232.107-206.080-259.84l11.52 19.2c8.96 15.36 4.267 34.987-11.093 43.947-14.933 8.96-34.987 4.267-43.947-11.093l-44.8-74.667c-5.973-9.813-5.973-22.187-0.427-32 5.547-10.24 16.213-16.213 27.733-16.213 182.187 0 330.667 148.48 330.667 330.667 0.427 17.493-14.080 32-31.573 32zM341.333 950.615c-182.187 0-330.667-148.48-330.667-330.667 0-17.493 14.507-32 32-32s32 14.507 32 32c0 126.293 87.893 232.107 206.080 259.84l-11.52-19.2c-8.96-15.36-4.267-34.987 11.093-43.947 14.933-8.96 34.987-4.267 43.947 11.093l44.8 74.667c5.547 9.813 5.973 21.76 0 32-5.547 9.813-16.213 16.213-27.733 16.213zM917.333 590.080c0-131.413-95.573-239.787-220.587-259.84 0 0.427 0 0.427 0 0.853-12.373 159.147-141.227 288.853-302.507 301.653 20.053 125.013 128.427 220.587 259.84 220.587 145.493 0 263.253-117.76 263.253-263.253zM418.56 354.138c0 6.4-7.253 16.213-16.213 16.213h-87.893v-32h87.893c8.96-0.427 16.213 6.827 16.213 15.787zM419.413 273.92h-104.96v-32h105.387c13.653 0 23.040 8.533 23.040 16.213s-9.813 15.787-23.467 15.787zM632.747 326.4c-9.813 129.28-113.067 232.532-242.347 242.346-6.827 0.427-13.227 0.853-20.48 0.853-145.493 0-263.253-117.759-263.253-263.679 0-145.493 117.76-263.253 263.253-263.253s263.68 117.76 263.68 263.253c0 7.253-0.427 13.653-0.853 20.48zM419.413 177.92h-28.16v-16.213c0-17.493-14.507-32-32-32s-32 14.507-32 32v16.213h-44.8c-17.493 0-32 14.507-32 32v192c0 17.493 14.507 32 32 32h44.8v16.213c0 17.493 14.507 32 32 32s32-14.507 32-32v-16.213h11.093c42.667 0 80.213-37.547 80.213-80.213 0-12.373-2.987-23.893-8.107-34.56 19.627-14.507 32-36.693 32-61.44 0-43.947-38.827-79.787-87.040-79.787z" />
<glyph unicode="&#xe96b;" glyph-name="bitcoin-refresh" d="M1003.947 445.867c-12.373 12.373-32.853 12.373-45.227 0l-19.627-19.627v21.76c0 235.52-191.573 427.094-427.093 427.094-130.133 0-251.733-58.453-333.227-160-11.093-13.653-8.96-34.133 5.12-45.227 13.653-10.667 33.707-8.533 44.8 5.12 69.547 86.613 172.8 136.107 283.307 136.107 200.107 0 363.093-162.987 363.093-363.094v-21.333l-19.627 19.627c-12.373 12.373-32.853 12.373-45.227 0s-12.373-32.853 0-45.227l74.24-74.24c2.987-2.987 6.4-5.12 10.24-6.827s8.107-2.56 12.373-2.56c4.267 0 8.107 0.853 12.373 2.56 3.84 1.707 7.253 3.84 10.24 6.827l74.24 74.24c12.373 11.947 12.373 32.427 0 44.8zM840.107 226.129c-13.653 11.093-34.133 8.96-44.8-5.12-69.547-86.613-172.8-136.107-283.307-136.107-200.107 0-363.093 162.987-363.093 363.093v21.333l19.627-19.627c6.4-6.4 14.507-9.387 22.613-9.387s16.213 3.413 22.187 9.813c12.373 12.373 12.373 32.853 0 45.227l-73.813 74.242c-2.987 2.56-6.827 5.12-10.667 6.827-7.68 3.413-16.64 3.413-24.32 0-3.84-1.707-7.253-4.267-10.24-6.827l-74.24-74.242c-12.373-12.373-12.373-32.853 0-45.227s32.853-12.373 45.227 0l19.627 19.627v-21.76c0-235.52 191.573-427.093 427.093-427.093 130.133 0 251.733 58.453 333.227 160 11.093 13.653 8.96 34.133-5.12 45.227zM659.2 463.36c11.52 17.067 17.92 37.12 17.92 59.307 0 56.747-49.92 106.667-106.667 106.667h-34.987v42.667c0 17.493-14.507 32-32 32s-32-14.507-32-32v-42.667h-87.467c-17.493 0-32-14.507-32-32v-298.667c0-17.493 14.507-32 32-32h87.467v-42.667c0-17.493 14.507-32 32-32s32 14.507 32 32v42.667h61.867c64.853 0 117.333 47.787 117.333 106.667 0 37.973-22.187 71.253-55.467 90.027zM416 565.333h154.453c23.467 0 42.667-23.467 42.667-42.667 0-23.467-19.2-42.667-42.667-42.667h-154.453v85.333zM597.333 330.667h-181.333v85.333h181.333c29.44 0 53.333-19.2 53.333-42.667s-23.893-42.667-53.333-42.667z" />
<glyph unicode="&#xe96c;" glyph-name="blend-2" d="M678.4 615.68c-19.2 146.347-144.213 258.987-295.681 258.987-165.12 0-298.667-133.547-298.667-298.667 0-151.467 112.64-276.48 258.987-295.68 12.8-2.133 26.027-2.987 39.68-2.987 4.965 0 9.866 0.128 14.728 0.384 9.402 0.499 13.263 11.733 6.605 18.389-12.373 12.8-12.373 32.853 0 45.227 12.373 12.8 32.855 12.8 45.228 0l33.259-33.259c5.978-5.978 14.95-7.927 22.673-4.489 16.32 7.262 31.757 15.974 46.31 26.044 10.419 7.211 11.081 22.025 2.074 30.933l-21.542 21.303c-12.373 12.373-12.8 32.427 0 45.227 12.373 12.373 32.427 12.8 45.227 0.427l21.696-21.457c8.956-8.853 23.654-8.102 30.822 2.249 9.843 14.221 18.415 29.316 25.455 45.278 3.388 7.68 1.412 16.572-4.523 22.507l-33.344 33.344c-12.373 12.8-12.373 32.853 0 45.227 12.373 12.8 32.853 12.8 45.227 0 6.656-6.658 17.89-2.797 18.385 6.605 0.26 4.862 0.388 9.763 0.388 14.728 0 13.653-0.853 26.88-2.987 39.68zM937.387 320c0-165.12-133.547-298.667-298.667-298.667-125.018 0-232.289 76.8-276.412 186.334-5.342 13.265 6.114 26.999 20.412 26.999 14.933 0 29.013 0.853 43.52 2.987l21.551 2.871c6.588 0.879 13.205-1.361 17.903-6.059l22.413-22.413c6.4-6.4 14.507-9.387 22.613-9.387 8.533 0 16.64 2.987 22.613 9.387 12.8 12.373 12.8 32.853 0 45.227-4.109 4.109-2.82 11.081 2.381 13.675 17.024 8.482 34.466 19.294 50.167 30.963 8.866 6.588 21.312 6.161 29.171-1.6l20.681-20.425c6.4-5.973 14.507-9.387 22.613-9.387s16.64 3.413 22.613 9.813c12.373 12.373 12.373 32.853-0.427 45.227l-20.395 20.143c-7.799 7.701-8.444 20.023-1.988 28.881 11.238 15.411 21.794 32.183 30.182 48.61 2.53 4.945 9.182 6.131 13.107 2.206 6.4-6.4 14.507-9.387 22.613-9.387 8.533 0 16.64 2.987 22.613 9.387 12.8 12.373 12.8 32.853 0 45.227l-22.413 22.413c-4.698 4.698-6.938 11.315-6.059 17.903l2.871 21.551c2.133 14.507 2.987 28.587 2.987 43.52 0 14.292 13.739 25.737 26.987 20.382 109.222-44.142 186.347-151.39 186.347-276.382z" />
<glyph unicode="&#xe96d;" glyph-name="blend" d="M937.387 448c0-141.227-114.773-256-256-256-31.765 0-62.327 5.79-90.406 16.465-13.598 5.171-16.132 22.571-6.669 33.617 48.725 56.849 75.742 129.715 75.742 205.918 0 76.45-27.26 149.576-75.614 205.881-9.498 11.061-6.98 28.521 6.647 33.695 28.053 10.648 58.573 16.424 90.3 16.424 141.227 0 256-114.773 256-256zM596.053 448c0-75.52-32.853-143.787-85.333-190.293-45.227-40.96-104.961-65.707-170.668-65.707-141.227 0-256 114.773-256 256s114.773 256 256 256c65.707 0 125.441-24.747 170.668-65.707 52.48-46.507 85.333-114.773 85.333-190.293z" />
<glyph unicode="&#xe96e;" glyph-name="blogger" d="M597.333 394.667h-170.667c-17.493 0-32-14.507-32-32s14.507-32 32-32h170.667c17.493 0 32 14.507 32 32s-14.507 32-32 32zM426.667 501.333h85.333c17.493 0 32 14.507 32 32s-14.507 32-32 32h-85.333c-17.493 0-32-14.507-32-32s14.507-32 32-32zM690.765 874.667h-357.122c-155.307 0-247.893-92.587-247.893-247.893v-357.12c0-155.307 92.586-247.893 247.893-247.893h357.122c155.307 0 247.893 92.587 247.893 247.893v357.12c0 155.307-92.587 247.893-247.893 247.893zM767.991 320c0-85.333-42.667-128-128-128h-256.002c-85.333 0-128 42.667-128 128v256c0 85.333 42.667 128 128 128h170.668c85.333 0 128-42.667 128-128v-42.667c0-23.467 19.2-42.667 42.667-42.667s42.667-19.2 42.667-42.667v-128z" />
<glyph unicode="&#xe96f;" glyph-name="bluetooth-2" d="M524.8 221.013l98.56 82.347-98.56 89.173v-171.52zM524.8 674.985v-168.962l98.56 90.455-98.56 78.507zM690.773 874.667h-357.547c-155.307 0-247.893-92.587-247.893-247.893v-357.12c0-155.733 92.587-248.32 247.893-248.32h357.12c155.307 0 247.893 92.587 247.893 247.893v357.547c0.427 155.307-92.16 247.893-247.467 247.893zM224 448c0 32.427 26.453 58.88 58.88 58.88s58.453-26.453 58.453-58.88c0-32.427-26.453-58.88-58.88-58.88s-58.453 26.453-58.453 58.88zM664.32 254.293l-102.827-85.76c-17.493-14.933-33.707-19.2-46.080-19.2-9.813 0-17.493 2.56-21.76 4.693-9.813 4.693-32.853 19.627-32.853 61.44v144.64l-123.733-113.067c-12.8-11.947-33.28-11.093-45.227 2.133s-11.093 33.28 2.133 45.227l166.827 152.747v3.413l-166.827 151.040c-13.227 11.947-14.080 32-2.133 45.227 11.947 12.8 32.427 14.080 45.227 2.133l123.733-113.067v144.213c0 41.813 23.040 57.173 32.853 61.44 9.813 4.693 36.267 12.373 68.267-14.507l102.827-85.76c14.080-11.52 22.187-28.16 22.613-45.653s-6.827-34.56-20.053-46.933l-110.933-100.693 110.507-101.12c13.227-12.373 20.907-29.44 20.48-46.933-0.853-17.493-8.96-34.133-23.040-45.653zM741.547 389.12c-32.427 0-58.88 26.453-58.88 58.88s26.453 58.88 58.88 58.88c32.427 0 58.88-26.453 58.88-58.88s-26.88-58.88-58.88-58.88z" />
<glyph unicode="&#xe970;" glyph-name="bluetooth-circle" d="M550.396 508.16l71.253 65.278-71.253 59.307v-124.585zM550.396 263.253l71.253 59.307-71.253 65.28v-124.587zM512 874.667c-235.52 0-426.667-191.147-426.667-426.667s191.147-426.667 426.667-426.667c235.52 0 426.667 191.147 426.667 426.667s-191.147 426.667-426.667 426.667zM670.72 364.8c12.373-11.52 19.2-27.307 18.773-43.52s-8.107-32-20.907-42.667l-88.32-73.813c-16.213-13.653-31.147-17.493-42.667-17.493-9.387 0-16.64 2.56-20.907 4.267-9.387 4.267-30.72 18.347-30.72 57.173v113.92l-98.133-90.027c-12.8-11.947-33.28-11.093-45.227 2.133s-11.093 33.28 2.133 45.227l139.947 128-139.947 128.427c-12.8 11.947-13.653 32-1.707 45.227 11.947 12.8 32.427 14.080 45.227 2.133l98.133-90.453v113.92c0 38.4 21.333 52.48 30.72 57.173 8.96 4.267 33.707 11.52 63.573-12.8l87.893-73.387c12.8-10.667 20.48-26.453 20.907-42.667s-6.4-32.427-18.773-43.52l-91.307-84.053 91.307-83.2z" />
<glyph unicode="&#xe971;" glyph-name="bluetooth-rectangle" d="M550.396 263.253l71.253 59.307-71.253 65.28v-124.587zM550.396 508.16l71.253 65.278-71.253 59.307v-124.585zM640 874.667h-256c-128 0-213.333-85.333-213.333-213.333v-426.667c0-128 85.333-213.333 213.333-213.333h256c128 0 213.333 85.333 213.333 213.333v426.667c0 128-85.333 213.333-213.333 213.333zM670.72 364.8c12.373-11.52 19.2-27.307 18.773-43.52s-8.107-32-20.907-42.667l-88.32-73.813c-16.213-13.653-31.147-17.493-42.667-17.493-9.387 0-16.64 2.56-20.907 4.267-9.387 4.267-30.72 18.347-30.72 57.173v113.92l-98.133-90.027c-12.8-11.947-33.28-11.093-45.227 2.133s-11.093 33.28 2.133 45.227l139.947 128-139.947 128.427c-12.8 11.947-13.653 32-1.707 45.227 11.947 12.8 32.427 14.080 45.227 2.133l98.133-90.453v113.92c0 38.4 21.333 52.48 30.72 57.173 8.96 4.267 33.707 11.947 63.573-12.8l87.893-73.387c12.8-10.667 20.48-26.453 20.907-42.667s-6.4-32.427-18.773-43.52l-91.307-84.053 91.307-83.2z" />
<glyph unicode="&#xe972;" glyph-name="bluetooth" d="M551.676 506.027l99.413 90.879-99.413 79.787v-170.666zM690.773 874.667h-357.547c-155.307 0-247.893-92.587-247.893-247.893v-357.12c0-155.733 92.587-248.32 247.893-248.32h357.12c155.307 0 247.893 92.587 247.893 247.893v357.547c0.427 155.307-92.16 247.893-247.467 247.893zM694.187 346.027c13.227-12.373 20.907-29.44 20.48-46.933s-8.533-34.133-22.613-46.080l-103.253-86.187c-17.92-14.933-34.133-19.2-46.507-19.2-9.813 0-17.493 2.56-21.76 4.693-9.813 4.693-32.853 20.053-32.853 61.867v145.92l-124.587-114.347c-12.8-11.947-33.28-11.093-45.227 2.133s-11.093 33.28 2.133 45.227l167.68 153.6v3.413l-168.107 152.32c-12.8 11.947-13.653 32.427-1.707 45.227s32.427 14.080 45.227 2.133l124.587-114.347v145.92c0 41.813 23.040 57.173 32.853 61.867s36.267 12.373 68.267-14.507l103.253-86.187c14.080-11.52 22.187-28.587 22.613-46.080s-6.827-34.56-20.48-46.933l-110.933-101.547 110.933-101.973zM551.676 219.307l99.413 83.2-99.413 90.027v-173.227z" />
</font>
</defs>
</svg>
