<?xml version="1.0" standalone="no"?>
<!DOCTYPE svg PUBLIC "-//W3C//DTD SVG 1.1//EN" "http://www.w3.org/Graphics/SVG/1.1/DTD/svg11.dtd">
<svg xmlns="http://www.w3.org/2000/svg">
<metadata>Copyright (C) 2021 by original authors @ fontello.com</metadata>
<defs>
<font id="heyu" horiz-adv-x="1000" >
<font-face font-family="heyu" font-weight="400" font-stretch="normal" units-per-em="1000" ascent="850" descent="-150" />
<missing-glyph horiz-adv-x="1000" />
<glyph glyph-name="fi-br-add" unicode="&#xe800;" d="M500 850a500 500 0 1 1 500-500 501 501 0 0 1-500 500z m0-875a375 375 0 1 0 375 375 375 375 0 0 0-375-375z m208 375a63 63 0 0 0-62-62h-83v-84a63 63 0 0 0-125 0v84h-84a63 63 0 0 0 0 125h84v83a63 63 0 0 0 125 0v-83h83a63 63 0 0 0 62-63z" horiz-adv-x="1000" />

<glyph glyph-name="fi-br-alarm-clock" unicode="&#xe801;" d="M563 762v26a63 63 0 0 1-125 0v-26a457 457 0 0 1-301-732 147 147 0 0 1-54-118 63 63 0 0 1 125 0 27 27 0 0 0 19 29 455 455 0 0 1 546 0 27 27 0 0 0 19-29 63 63 0 0 1 125 0 147 147 0 0 1-54 118 457 457 0 0 1-300 732z m-396-454a333 333 0 1 0 333-333 334 334 0 0 0-333 333z m646 542a63 63 0 0 1 0-125 57 57 0 0 0 60-62 63 63 0 0 1 125 0 181 181 0 0 1-185 187z m-686-187a57 57 0 0 0 61 62 63 63 0 0 1 0 125 181 181 0 0 1-186-187 63 63 0 0 1 125 0z m437-329v162a63 63 0 0 1-63 62h0a63 63 0 0 1-62-62v-179a83 83 0 0 1 24-59l75-75a63 63 0 0 1 88 89z" horiz-adv-x="1000" />

<glyph glyph-name="fi-br-align-center" unicode="&#xe802;" d="M63 600h875a63 63 0 0 1 0 125h-875a63 63 0 0 1 0-125z m166-83a63 63 0 0 1 0-125h542a63 63 0 0 1 0 125z m542-417h-542a63 63 0 0 1 0-125h542a63 63 0 0 1 0 125z m167 208h-875a63 63 0 0 1 0-125h875a63 63 0 0 1 0 125z" horiz-adv-x="1000" />

<glyph glyph-name="fi-br-align-justify" unicode="&#xe803;" d="M63 600h875a63 63 0 0 1 0 125h-875a63 63 0 0 1 0-125z m875-83h-875a63 63 0 0 1 0-125h875a63 63 0 0 1 0 125z m0-417h-875a63 63 0 0 1 0-125h875a63 63 0 0 1 0 125z m0 208h-875a63 63 0 0 1 0-125h875a63 63 0 0 1 0 125z" horiz-adv-x="1000" />

<glyph glyph-name="fi-br-align-left" unicode="&#xe804;" d="M63 600h875a63 63 0 0 1 0 125h-875a63 63 0 0 1 0-125z m0-208h541a63 63 0 0 1 0 125h-541a63 63 0 0 1 0-125z m541-292h-541a63 63 0 0 1 0-125h541a63 63 0 0 1 0 125z m334 208h-875a63 63 0 0 1 0-125h875a63 63 0 0 1 0 125z" horiz-adv-x="1000" />

<glyph glyph-name="fi-br-align-right" unicode="&#xe805;" d="M63 600h875a63 63 0 0 1 0 125h-875a63 63 0 0 1 0-125z m875-83h-542a63 63 0 0 1 0-125h542a63 63 0 0 1 0 125z m0-417h-542a63 63 0 0 1 0-125h542a63 63 0 0 1 0 125z m0 208h-875a63 63 0 0 1 0-125h875a63 63 0 0 1 0 125z" horiz-adv-x="1000" />

<glyph glyph-name="fi-br-ambulance" unicode="&#xe806;" d="M959 352l-76 171a271 271 0 0 1-248 160h-19l-22 110a75 75 0 0 1-145 0l-24-110h-196a229 229 0 0 1-229-229v-333a146 146 0 0 1 125-144c0-1 0-1 0-2a125 125 0 0 1 250 0h208a125 125 0 0 1 250 0h21a146 146 0 0 1 146 146v36a476 476 0 0 1-41 195z m-84-231a21 21 0 0 0-21-21h-708a21 21 0 0 0-21 21v333a104 104 0 0 0 104 104h406a144 144 0 0 0 32-3v-205a83 83 0 0 1 83-83h108a352 352 0 0 0 17-110z m-333 208a63 63 0 0 0-63-62h-21v-21a63 63 0 0 0-125 0v21h-20a63 63 0 0 0 0 125h20v21a63 63 0 0 0 125 0v-21h21a63 63 0 0 0 63-63z" horiz-adv-x="1000" />

<glyph glyph-name="fi-br-angle-double-left" unicode="&#xe807;" d="M500-150a62 62 0 0 0-44 18l-320 320a229 229 0 0 0 0 324l320 320a63 63 0 1 0 88-89l-320-319a104 104 0 0 1 0-148l320-319a63 63 0 0 0-44-107z m398 0a63 63 0 0 0-45 18l-378 379a146 146 0 0 0 0 206l378 379a63 63 0 0 0 89-89l-379-378a21 21 0 0 1 0-30l379-378a63 63 0 0 0-44-107z" horiz-adv-x="1000" />

<glyph glyph-name="fi-br-angle-double-right" unicode="&#xe808;" d="M493-150a63 63 0 0 0-44 107l320 319a104 104 0 0 1 0 148l-320 319a63 63 0 0 0 88 89l320-320a229 229 0 0 0 0-324l-320-320a63 63 0 0 0-44-18z m-398 0a63 63 0 0 0-44 107l379 378a21 21 0 0 1 0 30l-379 378a63 63 0 0 0 89 89l378-379a146 146 0 0 0 0-206l-378-379a63 63 0 0 0-45-18z" horiz-adv-x="1000" />

<glyph glyph-name="fi-br-angle-double-small-left" unicode="&#xe809;" d="M437 38a63 63 0 0 0-44 18l-191 191a146 146 0 0 0 0 206l191 191a63 63 0 0 0 88-88l-191-191a21 21 0 0 1 0-30l191-191a63 63 0 0 0-44-106z m291 0a63 63 0 0 0-44 18l-250 250a63 63 0 0 0 0 88l250 250a63 63 0 1 0 89-88l-206-206 206-206a63 63 0 0 0-45-106z" horiz-adv-x="1000" />

<glyph glyph-name="fi-br-angle-double-small-right" unicode="&#xe80a;" d="M546 38a63 63 0 0 0-44 106l191 191a21 21 0 0 1 0 30l-191 191a63 63 0 0 0 88 88l191-191a146 146 0 0 0 0-206l-191-191a63 63 0 0 0-44-18z m-292 0a63 63 0 0 0-44 106l206 206-206 206a63 63 0 0 0 89 88l250-250a63 63 0 0 0 0-88l-250-250a63 63 0 0 0-45-18z" horiz-adv-x="1000" />

<glyph glyph-name="fi-br-angle-down" unicode="&#xe80b;" d="M63 597a62 62 0 0 0 44-19l320-319a104 104 0 0 1 147 0l319 319a63 63 0 1 0 89-88l-319-320a229 229 0 0 0-325 0l-319 320a63 63 0 0 0 44 107z" horiz-adv-x="1000" />

<glyph glyph-name="fi-br-angle-left" unicode="&#xe80c;" d="M747 787a63 63 0 0 0-19-44l-319-319a104 104 0 0 1 0-148l319-319a63 63 0 0 0-88-89l-320 320a229 229 0 0 0 0 324l320 320a63 63 0 0 0 107-45z" horiz-adv-x="1000" />

<glyph glyph-name="fi-br-angle-right" unicode="&#xe80d;" d="M253-88a63 63 0 0 0 19 45l319 319a104 104 0 0 1 0 148l-319 319a63 63 0 0 0 88 89l320-320a229 229 0 0 0 0-324l-320-320a63 63 0 0 0-107 44z" horiz-adv-x="1000" />

<glyph glyph-name="fi-br-angle-small-down" unicode="&#xe80e;" d="M794 523a63 63 0 0 1-88 0l-191-191a21 21 0 0 0-30 0l-191 191a63 63 0 0 1-88-89l191-191a146 146 0 0 1 206 0l191 191a63 63 0 0 1 0 89z" horiz-adv-x="1000" />

<glyph glyph-name="fi-br-angle-small-left" unicode="&#xe80f;" d="M457 335a21 21 0 0 0 0 30l191 191a63 63 0 0 1-89 88l-191-191a146 146 0 0 1 0-206l191-191a63 63 0 0 1 89 88z" horiz-adv-x="1000" />

<glyph glyph-name="fi-br-angle-small-right" unicode="&#xe810;" d="M656 453l-191 191a63 63 0 0 1-88-88l191-191a21 21 0 0 0 0-30l-191-191a63 63 0 0 1 88-88l191 191a146 146 0 0 1 0 206z" horiz-adv-x="1000" />

<glyph glyph-name="fi-br-angle-small-up" unicode="&#xe811;" d="M794 290l-191 191a149 149 0 0 1-206 0l-191-191a63 63 0 0 1 88-88l191 191a21 21 0 0 0 30 0l191-191a63 63 0 0 1 88 88z" horiz-adv-x="1000" />

<glyph glyph-name="fi-br-angle-up" unicode="&#xe812;" d="M938 100a63 63 0 0 0-45 18l-319 320a104 104 0 0 1-148 0l-319-319a63 63 0 0 0-88 88l319 319a229 229 0 0 0 324 0l320-319a63 63 0 0 0-44-107z" horiz-adv-x="1000" />

<glyph glyph-name="fi-br-apps-add" unicode="&#xe813;" d="M604 558h104v-104a63 63 0 0 1 125 0v104h105a63 63 0 0 1 0 125h-105v105a63 63 0 0 1-125 0v-105h-104a63 63 0 0 1 0-125z m-375 292a229 229 0 1 1 229-229 229 229 0 0 1-229 229z m0-333a104 104 0 1 0 104 104 104 104 0 0 0-104-104z m0-209a229 229 0 1 1 229-229 229 229 0 0 1-229 229z m0-333a104 104 0 1 0 104 104 104 104 0 0 0-104-104z m542 333a229 229 0 1 1 229-229 229 229 0 0 1-229 229z m0-333a104 104 0 1 0 104 104 104 104 0 0 0-104-104z" horiz-adv-x="1000" />

<glyph glyph-name="fi-br-apps-delete" unicode="&#xe814;" d="M604 558h334a63 63 0 0 1 0 125h-334a63 63 0 0 1 0-125z m-375 292a229 229 0 1 1 229-229 229 229 0 0 1-229 229z m0-333a104 104 0 1 0 104 104 104 104 0 0 0-104-104z m0-209a229 229 0 1 1 229-229 229 229 0 0 1-229 229z m0-333a104 104 0 1 0 104 104 104 104 0 0 0-104-104z m542 333a229 229 0 1 1 229-229 229 229 0 0 1-229 229z m0-333a104 104 0 1 0 104 104 104 104 0 0 0-104-104z" horiz-adv-x="1000" />

<glyph glyph-name="fi-br-apps-sort" unicode="&#xe815;" d="M229 850a229 229 0 1 1 229-229 229 229 0 0 1-229 229z m0-333a104 104 0 1 0 104 104 104 104 0 0 0-104-104z m0-209a229 229 0 1 1 229-229 229 229 0 0 1-229 229z m0-333a104 104 0 1 0 104 104 104 104 0 0 0-104-104z m712 108h-87v534h87a42 42 0 0 1 30 71l-150 150a42 42 0 0 1-59 0l-149-150a42 42 0 0 1 29-71h87v-534h-87a42 42 0 0 1-29-71l149-150a42 42 0 0 1 59 0l150 150a42 42 0 0 1-30 71z" horiz-adv-x="1000" />

<glyph glyph-name="fi-br-apps" unicode="&#xe816;" d="M229 392a229 229 0 1 0 229 229 229 229 0 0 0-229-229z m0 333a104 104 0 1 1 104-104 104 104 0 0 1-104 104z m542-333a229 229 0 1 0 229 229 229 229 0 0 0-229-229z m0 333a104 104 0 1 1 104-104 104 104 0 0 1-104 104z m-542-875a229 229 0 1 0 229 229 229 229 0 0 0-229-229z m0 333a104 104 0 1 1 104-104 104 104 0 0 1-104 104z m542-333a229 229 0 1 0 229 229 229 229 0 0 0-229-229z m0 333a104 104 0 1 1 104-104 104 104 0 0 1-104 104z" horiz-adv-x="1000" />

<glyph glyph-name="fi-br-archive" unicode="&#xe817;" d="M688 850h-375a229 229 0 0 1-230-229v-542a229 229 0 0 1 230-229h375a229 229 0 0 1 229 229v542a229 229 0 0 1-229 229z m-375-125h375a104 104 0 0 0 104-104v-229h-584v229a104 104 0 0 0 105 104z m375-750h-375a104 104 0 0 0-105 104v188h584v-188a104 104 0 0 0-104-104z" horiz-adv-x="1000" />

<glyph glyph-name="fi-br-arrow-down" unicode="&#xe818;" d="M768 144a63 63 0 0 1-89 0l-115-115-1 759a63 63 0 0 1-63 62h0a63 63 0 0 1-62-62l1-759-116 115a63 63 0 0 1-88-88l163-163a146 146 0 0 1 207 0l163 163a63 63 0 0 1 0 88z" horiz-adv-x="1000" />

<glyph glyph-name="fi-br-arrow-left" unicode="&#xe819;" d="M206 616l-163-163a149 149 0 0 1 0-206l163-163a63 63 0 1 1 88 88l-115 116 760 1a63 63 0 0 1 63 62v0a63 63 0 0 1-63 63l-760-1 115 115a63 63 0 0 1-88 88z" horiz-adv-x="1000" />

<glyph glyph-name="fi-br-arrow-right" unicode="&#xe81a;" d="M797 84l163 163a149 149 0 0 1 0 206l-163 163a63 63 0 0 1-89-88l116-116-760-1a63 63 0 0 1-63-62v0a63 63 0 0 1 63-63l759 1-115-115a63 63 0 0 1 89-88z" horiz-adv-x="1000" />

<glyph glyph-name="fi-br-arrow-small-down" unicode="&#xe81b;" d="M603 101l150 150a63 63 0 0 1-89 88l-101-101 0 341a63 63 0 0 1-125 0l0-341-102 101a63 63 0 0 1-88-88l149-150a146 146 0 0 1 206 0z" horiz-adv-x="1000" />

<glyph glyph-name="fi-br-arrow-small-left" unicode="&#xe81c;" d="M251 247l150-149a63 63 0 0 1 88 88l-101 102 341 0a63 63 0 0 1 0 125l-341 0 101 101a63 63 0 0 1-88 89l-150-150a146 146 0 0 1 0-206z" horiz-adv-x="1000" />

<glyph glyph-name="fi-br-arrow-small-right" unicode="&#xe81d;" d="M749 453l-150 150a63 63 0 1 1-88-89l102-101-342 0a63 63 0 0 1 0-125l342 0-102-102a63 63 0 0 1 88-88l150 149a146 146 0 0 1 0 206z" horiz-adv-x="1000" />

<glyph glyph-name="fi-br-arrow-small-up" unicode="&#xe81e;" d="M397 599l-149-150a63 63 0 0 1 88-88l102 102 0-342a63 63 0 0 1 125 0l0 342 101-102a63 63 0 0 1 89 88l-150 150a146 146 0 0 1-206 0z" horiz-adv-x="1000" />

<glyph glyph-name="fi-br-arrow-up" unicode="&#xe81f;" d="M768 645l-163 164a149 149 0 0 1-207 0l-163-164a63 63 0 0 1 88-88l116 116 1-761a63 63 0 0 1 63-62h0a63 63 0 0 1 62 62l-1 760 115-115a63 63 0 1 1 89 88z" horiz-adv-x="1000" />

<glyph glyph-name="fi-br-asterisk" unicode="&#xe820;" d="M953 230a160 160 0 0 1-76 99h0l-36 21 36 21a159 159 0 0 1 76 99 164 164 0 0 1-19 127 179 179 0 0 1-142 86 163 163 0 0 1-86-21l-39-22v43a167 167 0 0 1-334 0v-43l-39 22a163 163 0 0 1-85 21 180 180 0 0 1-143-87 164 164 0 0 1-19-126 159 159 0 0 1 76-99l37-21-37-21a160 160 0 0 1-76-99 164 164 0 0 1 19-126 179 179 0 0 1 156-87 162 162 0 0 1 72 21l39 23v-44a167 167 0 0 1 334 0v44l39-23a163 163 0 0 1 86-21 180 180 0 0 1 143 87 164 164 0 0 1 18 126z m-129-67a43 43 0 0 0-56-16l-133 75a63 63 0 0 1-93-54v-151a42 42 0 0 0-84 0v151a63 63 0 0 1-93 54l-133-75a43 43 0 0 0-56 16 41 41 0 0 0 9 57l132 76a63 63 0 0 1 0 108l-132 76a45 45 0 0 0-9 57 43 43 0 0 0 56 16l133-75a63 63 0 0 1 93 54v151a42 42 0 0 0 84 0v-151a63 63 0 0 1 93-54l133 75a43 43 0 0 0 57-16 44 44 0 0 0-10-57l-132-76a63 63 0 0 1 0-108l132-76a43 43 0 0 0 9-57z" horiz-adv-x="1000" />

<glyph glyph-name="fi-br-backpack" unicode="&#xe821;" d="M833 261v89a333 333 0 0 1-166 288v45a167 167 0 0 1-334 0v-45a333 333 0 0 1-166-288v-89a166 166 0 0 1-125-161v-83a167 167 0 0 1 166-167h584a167 167 0 0 1 166 167v83a166 166 0 0 1-125 161z m-125-286h-416v11a247 247 0 0 0 416 0z m0 186a371 371 0 0 1-416 0v189a208 208 0 0 0 416 0z m-83 210a63 63 0 0 0-62-63h-125a63 63 0 0 0 0 125h125a63 63 0 0 0 62-62z" horiz-adv-x="1000" />

<glyph glyph-name="fi-br-badge" unicode="&#xe822;" d="M838 517a333 333 0 1 1-588-215v-333a119 119 0 0 1 193-93l57 46 57-46a119 119 0 0 1 193 93v323a332 332 0 0 1 88 225z m-334 208a208 208 0 1 0-208-208 209 209 0 0 0 208 208z m51-687a87 87 0 0 1-110 0l-70-56v228a331 331 0 0 1 250-4v-224z" horiz-adv-x="1000" />

<glyph glyph-name="fi-br-ban" unicode="&#xe823;" d="M500 850a500 500 0 1 1 500-500 501 501 0 0 1-500 500z m0-125a373 373 0 0 0 217-70l-522-522a374 374 0 0 0 305 592z m0-750a373 373 0 0 0-217 70l522 522a374 374 0 0 0-305-592z" horiz-adv-x="1000" />

<glyph glyph-name="fi-br-band-aid" unicode="&#xe824;" d="M458 454a63 63 0 1 0-62 63 63 63 0 0 0 62-63z m146 63a63 63 0 1 1 63-63 63 63 0 0 1-63 63z m-208-209a63 63 0 1 1 62-62 63 63 0 0 1-62 62z m208 0a63 63 0 1 1 63-62 63 63 0 0 1-63 62z m396 146v-208a229 229 0 0 0-229-229h-542a229 229 0 0 0-229 229v208a229 229 0 0 0 229 229h542a229 229 0 0 0 229-229z m-229-312a104 104 0 0 1 21 2v412a104 104 0 0 1-21 2h-542a104 104 0 0 1-21-2v-412a104 104 0 0 1 21-2z" horiz-adv-x="1000" />

<glyph glyph-name="fi-br-bank" unicode="&#xe825;" d="M1000-88a63 63 0 0 0-62-62h-875a63 63 0 0 0 0 125h875a63 63 0 0 0 62-63z m-985 549a126 126 0 0 0 6 130 213 213 0 0 0 74 69l299 163a221 221 0 0 0 213 0l298-163a213 213 0 0 0 74-69 126 126 0 0 0 6-130 130 130 0 0 0-110-69v-209h21a63 63 0 0 0 0-125h-792a63 63 0 0 0 0 125h21v209a130 130 0 0 0-110 69z m235-278h83v209h-83z m208 209v-209h84v209z m292-209v209h-83v-209z m-625 338a6 6 0 0 1 6-4h739a6 6 0 0 1 5 5 89 89 0 0 1-30 28h0l-298 163a97 97 0 0 1-93 0l-299-163a88 88 0 0 1-30-29z" horiz-adv-x="1000" />

<glyph glyph-name="fi-br-barber-shop" unicode="&#xe826;" d="M833 517v-84h105a63 63 0 0 0 0-125h-105v-83h105a63 63 0 0 0 0-125h-105v-188a63 63 0 0 0-125 0v751a188 188 0 0 0 188 187h42a63 63 0 0 0 0-125h-42a63 63 0 0 1-63-62v-21h105a63 63 0 0 0 0-125z m-166-469a197 197 0 0 0-334-144 198 198 0 1 0-241 310c48 59 113 146 167 228-72 119-134 249-134 346a63 63 0 0 0 125 0c0-55 35-137 83-224 49 88 84 169 84 224a63 63 0 0 0 125 0c0-97-62-227-134-345 54-83 119-170 167-229a198 198 0 0 0 92-166z m-396 0a73 73 0 1 1-73-73 73 73 0 0 1 73 73z m62 144a198 198 0 0 0 69 41c-21 28-44 60-69 96-24-36-48-68-68-96a198 198 0 0 0 68-41z m209-144a73 73 0 1 1-73-73 73 73 0 0 1 73 73z" horiz-adv-x="1000" />

<glyph glyph-name="fi-br-baseball" unicode="&#xe827;" d="M500 850a500 500 0 1 1 500-500 501 501 0 0 1-500 500z m301-722a311 311 0 0 0-47 61 62 62 0 0 1-42 117 319 319 0 0 0-4 44 315 315 0 0 0 4 45 61 61 0 0 1 17-3 63 63 0 0 1 25 119 311 311 0 0 0 47 61 372 372 0 0 0 0-444z m-602 444a311 311 0 0 0 48-61 63 63 0 0 1 24-119 61 61 0 0 1 17 3 315 315 0 0 0 4-45 319 319 0 0 0-4-44 62 62 0 0 1-41-117 311 311 0 0 0-48-61 372 372 0 0 0 0 444z m89-531a434 434 0 0 1 79 107l9-3a63 63 0 0 1 40 119l-8 2a443 443 0 0 1 9 84 443 443 0 0 1-9 84l8 3a63 63 0 0 1-40 118l-9-3a434 434 0 0 1-79 107 374 374 0 0 0 424 0 434 434 0 0 1-79-107l-9 3a63 63 0 0 1-40-118l8-3a443 443 0 0 1-9-84 443 443 0 0 1 9-84l-8-2a63 63 0 0 1 40-119l9 3a434 434 0 0 1 79-107 374 374 0 0 0-424 0z" horiz-adv-x="1000" />

<glyph glyph-name="fi-br-basketball" unicode="&#xe828;" d="M500 850a500 500 0 1 1 500-500 501 501 0 0 1-500 500z m-55-644l55 56 217-217a373 373 0 0 0-174-67 496 496 0 0 1-98 228z m111 288l-56-56-217 217a373 373 0 0 0 174 67 497 497 0 0 1 99-228z m-144-144l-56-55a497 497 0 0 1-228 98 372 372 0 0 0 67 174z m176 0l56 56a497 497 0 0 1 228-99 373 373 0 0 0-67-174z m277 85a374 374 0 0 0-280 280 376 376 0 0 0 280-280z m-730-170a374 374 0 0 0 280-280 376 376 0 0 0-280 280z" horiz-adv-x="1000" />

<glyph glyph-name="fi-br-bell-ring" unicode="&#xe829;" d="M9 672a63 63 0 0 0 21 86l136 83a63 63 0 1 0 65-107l-136-83a63 63 0 0 0-86 21z m961-571a63 63 0 0 1-86-21l-83-135a63 63 0 1 1 106-65l84 135a63 63 0 0 1-21 86z m-102 104l-150-245a230 230 0 0 0-170-108 246 246 0 0 0-28-2 229 229 0 0 0-141 49 174 174 0 0 0-248 245l-62 63a231 231 0 0 0-67 191 229 229 0 0 0 108 169l229 141a374 374 0 0 0 419-11l52 51a63 63 0 0 0 88-88l-51-52a377 377 0 0 0 21-403z m-150 363a251 251 0 0 1-313 34l-229-142a105 105 0 0 1-49-77 107 107 0 0 1 30-88l288-289a107 107 0 0 1 167 20l149 242a251 251 0 0 1-43 300z" horiz-adv-x="1000" />

<glyph glyph-name="fi-br-bell-school" unicode="&#xe82a;" d="M396 517a63 63 0 1 0-63-63 63 63 0 0 0 63 63z m458 41a146 146 0 0 1-3-291c-52-149-186-258-369-292a19 19 0 0 0-16 5 21 21 0 0 0-8 16v68a391 391 0 0 1 225 118 63 63 0 0 1-91 86 268 268 0 0 0-196-85 271 271 0 1 0 220 429 63 63 0 1 1 102 73 396 396 0 1 1-385-621v-68a146 146 0 0 1 53-112 144 144 0 0 1 93-34 146 146 0 0 1 25 2c297 54 496 279 496 561a147 147 0 0 1-146 145z" horiz-adv-x="1000" />

<glyph glyph-name="fi-br-bell" unicode="&#xe82b;" d="M940 300l-73 262a394 394 0 0 1-763-20l-57-254a229 229 0 0 1 224-279h17a220 220 0 0 1 423 0h8a229 229 0 0 1 221 291z m-138-125a103 103 0 0 0-83-41h-448a104 104 0 0 0-102 127l57 254a269 269 0 0 0 520 14l73-263a103 103 0 0 0-17-91z" horiz-adv-x="1000" />

<glyph glyph-name="fi-br-billiard" unicode="&#xe82c;" d="M500 600a250 250 0 1 1 250-250 250 250 0 0 1-250 250z m116-220l-83-166a63 63 0 1 0-107 64l32 72h-20a63 63 0 0 0 0 125h125a63 63 0 0 0 53-95z m-116-530a500 500 0 1 0 500 500 501 501 0 0 0-500-500z m0 875a375 375 0 1 1 375-375 375 375 0 0 1-375 375z" horiz-adv-x="1000" />

<glyph glyph-name="fi-br-bold" unicode="&#xe82d;" d="M748 406a291 291 0 0 1-248 444h-292a83 83 0 0 1-83-83v-834a83 83 0 0 1 83-83h417a291 291 0 0 1 123 556z m-456 277h208a125 125 0 0 0 0-250h-208z m333-666h-333v250h333a125 125 0 0 0 0-250z" horiz-adv-x="1000" />

<glyph glyph-name="fi-br-book-alt" unicode="&#xe82e;" d="M918 755a229 229 0 0 1-190 49l-137-28a187 187 0 0 1-91-45 183 183 0 0 1-90 44l-140 30a229 229 0 0 1-270-226v-408a229 229 0 0 1 187-225l242-48a393 393 0 0 1 71-6 402 402 0 0 1 72 6l240 48a229 229 0 0 1 188 225v408a229 229 0 0 1-82 176z m-480-731l-227 45a104 104 0 0 0-86 102v408a105 105 0 0 0 104 104 95 95 0 0 0 17-1l140-29a63 63 0 0 0 52-62z m437 147a104 104 0 0 0-86-102l-226-45v567a63 63 0 0 0 53 62l136 29a104 104 0 0 0 123-103z" horiz-adv-x="1000" />

<glyph glyph-name="fi-br-book" unicode="&#xe82f;" d="M688 850h-334a271 271 0 0 1-271-271v-541a188 188 0 0 1 188-188h417a230 230 0 0 1 229 229v542a230 230 0 0 1-229 229z m-355-127v-498h-62a185 185 0 0 1-63-11v365a146 146 0 0 0 125 144z m459-644a104 104 0 0 0-104-104h-417a63 63 0 0 0 0 125h521z m-334 146v500h230a104 104 0 0 0 104-104v-396z" horiz-adv-x="1000" />

<glyph glyph-name="fi-br-bookmark" unicode="&#xe830;" d="M729 850h-458a230 230 0 0 1-229-229v-624a146 146 0 0 1 252-100l204 217 209-219a146 146 0 0 1 251 100v626a230 230 0 0 1-229 229z m104-855a21 21 0 0 0-35-14l-255 266a63 63 0 0 1-45 20h0a63 63 0 0 1-45-20l-250-264a20 20 0 0 0-23-5 20 20 0 0 0-13 19v624a104 104 0 0 0 104 104h458a104 104 0 0 0 104-104z" horiz-adv-x="1000" />

<glyph glyph-name="fi-br-bowling" unicode="&#xe831;" d="M667 204a63 63 0 1 0-63 63 63 63 0 0 0 63-63z m41 0a63 63 0 1 1 63 63 63 63 0 0 1-63-63z m42 125a63 63 0 1 1-62-62 63 63 0 0 1 62 62z m250-125a354 354 0 0 0-562-286 173 173 0 0 0-136-68h-104a175 175 0 0 0-159 106 483 483 0 0 0-39 195 435 435 0 0 0 76 223 273 273 0 0 1 49 122 797 797 0 0 1-23 99 400 400 0 0 0-19 88 160 160 0 0 0 167 167 160 160 0 0 0 167-167 400 400 0 0 0-19-88 796 796 0 0 1-23-99 136 136 0 0 1 12-50 354 354 0 0 0 613-242z m-792 479c1-4 9-34 15-55 7-27 13-50 18-70h19c4 20 10 43 17 70 6 21 14 51 15 59 0 26-12 38-42 38s-42-12-42-42z m139-677a360 360 0 0 1 28 145 328 328 0 0 1-59 161 529 529 0 0 0-57 121h-18a529 529 0 0 0-57-121 328 328 0 0 1-59-161 359 359 0 0 1 28-145 49 49 0 0 1 45-31h104a49 49 0 0 1 45 31z m528 198a229 229 0 0 1-423 121 366 366 0 0 0 48-174 519 519 0 0 0-12-112 229 229 0 0 1 387 165z" horiz-adv-x="1000" />

<glyph glyph-name="fi-br-box-alt" unicode="&#xe832;" d="M771 850h-542a230 230 0 0 1-229-229v-542a230 230 0 0 1 229-229h542a230 230 0 0 1 229 229v542a230 230 0 0 1-229 229z m102-208h-206v83h104a104 104 0 0 0 102-83z m-415 83h84v-167a42 42 0 0 0-84 0z m-229 0h104v-83h-206a104 104 0 0 0 102 83z m542-750h-542a104 104 0 0 0-104 104v438h214a166 166 0 0 1 322 0h214v-438a104 104 0 0 0-104-104z m21 146a63 63 0 0 0-63-63h-125a63 63 0 0 0 0 125h125a63 63 0 0 0 63-62z" horiz-adv-x="1000" />

<glyph glyph-name="fi-br-box" unicode="&#xe833;" d="M1000 621a229 229 0 0 1-229 229h-542a229 229 0 0 1-229-229v-42a145 145 0 0 1 42-102v-398a229 229 0 0 1 229-229h458a229 229 0 0 1 229 229v398a145 145 0 0 1 42 102z m-875 0a104 104 0 0 0 104 104h542a104 104 0 0 0 104-104v-42a21 21 0 0 0-21-21h-708a21 21 0 0 0-21 21z m708-542a104 104 0 0 0-104-104h-458a104 104 0 0 0-104 104v354h666z" horiz-adv-x="1000" />

<glyph glyph-name="fi-br-briefcase" unicode="&#xe834;" d="M771 725h-27a167 167 0 0 1-161 125h-166a167 167 0 0 1-161-125h-27a229 229 0 0 1-229-229v-417a229 229 0 0 1 229-229h542a230 230 0 0 1 229 229v417a230 230 0 0 1-229 229z m-542-125h542a104 104 0 0 0 104-104v-104h-750v104a104 104 0 0 0 104 104z m542-625h-542a104 104 0 0 0-104 104v188h292a83 83 0 0 1 83-84h0a83 83 0 0 1 83 84h292v-188a104 104 0 0 0-104-104z" horiz-adv-x="1000" />

<glyph glyph-name="fi-br-broom" unicode="&#xe835;" d="M982 775a63 63 0 0 1-88 0l-199-198a230 230 0 0 1-286 16 632 632 0 0 0-170-90l-74-22h0a229 229 0 0 1-146-311 521 521 0 0 1 235-263 598 598 0 0 1 269-57h3a145 145 0 0 1 87 29 626 626 0 0 1 250 395 231 231 0 0 1-66 204l-12 12 197 197a63 63 0 0 1 0 88z m-445-796a19 19 0 0 0-12-4 648 648 0 0 0-130 13 482 482 0 0 1 141 136l21 30a63 63 0 1 1-104 70l-20-30a357 357 0 0 0-135-117l-43-22a379 379 0 0 0-65 67 485 485 0 0 1 156 102 63 63 0 0 1-88 89 359 359 0 0 0-128-80 103 103 0 0 0 70 129l75 21a716 716 0 0 1 180 90l263-257a523 523 0 0 0-181-237z" horiz-adv-x="1000" />

<glyph glyph-name="fi-br-browser" unicode="&#xe836;" d="M208 371a63 63 0 0 0 63 62h458a63 63 0 0 0 0-125h-458a63 63 0 0 0-63 63z m63-271h292a63 63 0 0 1 0 125h-292a63 63 0 0 1 0-125z m729 479v-458a229 229 0 0 0-229-229h-542a229 229 0 0 0-229 229v458a229 229 0 0 0 229 229h542a229 229 0 0 0 229-229z m-667 84a63 63 0 1 1 63 62 63 63 0 0 1-63-62z m-208 0a63 63 0 1 1 63 62 63 63 0 0 1-63-62z m750-146h-750v-396a104 104 0 0 1 104-104h542a104 104 0 0 1 104 104z" horiz-adv-x="1000" />

<glyph glyph-name="fi-br-brush" unicode="&#xe837;" d="M771 850h-542a230 230 0 0 1-229-229v-208a313 313 0 0 1 313-313h20v-83a167 167 0 0 1 334 0v83h21a313 313 0 0 1 312 313v208a230 230 0 0 1-229 229z m-542-125h21v-21a63 63 0 0 1 125 0v21h83v-104a63 63 0 0 1 125 0v104h84v-187a63 63 0 0 1 125 0v185a104 104 0 0 0 83-102v-188h-750v188a104 104 0 0 0 104 104z m459-500h-84a63 63 0 0 1-62-62v-146a42 42 0 0 0-84 0v146a63 63 0 0 1-62 62h-83a188 188 0 0 0-156 83h686a188 188 0 0 0-155-83z" horiz-adv-x="1000" />

<glyph glyph-name="fi-br-bug" unicode="&#xe838;" d="M898 558a102 102 0 0 1 102 103v127a63 63 0 0 1-62 62h0a63 63 0 0 1-63-62v-105h-141a278 278 0 0 1-468 0h-141v105a63 63 0 0 1-62 62h0a63 63 0 0 1-63-62v-127a103 103 0 0 1 102-103h117l-42-166h-114a63 63 0 0 1-63-63h0a63 63 0 0 1 63-62h86c-1-9-2-17-2-26a352 352 0 0 1 15-99h-60a102 102 0 0 1-102-103v-127a63 63 0 0 1 63-62h0a63 63 0 0 1 62 62v105h103a353 353 0 0 1 544 0h103v-105a63 63 0 0 1 63-62h0a63 63 0 0 1 62 62v127a103 103 0 0 1-102 103h-60a352 352 0 0 1 15 99c0 9-1 17-2 26h87a63 63 0 0 1 62 62h0a63 63 0 0 1-62 63h-115l-42 166z m-398-545a228 228 0 0 0-228 228 222 222 0 0 0 2 25l81 320a155 155 0 0 0 290 0l81-320a222 222 0 0 0 2-25 228 228 0 0 0-228-228z" horiz-adv-x="1000" />

<glyph glyph-name="fi-br-building" unicode="&#xe839;" d="M771 642h-105a229 229 0 0 1-228 208h-209a229 229 0 0 1-229-229v-542a229 229 0 0 1 229-229h542a229 229 0 0 1 229 229v334a229 229 0 0 1-229 229z m-646-563v542a104 104 0 0 0 104 104h209a104 104 0 0 0 104-104v-646h-313a104 104 0 0 0-104 104z m750 0a104 104 0 0 0-104-104h-104v542h104a104 104 0 0 0 104-104z m-42 292a63 63 0 1 0-62 62 63 63 0 0 0 62-62z m0-208a63 63 0 1 0-62 62 63 63 0 0 0 62-62z m-541 416a63 63 0 1 0-63 63 63 63 0 0 0 63-63z m0-208a63 63 0 1 0-63 62 63 63 0 0 0 63-62z m208 208a63 63 0 1 0-62 63 63 63 0 0 0 62-63z m0-208a63 63 0 1 0-62 62 63 63 0 0 0 62-62z m-208-208a63 63 0 1 0-63 62 63 63 0 0 0 63-62z m208 0a63 63 0 1 0-62 62 63 63 0 0 0 62-62z" horiz-adv-x="1000" />

<glyph glyph-name="fi-br-bulb" unicode="&#xe83a;" d="M747 755a368 368 0 0 1-291 93 382 382 0 0 1-212-657c40-37 48-91 48-165v-6a169 169 0 0 1 167-170h82a169 169 0 0 1 167 170v21c0 70 7 113 40 143a384 384 0 0 1 0 571z m-164-735a44 44 0 0 0-42-45h-82a44 44 0 0 0-42 45v6c0 11 0 22-1 32h168c0-5-1-11-1-17z m81 257a221 221 0 0 1-62-94h-39v205a125 125 0 0 1 62 108 63 63 0 0 1-125 0 63 63 0 0 1-125 0 125 125 0 0 1 63-108v-205h-44a253 253 0 0 1-64 99 258 258 0 0 0-78 221 254 254 0 0 0 219 220 250 250 0 0 0 29 2 244 244 0 0 0 164-63 259 259 0 0 0 0-385z" horiz-adv-x="1000" />

<glyph glyph-name="fi-br-calculator" unicode="&#xe83b;" d="M771-150h-542a229 229 0 0 0-229 229v542a229 229 0 0 0 229 229h542a229 229 0 0 0 229-229v-542a229 229 0 0 0-229-229z m-542 875a104 104 0 0 1-104-104v-542a104 104 0 0 1 104-104h542a104 104 0 0 1 104 104v542a104 104 0 0 1-104 104z m563-167h0a83 83 0 0 1-84 84h-416a83 83 0 0 1-84-84h0a83 83 0 0 1 84-83h416a83 83 0 0 1 84 83z m-521-187a63 63 0 1 1 62-63 63 63 0 0 1-62 63z m208 0a63 63 0 1 1 63-63 63 63 0 0 1-63 63z m-208-188a63 63 0 1 1 62-62 63 63 0 0 1-62 62z m208 0a63 63 0 1 1 63-62 63 63 0 0 1-63 62z m313-62a63 63 0 0 1-63 62h-41a63 63 0 0 1 0-125h41a63 63 0 0 1 63 63z m0 187a63 63 0 0 1-63 63h-41a63 63 0 0 1 0-125h41a63 63 0 0 1 63 62z" horiz-adv-x="1000" />

<glyph glyph-name="fi-br-calendar" unicode="&#xe83c;" d="M771 767h-21v21a63 63 0 0 1-62 62h0a63 63 0 0 1-63-62v-21h-250v21a63 63 0 0 1-62 62h0a63 63 0 0 1-63-62v-21h-21a229 229 0 0 1-229-229v-459a229 229 0 0 1 229-229h542a229 229 0 0 1 229 229v459a229 229 0 0 1-229 229z m0-792h-542a104 104 0 0 0-104 104v354h750v-354a104 104 0 0 0-104-104z" horiz-adv-x="1000" />

<glyph glyph-name="fi-br-camera" unicode="&#xe83d;" d="M781 683l-104 135a83 83 0 0 1-66 32h-222a83 83 0 0 1-66-32l-104-135a229 229 0 0 1-219-229v-375a229 229 0 0 1 229-229h542a229 229 0 0 1 229 229v375a229 229 0 0 1-219 229z m94-604a104 104 0 0 0-104-104h-542a104 104 0 0 0-104 104v375a104 104 0 0 0 104 104h542a104 104 0 0 0 104-104z m-375 417a229 229 0 1 1 229-229 229 229 0 0 1-229 229z m0-333a104 104 0 1 0 104 104 104 104 0 0 0-104-104z" horiz-adv-x="1000" />

<glyph glyph-name="fi-br-caret-down" unicode="&#xe83e;" d="M267 475h466a42 42 0 0 0 29-71l-232-233a42 42 0 0 0-59 0l-233 233a42 42 0 0 0 29 71z" horiz-adv-x="1000" />

<glyph glyph-name="fi-br-caret-left" unicode="&#xe83f;" d="M554 76l-233 232a42 42 0 0 0 0 59l233 233a42 42 0 0 0 71-29v-466a42 42 0 0 0-71-29z" horiz-adv-x="1000" />

<glyph glyph-name="fi-br-caret-right" unicode="&#xe840;" d="M375 105v466a42 42 0 0 0 71 29l233-233a42 42 0 0 0 0-59l-233-232a42 42 0 0 0-71 29z" horiz-adv-x="1000" />

<glyph glyph-name="fi-br-caret-up" unicode="&#xe841;" d="M267 201h466a42 42 0 0 1 29 71l-232 233a42 42 0 0 1-59 0l-233-233a42 42 0 0 1 29-71z" horiz-adv-x="1000" />

<glyph glyph-name="fi-br-check" unicode="&#xe842;" d="M325-43a106 106 0 0 0-75 31l-227 227a63 63 0 0 0 0 88h0a63 63 0 0 0 89 0l213-213 565 565a63 63 0 0 0 88 0h0a63 63 0 0 0 0-89l-578-578a106 106 0 0 0-75-31z" horiz-adv-x="1000" />

<glyph glyph-name="fi-br-checkbox" unicode="&#xe843;" d="M771-150h-542a229 229 0 0 0-229 229v542a229 229 0 0 0 229 229h542a229 229 0 0 0 229-229v-542a229 229 0 0 0-229-229z m-542 875a104 104 0 0 1-104-104v-542a104 104 0 0 1 104-104h542a104 104 0 0 1 104 104v542a104 104 0 0 1-104 104z m174-616a98 98 0 0 0-70 29l-125 124a63 63 0 0 0 0 89h0a63 63 0 0 0 89 0l106-106 300 300a63 63 0 0 0 89 0h0a63 63 0 0 0 0-88l-319-319a98 98 0 0 0-70-29z" horiz-adv-x="1000" />

<glyph glyph-name="fi-br-chess" unicode="&#xe844;" d="M813-25h-21v27a188 188 0 0 1-58 135 348 348 0 0 0-106 255h39a63 63 0 0 1 0 125h-30a165 165 0 0 1 31 96 439 439 0 0 1-70 184 114 114 0 0 1-97 53h0a114 114 0 0 1-96-53 439 439 0 0 1-71-184 165 165 0 0 1 32-96h-12a63 63 0 0 1 0-125h19a349 349 0 0 0-107-255 188 188 0 0 1-58-135v-27h-20a63 63 0 0 1 0-125h625a63 63 0 0 1 0 125z m-311 417a483 483 0 0 1 134-334h-272a483 483 0 0 1 135 334z" horiz-adv-x="1000" />

<glyph glyph-name="fi-br-circle-small" unicode="&#xe845;" d="M500 663a313 313 0 1 1 313-313 313 313 0 0 1-313 313z m0-500a188 188 0 1 0 188 187 188 188 0 0 0-188-187z" horiz-adv-x="1000" />

<glyph glyph-name="fi-br-circle" unicode="&#xe846;" d="M500 850a500 500 0 1 1 500-500 501 501 0 0 1-500 500z m0-875a375 375 0 1 0 375 375 375 375 0 0 0-375-375z" horiz-adv-x="1000" />

<glyph glyph-name="fi-br-clip" unicode="&#xe847;" d="M426-147a383 383 0 0 0-269 109 396 396 0 0 0 7 556l241 241a283 283 0 0 0 371 31 277 277 0 0 0 27-415l-252-253a180 180 0 0 0-107-54 169 169 0 0 0-146 57 180 180 0 0 0 14 238l192 192a63 63 0 0 0 89 0h0a63 63 0 0 0 0-88l-199-199a45 45 0 0 1 63-63l255 255a155 155 0 0 1 23 193 152 152 0 0 1-235 25l-251-252a265 265 0 0 1-29-347 260 260 0 0 1 389-25l199 198a63 63 0 0 0 88 0h0a63 63 0 0 0 0-88l-199-199a383 383 0 0 0-271-112z" horiz-adv-x="1000" />

<glyph glyph-name="fi-br-clock" unicode="&#xe848;" d="M500 850a500 500 0 1 1 500-500 501 501 0 0 1-500 500z m0-875a375 375 0 1 0 375 375 375 375 0 0 0-375-375z m-62 414l-100-62a63 63 0 0 1-20-86h0a63 63 0 0 1 86-20l119 75a83 83 0 0 1 40 71v159a63 63 0 0 1-63 63h0a63 63 0 0 1-62-63z" horiz-adv-x="1000" />

<glyph glyph-name="fi-br-cloud-check" unicode="&#xe849;" d="M486-150a145 145 0 0 0-103 43l-141 142a63 63 0 0 0 89 88l141-142a21 21 0 0 1 29 0l226 226a63 63 0 0 0 88-89l-225-226a145 145 0 0 0-104-42z m-399 213a64 64 0 0 1 42 79 115 115 0 0 0 60 131 103 103 0 0 1 42 140 213 213 0 0 0-19 138 211 211 0 0 0 176 170 217 217 0 0 0 163-41 213 213 0 0 0 83-143 63 63 0 0 1 54-53 215 215 0 0 0 186-231l0-3a61 61 0 0 1 58-65 64 64 0 0 1 67 59 340 340 0 0 1-250 355 337 337 0 0 1-123 180 341 341 0 0 1-256 66 336 336 0 0 1-281-271 338 338 0 0 1 23-201 240 240 0 0 1-104-262l2-8a60 60 0 0 1 58-43 66 66 0 0 1 19 3z" horiz-adv-x="1000" />

<glyph glyph-name="fi-br-cloud-disabled" unicode="&#xe84a;" d="M920 18a316 316 0 0 1 79 186 338 338 0 0 1-240 352 20 20 0 0 0-13 14 341 341 0 0 1-540 163l-99 99a63 63 0 0 1-89-89l875-875a63 63 0 0 1 89 89z m-532 663a216 216 0 0 0 238-149 146 146 0 0 1 97-96 214 214 0 0 0 151-222 190 190 0 0 0-43-107l-535 536a211 211 0 0 0 92 38z m279-727a63 63 0 0 0-63-62h-355a253 253 0 0 0-246 205 240 240 0 0 0 95 228 19 19 0 0 1 4 22 332 332 0 0 0-15 53 63 63 0 1 0 122 25 210 210 0 0 1 10-33 142 142 0 0 0-47-168 114 114 0 0 1-46-109 129 129 0 0 1 123-98h355a63 63 0 0 0 63-63z" horiz-adv-x="1000" />

<glyph glyph-name="fi-br-cloud-download" unicode="&#xe84b;" d="M999 204a318 318 0 0 0-29-110 63 63 0 1 0-113 53 193 193 0 0 1 17 67 215 215 0 0 1-186 230 63 63 0 0 0-54 53 213 213 0 0 1-83 143 217 217 0 0 1-163 41 211 211 0 0 1-176-171 213 213 0 0 1 19-137 104 104 0 0 0-42-140 115 115 0 0 1-60-131 122 122 0 0 1 120-85h105a63 63 0 0 0 0-125h-105a245 245 0 0 0-241 178 240 240 0 0 0 104 263 338 338 0 0 0 514 407 342 342 0 0 0 123-181 340 340 0 0 0 250-355z m-225-146h-66v188a63 63 0 0 1-125 0v-188h-65a40 40 0 0 1-28-69l127-127a40 40 0 0 1 57 0l128 127a40 40 0 0 1-28 69z" horiz-adv-x="1000" />

<glyph glyph-name="fi-br-cloud-share" unicode="&#xe84c;" d="M1000-25a125 125 0 0 0-250-1l-104 60a124 124 0 0 0-63-17 125 125 0 0 0 0 250 124 124 0 0 0 63-18l104 60a125 125 0 1 0 125-126 124 124 0 0 0-62 18l-104-59 104-59a124 124 0 0 0 62 17 125 125 0 0 0 125-125z m-612 748a217 217 0 0 0 163-42 213 213 0 0 0 83-142 63 63 0 0 1 54-54 216 216 0 0 0 42-9 63 63 0 0 1 40 118q-10 3-21 6a341 341 0 0 1-379 246 336 336 0 0 1-281-270 338 338 0 0 1 23-201 240 240 0 0 1-104-263 245 245 0 0 1 241-179h105a63 63 0 0 1 0 125h-105a122 122 0 0 0-120 85 115 115 0 0 0 60 132 103 103 0 0 1 42 140 213 213 0 0 0-19 137 211 211 0 0 0 176 171z" horiz-adv-x="1000" />

<glyph glyph-name="fi-br-cloud-upload" unicode="&#xe84d;" d="M934 433a345 345 0 0 1-185 128 341 341 0 0 1-405 243 341 341 0 0 1-236-470 241 241 0 0 1-100-263 244 244 0 0 1 240-179h106a63 63 0 0 1 63 62h0a63 63 0 0 1-63 63h-106a121 121 0 0 0-119 85 117 117 0 0 0 84 143 63 63 0 0 1 34 98 217 217 0 0 0-34 190 213 213 0 0 0 155 148 233 233 0 0 0 52 6 214 214 0 0 0 130-43 217 217 0 0 0 84-144 63 63 0 0 1 54-54 218 218 0 0 0 145-87 215 215 0 0 0 39-164 210 210 0 0 0-94-139 63 63 0 0 1-28-52h0a63 63 0 0 1 96-54 334 334 0 0 1 149 223 339 339 0 0 1-61 260z m-288-521v230h69a42 42 0 0 1 30 71l-132 132a42 42 0 0 1-59 0l-132-132a42 42 0 0 1 30-71h69v-230a63 63 0 0 1 125 0z" horiz-adv-x="1000" />

<glyph glyph-name="fi-br-cloud" unicode="&#xe84e;" d="M934 433a345 345 0 0 1-185 128 344 344 0 0 1-123 182 341 341 0 0 1-518-409 241 241 0 0 1-100-263 244 244 0 0 1 240-179h401a345 345 0 0 1 346 281 339 339 0 0 1-61 260z m-62-238a224 224 0 0 0-223-178h-401a121 121 0 0 0-119 85 117 117 0 0 0 84 143 63 63 0 0 1 34 98 216 216 0 0 0 141 342 229 229 0 0 0 32 2 214 214 0 0 0 130-43 217 217 0 0 0 84-144 63 63 0 0 1 54-54 218 218 0 0 0 145-87 215 215 0 0 0 39-164z" horiz-adv-x="1000" />

<glyph glyph-name="fi-br-comment-alt" unicode="&#xe84f;" d="M771 850h-542a230 230 0 0 1-229-229v-375a230 230 0 0 1 229-229h60l171-143a63 63 0 0 1 80 0l171 143h60a230 230 0 0 1 229 229v375a230 230 0 0 1-229 229z m104-604a104 104 0 0 0-104-104h-83a63 63 0 0 1-40-15l-148-124-148 124a63 63 0 0 1-40 15h-83a104 104 0 0 0-104 104v375a104 104 0 0 0 104 104h542a104 104 0 0 0 104-104z m-562 229h125a63 63 0 0 1 0 125h-125a63 63 0 0 1 0-125z m375-83h-375a63 63 0 0 1 0-125h375a63 63 0 0 1 0 125z" horiz-adv-x="1000" />

<glyph glyph-name="fi-br-comment" unicode="&#xe850;" d="M1000 381a501 501 0 1 1-499-531h270a230 230 0 0 1 229 229v299z m-125-302a104 104 0 0 0-104-104h-270a377 377 0 0 0-281 126 372 372 0 0 0-92 293 377 377 0 0 0 324 328 395 395 0 0 0 49 3 372 372 0 0 0 239-86 377 377 0 0 0 135-263z m-479 313h125a63 63 0 0 1 0 125h-125a63 63 0 0 1 0-125z m292-84h-292a63 63 0 0 1 0-125h292a63 63 0 0 1 0 125z" horiz-adv-x="1000" />

<glyph glyph-name="fi-br-compress-alt" unicode="&#xe851;" d="M304 763l-64-64-133 133a63 63 0 0 1-89-89l133-133-64-64a42 42 0 0 1 30-71h198a60 60 0 0 1 60 60v198a42 42 0 0 1-71 30z m392-826l64 64 133-133a63 63 0 1 1 89 89l-133 133 64 64a42 42 0 0 1-30 71h-198a60 60 0 0 1-60-60v-198a42 42 0 0 1 71-30z m-609 217l64-64-133-133a63 63 0 1 1 89-89l133 133 64-64a42 42 0 0 1 71 30v198a60 60 0 0 1-60 60h-198a42 42 0 0 1-30-71z m826 392l-64 64 133 133a63 63 0 1 1-89 89l-133-133-64 64a42 42 0 0 1-71-30v-198a60 60 0 0 1 60-60h198a42 42 0 0 1 30 71z" horiz-adv-x="1000" />

<glyph glyph-name="fi-br-compress" unicode="&#xe852;" d="M375 746a271 271 0 0 0-271-271h-41a63 63 0 0 0 0 125h41a146 146 0 0 1 146 146v42a63 63 0 0 0 125 0z m313-896a63 63 0 0 0-63 62v42a271 271 0 0 0 271 271h42a63 63 0 0 0 0-125h-42a146 146 0 0 1-146-146v-42a63 63 0 0 0-62-62z m250 625h-42a271 271 0 0 0-271 271v42a63 63 0 0 0 125 0v-42a146 146 0 0 1 146-146h42a63 63 0 0 0 0-125z m-625-625a63 63 0 0 0-63 62v42a146 146 0 0 1-146 146h-41a63 63 0 0 0 0 125h41a271 271 0 0 0 271-271v-42a63 63 0 0 0-62-62z" horiz-adv-x="1000" />

<glyph glyph-name="fi-br-computer" unicode="&#xe853;" d="M771 850h-542a229 229 0 0 1-229-229v-333a229 229 0 0 1 229-230h209v-83h-105a63 63 0 0 1 0-125h334a63 63 0 0 1 0 125h-104v83h208a229 229 0 0 1 229 230v333a229 229 0 0 1-229 229z m-542-125h542a104 104 0 0 0 104-104v-313h-750v313a104 104 0 0 0 104 104z" horiz-adv-x="1000" />

<glyph glyph-name="fi-br-cookie" unicode="&#xe854;" d="M998 399a63 63 0 0 1-57 56 375 375 0 0 0-337 337 63 63 0 0 1-56 57c-16 1-32 2-48 2a500 500 0 1 1 500-500c0 16-1 32-2 48z m-498-423a375 375 0 0 0-12 750 500 500 0 0 1 387-387 375 375 0 0 0-375-363z" horiz-adv-x="1000" />

<glyph glyph-name="fi-br-copy-alt" unicode="&#xe855;" d="M750 288v247a269 269 0 0 1-79 191l-45 45a269 269 0 0 1-192 79h-121a229 229 0 0 1-230-229v-333a229 229 0 0 1 230-230h208a229 229 0 0 1 229 230z m-542 0v333a104 104 0 0 0 105 104h122a146 146 0 0 0 23-2v-81a83 83 0 0 1 84-84h81a146 146 0 0 0 2-23v-247a104 104 0 0 0-104-105h-208a104 104 0 0 0-105 105z m750 208v-417a229 229 0 0 0-229-229h-333a63 63 0 0 0 0 125h333a104 104 0 0 1 104 104v417a63 63 0 0 0 125 0z" horiz-adv-x="1000" />

<glyph glyph-name="fi-br-copy" unicode="&#xe856;" d="M563 58h-334a229 229 0 0 0-229 230v333a229 229 0 0 0 229 229h334a229 229 0 0 0 229-229v-333a229 229 0 0 0-229-230z m-334 667a104 104 0 0 1-104-104v-333a104 104 0 0 1 104-105h334a104 104 0 0 1 104 105v333a104 104 0 0 1-104 104z m771-646v479a63 63 0 0 1-125 0v-479a104 104 0 0 0-104-104h-479a63 63 0 0 1 0-125h479a229 229 0 0 1 229 229z" horiz-adv-x="1000" />

<glyph glyph-name="fi-br-copyright" unicode="&#xe857;" d="M500 850a500 500 0 1 1 500-500 501 501 0 0 1-500 500z m0-875a375 375 0 1 0 375 375 376 376 0 0 0-375-375z m108 486a63 63 0 0 1 89 89 282 282 0 1 1 0-399 63 63 0 0 1-89 88 157 157 0 1 0 0 222z" horiz-adv-x="1000" />

<glyph glyph-name="fi-br-cream" unicode="&#xe858;" d="M917 377v77a146 146 0 0 1-127 144 529 529 0 0 1-67 235 41 41 0 0 1-71-6 164 164 0 0 0-154-102h-81c-129 0-178-71-197-126a146 146 0 0 1-137-145v-77a146 146 0 0 1-83-131v-167a230 230 0 0 1 229-229h542a230 230 0 0 1 229 229v167a146 146 0 0 1-83 131z m-688 98h542a21 21 0 0 0 21-21v-62h-584v62a21 21 0 0 0 21 21z m646-396a104 104 0 0 0-104-104h-542a104 104 0 0 0-104 104v167a21 21 0 0 0 21 21h708a21 21 0 0 0 21-21z" horiz-adv-x="1000" />

<glyph glyph-name="fi-br-credit-card" unicode="&#xe859;" d="M771 725h-542c-125 0-229-104-229-229v-292c0-125 104-229 229-229h542c125 0 229 104 229 229v292c0 125-104 229-229 229z m-542-125h542c50 0 92-33 100-83h-742c9 50 50 83 100 83z m542-500h-542c-58 0-104 46-104 104v188h750v-188c0-58-46-104-104-104z" horiz-adv-x="1000" />

<glyph glyph-name="fi-br-cross-circle" unicode="&#xe85a;" d="M669 519a63 63 0 0 1-88 0l-81-81-81 81a63 63 0 0 1-88-88l81-81-81-81a63 63 0 0 1 88-88l81 81 81-81a63 63 0 0 1 88 88l-81 81 81 81a63 63 0 0 1 0 88z m-169 331a500 500 0 1 1 500-500 501 501 0 0 1-500 500z m0-875a375 375 0 1 0 375 375 375 375 0 0 0-375-375z" horiz-adv-x="1000" />

<glyph glyph-name="fi-br-cross-small" unicode="&#xe85b;" d="M588 350l162 162a63 63 0 0 1-88 88l-162-162-162 163a63 63 0 1 1-88-89l162-162-162-162a63 63 0 1 1 88-88l162 162 162-162a63 63 0 0 1 88 88z" horiz-adv-x="1000" />

<glyph glyph-name="fi-br-cross" unicode="&#xe85c;" d="M588 350l394 393a63 63 0 0 1-89 89l-393-394-393 394a63 63 0 0 1-89-89l394-393-394-393a63 63 0 0 1 89-89l393 394 393-394a63 63 0 0 1 89 89z" horiz-adv-x="1000" />

<glyph glyph-name="fi-br-crown" unicode="&#xe85d;" d="M961 690a63 63 0 0 1-68-14l-154-154-195 194a63 63 0 0 1-88 0l-195-194-154 154a63 63 0 0 1-107-44v-469a230 230 0 0 1 229-230h542a230 230 0 0 1 229 230v469a63 63 0 0 1-39 58z m-86-527a104 104 0 0 0-104-105h-542a104 104 0 0 0-104 105v318l92-92a63 63 0 0 1 89 0l194 195 195-195a63 63 0 0 1 88 0l92 92z" horiz-adv-x="1000" />

<glyph glyph-name="fi-br-cursor-finger" unicode="&#xe85e;" d="M732 473l-149 30v180a167 167 0 0 1-333 0v-185l-155-188a221 221 0 0 1 11-299l92-93a231 231 0 0 1 162-68h328a229 229 0 0 1 229 229v169a230 230 0 0 1-185 225z m60-394a104 104 0 0 0-104-104h-328a105 105 0 0 0-74 31l-91 93a96 96 0 0 0-4 130l59 72v-138a63 63 0 0 1 125 0v520a42 42 0 0 0 83 0v-232a63 63 0 0 1 51-61l199-40a105 105 0 0 0 84-102z" horiz-adv-x="1000" />

<glyph glyph-name="fi-br-cursor-plus" unicode="&#xe85f;" d="M646 558a354 354 0 1 1 354-354 355 355 0 0 1-354 354z m0-583a229 229 0 1 0 229 229 230 230 0 0 0-229-229z m125 292a63 63 0 0 0 0-125h-63v-63a63 63 0 0 0-125 0v63h-62a63 63 0 0 0 0 125h62v62a63 63 0 0 0 125 0v-62z m-448 260l-77-154a42 42 0 0 0-38-23h0a42 42 0 0 0-38 24l-164 362a84 84 0 0 0 19 90 83 83 0 0 0 85 20 37 37 0 0 0 4-2l362-164a42 42 0 0 0 1-75z" horiz-adv-x="1000" />

<glyph glyph-name="fi-br-cursor-text-alt" unicode="&#xe860;" d="M917 110v480a135 135 0 1 1-177 177h-480a135 135 0 1 1-177-177v-479a135 135 0 1 1 177-178h480a135 135 0 1 1 177 177z m-709-11v502a136 136 0 0 1 41 41h502a136 136 0 0 1 41-41v-502a136 136 0 0 1-41-41h-502a136 136 0 0 1-41 41z m355 168v-21a21 21 0 0 1 20-21h21a63 63 0 0 0 0-125h-21a145 145 0 0 0-83 27 145 145 0 0 0-83-27h-21a63 63 0 0 0 0 125h21a21 21 0 0 1 21 21v21h0a63 63 0 0 0 0 125h0v62a21 21 0 0 1-21 21h-21a63 63 0 0 0 0 125h21a145 145 0 0 0 83-26 145 145 0 0 0 83 26h21a63 63 0 0 0 0-125h-21a21 21 0 0 1-20-21v-62h0a63 63 0 0 0 0-125z" horiz-adv-x="1000" />

<glyph glyph-name="fi-br-cursor-text" unicode="&#xe861;" d="M729-25h-62a104 104 0 0 0-104 104v104h125a63 63 0 0 1 0 125h-125v313a104 104 0 0 0 104 104h62a63 63 0 0 1 0 125h-62a229 229 0 0 1-167-72 229 229 0 0 1-167 72h-62a63 63 0 0 1 0-125h62a104 104 0 0 0 105-104v-313h-125a63 63 0 0 1 0-125h125v-104a104 104 0 0 0-105-104h-62a63 63 0 0 1 0-125h62a229 229 0 0 1 167 72 229 229 0 0 1 167-72h62a63 63 0 0 1 0 125z" horiz-adv-x="1000" />

<glyph glyph-name="fi-br-cursor" unicode="&#xe862;" d="M855 396l-452 419a142 142 0 0 1-236-107v-629a63 63 0 0 1 105-46l153 142 121-267a106 106 0 0 1 190 97l-117 255 202 28a63 63 0 0 1 34 108z m-394-32a62 62 0 0 1-34-16l-135-126v486a16 16 0 0 0 10 16 19 19 0 0 0 7 2 14 14 0 0 0 10-4l354-328z" horiz-adv-x="1000" />

<glyph glyph-name="fi-br-dart" unicode="&#xe863;" d="M801 850h-80a198 198 0 0 1-140-58l-148-148a200 200 0 0 1-58-140v-153c-110-82-235-175-253-194a128 128 0 0 1-33-129l-71-71a63 63 0 0 1 89-89l71 71a128 128 0 0 1 129 33c19 18 112 143 194 253h153a198 198 0 0 1 140 58l148 148a200 200 0 0 1 58 140v80a199 199 0 0 1-199 199z m74-279a74 74 0 0 0-22-52l-147-147a73 73 0 0 0-52-22h-61l13 18 167 167a63 63 0 0 1-88 88l-168-167-17-13v61a74 74 0 0 0 22 52l147 147a73 73 0 0 0 52 22h80a74 74 0 0 0 74-74z" horiz-adv-x="1000" />

<glyph glyph-name="fi-br-dashboard" unicode="&#xe864;" d="M996 375a500 500 0 0 1-996-65 492 492 0 0 1 157-361 216 216 0 0 1 149-57h388a222 222 0 0 1 155 63 494 494 0 0 1 147 420z m-234-331a97 97 0 0 0-68-27h-388a93 93 0 0 0-64 23 368 368 0 0 0-117 270 374 374 0 0 0 375 373 395 395 0 0 0 44-2 375 375 0 0 0 328-321 371 371 0 0 0-110-316z m-385 161a63 63 0 0 0-92-85 290 290 0 0 0-77 197 284 284 0 0 0 266 282 63 63 0 0 0 10-125 158 158 0 0 1-151-157 166 166 0 0 1 44-112z m412 75a289 289 0 0 0-74-160 63 63 0 0 0-92 85 165 165 0 0 1 42 91 63 63 0 0 0 124-16z m-206 23a83 83 0 1 0-89 88l108 107a63 63 0 0 0 88-88z" horiz-adv-x="1000" />

<glyph glyph-name="fi-br-data-transfer" unicode="&#xe865;" d="M354 850h-166a188 188 0 0 1-188-187v-42a188 188 0 0 1 188-188h20v-41h-20a63 63 0 0 1 0-125h166a63 63 0 0 1 0 125h-21v41h21a188 188 0 0 1 188 188v42a188 188 0 0 1-188 187z m63-229a63 63 0 0 0-63-63h-166a63 63 0 0 0-63 63v42a63 63 0 0 0 63 62h166a63 63 0 0 0 63-62z m208 42a63 63 0 0 0 63 62h41a146 146 0 0 0 146-146v-41a63 63 0 0 0-125 0v41a21 21 0 0 1-21 21h-41a63 63 0 0 0-63 63z m-83-667a63 63 0 0 0-63-63h-125a146 146 0 0 0-146 146v42a63 63 0 0 0 125 0v-42a21 21 0 0 1 21-21h125a63 63 0 0 0 63-62z m333 396h-125a125 125 0 0 1-125-125v-292a125 125 0 0 1 125-125h125a125 125 0 0 1 125 125v292a125 125 0 0 1-125 125z m-62-459a63 63 0 1 0 62 63 63 63 0 0 0-62-63z" horiz-adv-x="1000" />

<glyph glyph-name="fi-br-database" unicode="&#xe866;" d="M940 496a208 208 0 0 1-148 354h-584a208 208 0 0 1-148-354 207 207 0 0 1 0-292 208 208 0 0 1 148-354h584a208 208 0 0 1 148 354 207 207 0 0 1 0 292z m-732-229a83 83 0 0 0 0 166v-20a63 63 0 0 1 125 0v20h84v-20a63 63 0 0 1 125 0v20h250a83 83 0 0 0 0-166z m0 458v-21a63 63 0 0 1 125 0v21h84v-21a63 63 0 0 1 125 0v21h250a83 83 0 0 0 0-167h-584a83 83 0 0 0 0 167z m584-750h-584a83 83 0 0 0 0 167v-21a63 63 0 0 1 125 0v21h84v-21a63 63 0 0 1 125 0v21h250a83 83 0 0 0 0-167z" horiz-adv-x="1000" />

<glyph glyph-name="fi-br-delete" unicode="&#xe867;" d="M732 410l-60-60 60-60a63 63 0 0 0-89-88l-60 60-60-60a63 63 0 0 0-88 88l60 60-60 60a63 63 0 0 0 88 88l60-60 60 60a63 63 0 0 0 89-88z m268 148v-416a209 209 0 0 0-208-209h-376a231 231 0 0 0-182 90l-221 289a63 63 0 0 0 0 76l221 289a231 231 0 0 0 182 90h376a209 209 0 0 0 208-209z m-125 0a83 83 0 0 1-83 84h-376a105 105 0 0 1-83-41l-192-251 192-251a105 105 0 0 1 83-41h376a83 83 0 0 1 83 84z" horiz-adv-x="1000" />

<glyph glyph-name="fi-br-diamond" unicode="&#xe868;" d="M965 613l-120 161a182 182 0 0 1-148 76h-394a182 182 0 0 1-147-75l-123-163a181 181 0 0 1 5-217l351-491a141 141 0 0 1 111-54h0a143 143 0 0 1 113 56l346 484a182 182 0 0 1 6 223z m-830-75l122 163a57 57 0 0 0 46 24h100l-62-216 4-13h311l3 13-62 216h100a58 58 0 0 0 47-25l120-162a55 55 0 0 0 9-42h-217l-135-503-8-12a17 17 0 0 0-13-6 16 16 0 0 0-11 4l-10 14-134 503h-218a54 54 0 0 0 8 42z" horiz-adv-x="1000" />

<glyph glyph-name="fi-br-dice" unicode="&#xe869;" d="M771-150h-542a229 229 0 0 0-229 229v542a229 229 0 0 0 229 229h542a229 229 0 0 0 229-229v-542a229 229 0 0 0-229-229z m-542 875a104 104 0 0 1-104-104v-542a104 104 0 0 1 104-104h542a104 104 0 0 1 104 104v542a104 104 0 0 1-104 104z m209-375a63 63 0 1 1 62 63 63 63 0 0 1-62-63z m-188 188a63 63 0 1 1 63 62 63 63 0 0 1-63-62z m375 0a63 63 0 1 1 63 62 63 63 0 0 1-63-62z m-375-375a63 63 0 1 1 63 62 63 63 0 0 1-63-62z m375 0a63 63 0 1 1 63 62 63 63 0 0 1-63-62z" horiz-adv-x="1000" />

<glyph glyph-name="fi-br-diploma" unicode="&#xe86a;" d="M292 371a63 63 0 0 0 62 62h125a63 63 0 0 0 0-125h-125a63 63 0 0 0-62 63z m62 146h292a63 63 0 0 1 0 125h-292a63 63 0 0 1 0-125z m521-499v-123a45 45 0 0 0-77-32l-48 48-48-48a45 45 0 0 0-77 32v123a208 208 0 0 0 167 370v233a104 104 0 0 1-104 104l-375-2a104 104 0 0 1-105-104v-498a104 104 0 0 1 105-104h166a63 63 0 0 0 0-125h-166a230 230 0 0 0-230 229v498a230 230 0 0 0 230 229l374 2a230 230 0 0 0 230-229v-314a206 206 0 0 0-42-289z m-208 165a83 83 0 1 1 83 84 83 83 0 0 1-83-84z" horiz-adv-x="1000" />

<glyph glyph-name="fi-br-disk" unicode="&#xe86b;" d="M945 670l-125 125a186 186 0 0 1-133 55h-499a188 188 0 0 1-188-187v-625a188 188 0 0 1 188-188h625a188 188 0 0 1 187 188v499a186 186 0 0 1-55 133z m-70-632a63 63 0 0 0-62-63h-625a63 63 0 0 0-63 63v625a63 63 0 0 0 63 62h62a167 167 0 0 1 167-167h125a167 167 0 0 1 166 163 62 62 0 0 0 23-14l126-126a62 62 0 0 0 18-44z" horiz-adv-x="1000" />

<glyph glyph-name="fi-br-doctor" unicode="&#xe86c;" d="M771 642h-63v62a146 146 0 0 1-145 146h-125a146 146 0 0 1-146-146v-62h-63a229 229 0 0 1-229-229v-334a229 229 0 0 1 229-229h542a229 229 0 0 1 229 229v334a229 229 0 0 1-229 229z m-354 62a21 21 0 0 0 21 21h125a21 21 0 0 0 20-21v-62h-166z m458-625a104 104 0 0 0-104-104h-542a104 104 0 0 0-104 104v334a104 104 0 0 0 104 104h542a104 104 0 0 0 104-104z m-187 167a63 63 0 0 0-63-63h-62v-62a63 63 0 0 0-125 0v62h-63a63 63 0 0 0 0 125h63v63a63 63 0 0 0 125 0v-63h62a63 63 0 0 0 63-62z" horiz-adv-x="1000" />

<glyph glyph-name="fi-br-document-signed" unicode="&#xe86d;" d="M694 202a63 63 0 0 0-8-87 249 249 0 0 0-145-57 139 139 0 0 0-90 35 100 100 0 0 1-10 8 147 147 0 0 1-46-27 63 63 0 0 0-82 94 225 225 0 0 0 130 57 131 131 0 0 0 85-33c11-9 11-9 13-9a126 126 0 0 1 65 28 63 63 0 0 0 88-9z m-48 231h-292a63 63 0 0 1 0-125h292a63 63 0 0 1 0 125z m271 119v-473a229 229 0 0 0-229-229h-375a229 229 0 0 0-230 229v542a229 229 0 0 0 230 229h306a228 228 0 0 0 162-67l69-69a228 228 0 0 0 67-162z m-125-473v479h-84a83 83 0 0 0-83 84v83h-312a104 104 0 0 1-105-104v-542a104 104 0 0 1 105-104h375a104 104 0 0 1 104 104z" horiz-adv-x="1000" />

<glyph glyph-name="fi-br-document" unicode="&#xe86e;" d="M708 329a63 63 0 0 0-62-62h-292a63 63 0 0 0 0 125h292a63 63 0 0 0 62-63z m-187-146h-167a63 63 0 0 1 0-125h167a63 63 0 0 1 0 125z m396 327v-431a229 229 0 0 0-229-229h-375a229 229 0 0 0-230 229v542a229 229 0 0 0 230 229h264a228 228 0 0 0 162-67l111-111a228 228 0 0 0 67-162z m-125-431v396h-167a83 83 0 0 0-83 83v167h-229a104 104 0 0 1-105-104v-542a104 104 0 0 1 105-104h375a104 104 0 0 1 104 104z" horiz-adv-x="1000" />

<glyph glyph-name="fi-br-dollar" unicode="&#xe86f;" d="M771 454a63 63 0 0 1 62 63v28a222 222 0 0 1-221 222h-49v21a63 63 0 0 1-125 0v-21h-50a221 221 0 0 1-64-434l114-31v-244h-50a97 97 0 0 0-96 97v28a63 63 0 0 1-125 0v-28a222 222 0 0 1 221-222h50v-21a63 63 0 0 1 125 0v21h49a221 221 0 0 1 64 434l-113 31v244h49a97 97 0 0 0 96-97v-28a63 63 0 0 1 63-63z m-130-207a96 96 0 0 0-29-189h-49v210z m-203 185l-79 21a96 96 0 0 0 29 189h50z" horiz-adv-x="1000" />

<glyph glyph-name="fi-br-download" unicode="&#xe870;" d="M369 113a188 188 0 0 1 265 0l134 133a63 63 0 1 1-89 89l-115-116-1 569a63 63 0 0 1-63 62h0a63 63 0 0 1-62-62l0-568-115 115a63 63 0 0 1-88-89z m569 133a63 63 0 0 1-63-63v-191a17 17 0 0 0-17-17h-716a17 17 0 0 0-17 17v191a63 63 0 0 1-125 0v-191a142 142 0 0 1 142-142h716a142 142 0 0 1 142 142v191a63 63 0 0 1-62 63z" horiz-adv-x="1000" />

<glyph glyph-name="fi-br-duplicate" unicode="&#xe871;" d="M855 778a229 229 0 0 1-166 72h-126a230 230 0 0 1-229-208h-21a229 229 0 0 1-230-229v-334a229 229 0 0 1 230-229h166a229 229 0 0 1 229 229v22a229 229 0 0 1 209 228v293a227 227 0 0 1-62 156z m-272-699a104 104 0 0 0-104-104h-166a104 104 0 0 0-105 104v334a104 104 0 0 0 105 104h20v-188a229 229 0 0 1 230-229h20z m209 250a104 104 0 0 0-104-104h-125a104 104 0 0 0-105 104v292a104 104 0 0 0 105 104h104v-42a83 83 0 0 1 83-83h42z" horiz-adv-x="1000" />

<glyph glyph-name="fi-br-e-learning" unicode="&#xe872;" d="M820 740a176 176 0 0 1-56 73 179 179 0 0 1-158 30l-67-18a140 140 0 0 1-39-18 141 141 0 0 1-39 18l-67 18a179 179 0 0 1-158-30 176 176 0 0 1-56-73 230 230 0 0 1-180-223v-229a230 230 0 0 1 229-230h209v-83h-84a63 63 0 0 1 0-125h292a63 63 0 0 1 0 125h-83v83h208a230 230 0 0 1 229 230v229a230 230 0 0 1-180 223z m-257-48a14 14 0 0 0 10 12l67 19a58 58 0 0 0 15 2 55 55 0 0 0 33-11 50 50 0 0 0 21-40v-149a52 52 0 0 0-39-49l-107-30z m-251 22a55 55 0 0 0 33 11 58 58 0 0 0 15-2l67-19a14 14 0 0 0 10-12v-246l-107 30a52 52 0 0 0-38 49v149a50 50 0 0 0 20 40z m563-426a104 104 0 0 0-104-105h-542a104 104 0 0 0-104 105v229a104 104 0 0 0 42 83v-75a177 177 0 0 1 130-170l133-37a261 261 0 0 1 140 0l133 37a177 177 0 0 1 130 170v75a104 104 0 0 0 42-83z" horiz-adv-x="1000" />

<glyph glyph-name="fi-br-earnings" unicode="&#xe873;" d="M771 850h-229a63 63 0 0 1 0-125h229a101 101 0 0 0 14-1l-766-767a63 63 0 0 1 88-89l767 767a101 101 0 0 0 1-14v-229a63 63 0 0 1 125 0v229a230 230 0 0 1-229 229z m-500-458a188 188 0 1 1-188 187 188 188 0 0 1 188-187z m0 250a63 63 0 1 0-63-63 63 63 0 0 0 63 63z m458-334a188 188 0 1 1 188-187 188 188 0 0 1-188 187z m0-250a63 63 0 1 0 63 63 63 63 0 0 0-63-63z" horiz-adv-x="1000" />

<glyph glyph-name="fi-br-edit-alt" unicode="&#xe874;" d="M875 225h-125a125 125 0 0 1-125-125v-125h-437a63 63 0 0 0-63 63v625a63 63 0 0 0 63 62h416a63 63 0 0 1 63 63h0a63 63 0 0 1-63 62h-416a188 188 0 0 1-188-187v-625a188 188 0 0 1 188-188h499a188 188 0 0 1 132 55l126 126a188 188 0 0 1 55 132v208a63 63 0 0 1-62 62h0a63 63 0 0 1-63-62z m-1 583a123 123 0 0 1-89-40l-339-379a208 208 0 0 0 167-140l350 350a123 123 0 0 1 0 173 124 124 0 0 1-89 36z m-487-502c-96-19-144-126-165-193a42 42 0 0 1 40-55h155a125 125 0 0 1 124 137 130 130 0 0 1-154 111z" horiz-adv-x="1000" />

<glyph glyph-name="fi-br-edit" unicode="&#xe875;" d="M875 371v-146h-125a125 125 0 0 1-125-125v-125h-437a63 63 0 0 0-63 63v625a63 63 0 0 0 63 62h375a63 63 0 0 1 62 63h0a63 63 0 0 1-62 62h-375a188 188 0 0 1-188-187v-625a188 188 0 0 1 188-188h499a188 188 0 0 1 132 55l126 126a188 188 0 0 1 55 132v208a63 63 0 0 1-62 62h0a63 63 0 0 1-63-62z m-134 404l-520-520a42 42 0 0 1-13-30v-125a42 42 0 0 1 42-42h125a42 42 0 0 1 30 13l513 513a141 141 0 0 1 40 132 130 130 0 0 1-217 59z" horiz-adv-x="1000" />

<glyph glyph-name="fi-br-envelope" unicode="&#xe876;" d="M771 808h-542a229 229 0 0 1-229-229v-458a229 229 0 0 1 229-229h542a229 229 0 0 1 229 229v458a229 229 0 0 1-229 229z m0-125a103 103 0 0 0 68-26l-270-271a99 99 0 0 0-137 0l-271 271a103 103 0 0 0 68 26z m0-666h-542a104 104 0 0 0-104 104v395l218-218a222 222 0 0 1 314 0l218 218v-395a104 104 0 0 0-104-104z" horiz-adv-x="1000" />

<glyph glyph-name="fi-br-euro" unicode="&#xe877;" d="M873 111a375 375 0 0 0-625 72h356a63 63 0 0 1 0 125h-393a354 354 0 0 0 0 84h393a63 63 0 0 1 0 125h-356a375 375 0 0 0 625 72 63 63 0 1 1 96 79 500 500 0 0 1-856-151h-50a63 63 0 0 1 0-125h23c-2-14-3-28-3-42s1-28 3-42h-23a63 63 0 0 1 0-125h50a500 500 0 0 1 856-151 63 63 0 1 1-96 79z" horiz-adv-x="1000" />

<glyph glyph-name="fi-br-exclamation" unicode="&#xe878;" d="M500 850a500 500 0 1 1 500-500 501 501 0 0 1-500 500z m0-875a375 375 0 1 0 375 375 375 375 0 0 0-375-375z m0 246a63 63 0 0 1 63 63v291a63 63 0 0 1-125 0v-291a63 63 0 0 1 62-63z" horiz-adv-x="1000" />

<glyph glyph-name="fi-br-expand" unicode="&#xe879;" d="M938 204a63 63 0 0 1-63-62v-63a104 104 0 0 0-104-104h-63a63 63 0 0 1 0-125h63a229 229 0 0 1 229 229v63a63 63 0 0 1-62 62z m-646 646h-63a229 229 0 0 1-229-229v-63a63 63 0 0 1 125 0v63a104 104 0 0 0 104 104h63a63 63 0 0 1 0 125z m0-875h-63a104 104 0 0 0-104 104v63a63 63 0 0 1-125 0v-63a229 229 0 0 1 229-229h63a63 63 0 0 1 0 125z m479 875h-63a63 63 0 0 1 0-125h63a104 104 0 0 0 104-104v-63a63 63 0 0 1 125 0v63a229 229 0 0 1-229 229z" horiz-adv-x="1000" />

<glyph glyph-name="fi-br-eye-crossed" unicode="&#xe87a;" d="M958 479h0a638 638 0 0 1-114 126l117 118a63 63 0 0 1-88 88l-136-135a522 522 0 0 1-237 55 552 552 0 0 1-458-252 230 230 0 0 1 0-258 638 638 0 0 1 115-126l-118-118a63 63 0 0 1 89-88l135 135a522 522 0 0 1 237-55 552 552 0 0 1 458 252 230 230 0 0 1 0 258z m-812-187a104 104 0 0 0 0 116 423 423 0 0 0 354 198 407 407 0 0 0 142-25l-77-77a167 167 0 0 1-218-219l-102-102a504 504 0 0 0-99 109z m709 0a423 423 0 0 0-355-198 407 407 0 0 0-142 25l77 78a167 167 0 0 1 219 218l101 102a504 504 0 0 0 100-109 104 104 0 0 0 0-116z" horiz-adv-x="1000" />

<glyph glyph-name="fi-br-eye-dropper" unicode="&#xe87b;" d="M957 599a147 147 0 0 1 0 208 150 150 0 0 1-208 0l-59-60c-35-35-114-25-166 4a129 129 0 0 1-153-205l45-45-325-336a164 164 0 0 1-39-175l-34-33a63 63 0 0 1 89-89l29 30a165 165 0 0 1 191 32l325 335 44-44a129 129 0 0 1 205 152c-29 53-39 132-4 167z m-719-581a42 42 0 1 0-58 59l325 335 58-59z m631 670l-60-60c-81-81-70-219-19-318a5 5 0 0 0-6 0l-324 324c-2 1-2 5 3 8 96-53 234-64 315 17l60 60a22 22 0 0 0 31-31z" horiz-adv-x="1000" />

<glyph glyph-name="fi-br-eye" unicode="&#xe87c;" d="M958 479a552 552 0 0 1-458 252 552 552 0 0 1-458-252 229 229 0 0 1 0-258 552 552 0 0 1 458-252 552 552 0 0 1 458 252 229 229 0 0 1 0 258z m-103-187a423 423 0 0 0-355-198 423 423 0 0 0-355 198 104 104 0 0 0 0 116 423 423 0 0 0 355 198 423 423 0 0 0 355-198 104 104 0 0 0 0-116z" horiz-adv-x="1000" />

<glyph glyph-name="fi-br-feather" unicode="&#xe87d;" d="M947 797a180 180 0 0 1-171 48 1260 1260 0 0 1-555-312 328 328 0 0 1-40-414l-163-162a63 63 0 0 1 89-89l162 163a318 318 0 0 1 179-56 346 346 0 0 1 249 108 1275 1275 0 0 1 298 544 178 178 0 0 1-48 170z m-141-74a55 55 0 0 0 53-14 54 54 0 0 0 14-52 1118 1118 0 0 0-84-224h-117l60 60a63 63 0 0 1-89 89l-185-185v168a1174 1174 0 0 0 348 158z m-556-432a204 204 0 0 0 59 153c8 8 16 15 24 22v-194l-62-62a203 203 0 0 0-21 81z m357-122a213 213 0 0 0-248-48l81 81h0l107 106h169a982 982 0 0 0-109-139z" horiz-adv-x="1000" />

<glyph glyph-name="fi-br-file-add" unicode="&#xe87e;" d="M688 246a63 63 0 0 0-63-63h-62v-62a63 63 0 0 0-125 0v62h-63a63 63 0 0 0 0 125h63v63a63 63 0 0 0 125 0v-63h62a63 63 0 0 0 63-62z m229 264v-431a229 229 0 0 0-229-229h-375a229 229 0 0 0-230 229v542a229 229 0 0 0 230 229h264a228 228 0 0 0 162-67l111-111a228 228 0 0 0 67-162z m-125-431v396h-167a83 83 0 0 0-83 83v167h-229a104 104 0 0 1-105-104v-542a104 104 0 0 1 105-104h375a104 104 0 0 1 104 104z" horiz-adv-x="1000" />

<glyph glyph-name="fi-br-file-ai" unicode="&#xe87f;" d="M813 850h-625a188 188 0 0 1-188-187v-625a188 188 0 0 1 188-188h499a186 186 0 0 1 132 55l126 126a186 186 0 0 1 55 132v500a188 188 0 0 1-187 187z m-418-324a26 26 0 0 0-49-18l-14 37h-96l-14-38a26 26 0 0 0-49 19l83 216a31 31 0 0 0 28 20h0a31 31 0 0 0 29-19z m47 210a26 26 0 0 0 52 0v-219a26 26 0 0 0-52 0z m266-511a83 83 0 0 1-83-83v-167h-437a63 63 0 0 0-63 63v354h750v-167z" horiz-adv-x="1000" />

<glyph glyph-name="fi-br-file-check" unicode="&#xe880;" d="M850 672l-111 111a228 228 0 0 1-162 67h-264a229 229 0 0 1-230-229v-542a229 229 0 0 1 230-229h375a229 229 0 0 1 229 229v431a228 228 0 0 1-67 162z m-162-697h-375a104 104 0 0 0-105 104v542a104 104 0 0 0 105 104h229v-167a83 83 0 0 1 83-83h167v-396a104 104 0 0 0-104-104z m24 397a63 63 0 0 0-2-88l-150-142a146 146 0 0 0-205 1l-63 56a63 63 0 1 0 83 94l66-59a24 24 0 0 1 17-9 21 21 0 0 1 15 6l151 143a63 63 0 0 0 88-2z" horiz-adv-x="1000" />

<glyph glyph-name="fi-br-file-delete" unicode="&#xe881;" d="M648 285l-60-60 60-60a63 63 0 0 0-88-88l-60 60-60-60a63 63 0 0 0-88 88l60 60-60 60a63 63 0 0 0 88 88l60-60 60 60a63 63 0 0 0 88-88z m269 225v-431a229 229 0 0 0-229-229h-375a229 229 0 0 0-230 229v542a229 229 0 0 0 230 229h264a228 228 0 0 0 162-67l111-111a228 228 0 0 0 67-162z m-125-431v396h-167a83 83 0 0 0-83 83v167h-229a104 104 0 0 1-105-104v-542a104 104 0 0 1 105-104h375a104 104 0 0 1 104 104z" horiz-adv-x="1000" />

<glyph glyph-name="fi-br-file-eps" unicode="&#xe882;" d="M484 703h-35l0-72 35 0a37 37 0 0 1 37 36 37 37 0 0 1-37 36z m329 147h-625a188 188 0 0 1-188-187v-625a188 188 0 0 1 188-188h499a186 186 0 0 1 132 55l126 126a186 186 0 0 1 55 132v500a188 188 0 0 1-187 187z m-205-288a25 25 0 0 0 32 2l5-4a111 111 0 0 1 36-21 65 65 0 0 1 40 1 30 30 0 0 1 19 17 23 23 0 0 1-6 24 54 54 0 0 1-20 12c-17 6-34 13-51 20a80 80 0 0 0-40 31 67 67 0 0 0-10 46 72 72 0 0 0 8 25 76 76 0 0 0 43 34 132 132 0 0 0 101-14 45 45 0 0 0 17-15 25 25 0 0 0-1-30c-10-12-24-9-37-3a324 324 0 0 1-34 12 62 62 0 0 1-25 4 25 25 0 0 1-21-14 25 25 0 0 1 7-25 53 53 0 0 1 25-13c11-3 23-5 34-9a111 111 0 0 0 38-22 74 74 0 0 0 25-67 89 89 0 0 0-91-69 131 131 0 0 0-96 41 26 26 0 0 0 2 37z m-211 167a17 17 0 0 0 0 3 25 25 0 0 0 2 7 25 25 0 0 0 4 7 7 7 0 0 0 1 1h0a26 26 0 0 0 9 6 26 26 0 0 0 10 2h61a88 88 0 1 0 0-176l-35 0v-69a26 26 0 0 0-52 0z m-197-1a26 26 0 0 0 26 26h92a26 26 0 0 0 0-52h-65v-57h58a26 26 0 0 0 0-52h-58v-56h65a26 26 0 0 0 0-52h-92a26 26 0 0 0-26 26z m675-503h-167a83 83 0 0 1-83-83v-167h-437a63 63 0 0 0-63 63v354h750z" horiz-adv-x="1000" />

<glyph glyph-name="fi-br-file-gif" unicode="&#xe883;" d="M813 850h-625a188 188 0 0 1-188-187v-625a188 188 0 0 1 188-188h472a228 228 0 0 1 162 67l111 111a228 228 0 0 1 67 162v473a188 188 0 0 1-187 187z m-282-130a26 26 0 0 0 26 26h84a26 26 0 0 0 0-52h-58v-48h52a26 26 0 0 0 0-52h-52v-75a26 26 0 0 0-52 0z m-125 0a26 26 0 0 0 52 0v-201a26 26 0 0 0-52 0z m-239-57a83 83 0 0 0 83 83h0a84 84 0 0 0 74-45 26 26 0 1 0-46-24 33 33 0 0 1-28 17 31 31 0 0 1-31-31v-87a31 31 0 0 1 31-31 32 32 0 0 1 31 31v3h-10a21 21 0 0 0 0 42h31a31 31 0 0 0 31-31v-14a83 83 0 0 0-83-83h0a83 83 0 0 0-83 83z m-42-625v354h750v-167h-167a83 83 0 0 1-83-83v-167h-437a63 63 0 0 0-63 63z" horiz-adv-x="1000" />

<glyph glyph-name="fi-br-file-music" unicode="&#xe884;" d="M667 371a63 63 0 0 0-63-63h-21v-125a62 62 0 0 0-1-12 125 125 0 1 0-124 137v21a104 104 0 0 0 105 104h41a63 63 0 0 0 63-62z m250 139v-431a230 230 0 0 0-229-229h-375a230 230 0 0 0-230 229v542a230 230 0 0 0 230 229h264a228 228 0 0 0 162-67l111-111a228 228 0 0 0 67-162z m-125-431v396h-167a83 83 0 0 0-83 83v167h-229a104 104 0 0 1-105-104v-542a104 104 0 0 1 105-104h375a104 104 0 0 1 104 104z" horiz-adv-x="1000" />

<glyph glyph-name="fi-br-file-psd" unicode="&#xe885;" d="M266 632a37 37 0 0 1 37 36 37 37 0 0 1-37 36h-35l0-72z m452-92c40 1 58 41 58 80s-16 80-60 80h-34l0-160c13 0 27 0 36 0z m95 310h-625a188 188 0 0 1-188-187v-625a188 188 0 0 1 188-188h499a186 186 0 0 1 132 55l126 126a186 186 0 0 1 55 132v500a188 188 0 0 1-187 187z m-183-124a26 26 0 0 0 26 26h60c67 0 112-53 112-132 0-75-46-131-110-132-17 0-61 0-61 0h0a26 26 0 0 0-26 26v1c0 1-1 1-1 2z m-241-160a25 25 0 0 0 32 2l5-4a111 111 0 0 1 36-21 65 65 0 0 1 40 1 30 30 0 0 1 19 17 24 24 0 0 1-6 24 56 56 0 0 1-20 12c-17 6-34 13-51 20a81 81 0 0 0-40 31 67 67 0 0 0-10 45 73 73 0 0 0 9 25 76 76 0 0 0 42 35 133 133 0 0 0 101-14 45 45 0 0 0 17-15 25 25 0 0 0-1-30c-10-12-24-9-37-4a324 324 0 0 1-34 13 62 62 0 0 1-25 4 25 25 0 0 1-20-14 25 25 0 0 1 6-25 52 52 0 0 1 25-13c11-3 23-5 34-9a111 111 0 0 0 38-22 74 74 0 0 0 25-67 89 89 0 0 0-91-69 131 131 0 0 0-95 41 26 26 0 0 0 1 37z m-210 164a19 19 0 0 0 0 2 26 26 0 0 0 2 8 27 27 0 0 0 5 8l0 0h0a27 27 0 0 0 8 6 26 26 0 0 0 10 2h62a88 88 0 1 0 0-176l-35 0v-70a26 26 0 0 0-52 0z m696-505h-167a83 83 0 0 1-83-83v-167h-437a63 63 0 0 0-63 63v354h750z" horiz-adv-x="1000" />

<glyph glyph-name="fi-br-file" unicode="&#xe886;" d="M850 681l-99 101a231 231 0 0 1-163 68h-275a229 229 0 0 1-230-229v-542a229 229 0 0 1 230-229h375a229 229 0 0 1 229 229v441a228 228 0 0 1-67 161z m-58-602a104 104 0 0 0-104-104h-375a104 104 0 0 0-105 104v542a104 104 0 0 0 105 104h229v-167a83 83 0 0 1 83-83h167z" horiz-adv-x="1000" />

<glyph glyph-name="fi-br-fill" unicode="&#xe887;" d="M930 82c31-43 70-93 70-128a104 104 0 0 0-208 0c0 32 40 84 70 128a42 42 0 0 0 68 0z m-36 161l-326-326a230 230 0 0 0-324 0l-177 177a229 229 0 0 0 0 324l159 159-124 125a63 63 0 0 0 88 88l125-124 78 78a63 63 0 0 0 89 88l500-500a63 63 0 0 0-88-89z m-89 88l-324 324-78-78 162-162a63 63 0 0 0-88-88l-162 162-159-159a104 104 0 0 1 0-148l176-176a104 104 0 0 1 148 0z" horiz-adv-x="1000" />

<glyph glyph-name="fi-br-film" unicode="&#xe888;" d="M771 850h-542a229 229 0 0 1-229-229v-542a229 229 0 0 1 229-229h542a229 229 0 0 1 229 229v542a229 229 0 0 1-229 229z m-646-417h83v-166h-83z m542-20h-334v312h334z m-334-125h334v-313h-334z m459 145h83v-166h-83z m83 188v-63h-83v165a104 104 0 0 0 83-102z m-667 102v-165h-83v63a104 104 0 0 0 83 102z m-83-644v63h83v-165a104 104 0 0 0-83 102z m667-102v165h83v-63a104 104 0 0 0-83-102z" horiz-adv-x="1000" />

<glyph glyph-name="fi-br-filter" unicode="&#xe889;" d="M604-150a62 62 0 0 0-32 9l-208 125a63 63 0 0 0-31 54v215l-248 304a175 175 0 0 0-43 116 177 177 0 0 0 177 177h562a177 177 0 0 0 133-295l-247-304v-339a63 63 0 0 0-63-62z m-146 223l84-50v250a63 63 0 0 0 14 39l262 324a55 55 0 0 1 15 37 52 52 0 0 1-52 52h-562a52 52 0 0 1-39-87l264-323a63 63 0 0 0 14-40z" horiz-adv-x="1000" />

<glyph glyph-name="fi-br-fingerprint" unicode="&#xe88a;" d="M354-85a63 63 0 0 0-36 113c104 76 119 216 119 343a63 63 0 0 0 63 62h0a63 63 0 0 0 63-62c-1-96-2-321-172-444a62 62 0 0 0-37-12z m251-41a583 583 0 0 1 83 139 63 63 0 1 1-115 48 455 455 0 0 0-65-109 63 63 0 0 1 98-78z m142 410c3 42 3 80 3 108a250 250 0 0 1-333 235 63 63 0 1 1 41-117 125 125 0 0 0 167-118c0-28 0-62-2-101a63 63 0 0 1 58-66q2 0 4 0a63 63 0 0 1 62 59z m-551-224a198 198 0 0 1 76 26c102 61 103 190 103 285a63 63 0 0 1-62 62h0a63 63 0 0 1-63-62c0-99-7-157-42-178a76 76 0 0 0-28-9 63 63 0 0 1 8-124 58 58 0 0 1 8 0z m667-174a1196 1196 0 0 1 95 506 456 456 0 0 1-32 169 63 63 0 1 1-116-47 331 331 0 0 0 23-122 1079 1079 0 0 0-83-453 63 63 0 0 1 113-53z m-696 443v63a333 333 0 0 0 491 293 63 63 0 0 1 59 110 458 458 0 0 1-675-403v-63a63 63 0 0 1 125 0z" horiz-adv-x="1000" />

<glyph glyph-name="fi-br-flag" unicode="&#xe88b;" d="M813 683h-169a187 187 0 0 1-186 167h-270a188 188 0 0 1-188-187v-751a63 63 0 0 1 125 0v355h273a187 187 0 0 1 185-167h230a188 188 0 0 1 187 188v208a188 188 0 0 1-187 187z m-688-20a63 63 0 0 0 63 62h270a63 63 0 0 0 63-62v-209a63 63 0 0 0-63-62h-333z m750-375a63 63 0 0 0-62-63h-230a63 63 0 0 0-61 54 187 187 0 0 1 124 175v104h167a63 63 0 0 0 62-62z" horiz-adv-x="1000" />

<glyph glyph-name="fi-br-flame" unicode="&#xe88c;" d="M699 729c-31 27-64 54-97 85a140 140 0 0 1-113 35 136 136 0 0 1-97-62h0a780 780 0 0 1-89-209 102 102 0 0 1-158 7 382 382 0 0 1-109-271 459 459 0 0 1 345-449 486 486 0 0 1 119-15 463 463 0 0 1 464 464c0 190-123 294-265 415z m9-683a332 332 0 0 0-37-25 187 187 0 0 1 18 80c0 81-56 174-125 256a84 84 0 0 1-128 0c-98-115-160-240-103-340a338 338 0 0 0-172 297 248 248 0 0 0 56 162q9-14 19-28a96 96 0 0 1 99-36 99 99 0 0 1 75 76 719 719 0 0 0 87 232 11 11 0 0 0 9 5 15 15 0 0 0 12-4c34-31 68-60 100-87 133-113 221-187 221-320a337 337 0 0 0-131-268z" horiz-adv-x="1000" />

<glyph glyph-name="fi-br-flip-horizontal" unicode="&#xe88d;" d="M396-150h-166a229 229 0 0 0-201 340l312 573a63 63 0 1 0 110-59l-313-574a104 104 0 0 1 92-155h166a63 63 0 1 0 0-125z m576 339l-313 574a63 63 0 0 1-85 25 70 70 0 0 1-33-63v-813a63 63 0 0 1 62-62h168a229 229 0 0 1 201 339z" horiz-adv-x="1000" />

<glyph glyph-name="fi-br-folder-add" unicode="&#xe88e;" d="M688 267a63 63 0 0 0-63-63h-62v-62a63 63 0 0 0-125 0v62h-63a63 63 0 0 0 0 125h63v63a63 63 0 0 0 125 0v-63h62a63 63 0 0 0 63-62z m312 229v-375a229 229 0 0 0-229-229h-542a229 229 0 0 0-229 229v458a229 229 0 0 0 229 229h104a63 63 0 0 0 28-6l154-77h256a229 229 0 0 0 229-229z m-125 0a104 104 0 0 1-2 21h-748v-396a104 104 0 0 1 104-104h542a104 104 0 0 1 104 104z" horiz-adv-x="1000" />

<glyph glyph-name="fi-br-folder" unicode="&#xe88f;" d="M771 725h-250a21 21 0 0 0-10 2l-123 65a146 146 0 0 1-68 16h-91a229 229 0 0 1-229-229v-458a229 229 0 0 1 229-229h542a229 229 0 0 1 229 229v375a229 229 0 0 1-229 229z m104-604a104 104 0 0 0-104-104h-542a104 104 0 0 0-104 104v397h748a103 103 0 0 0 2-22z" horiz-adv-x="1000" />

<glyph glyph-name="fi-br-following" unicode="&#xe890;" d="M311 266a341 341 0 0 1-311-345v-9a63 63 0 0 1 125 0v12a215 215 0 0 0 188 217 209 209 0 0 0 229-208v-21a63 63 0 0 1 125 0v21a334 334 0 0 1-356 333z m22 84a250 250 0 1 1-250 250 250 250 0 0 1 250-250z m0 375a125 125 0 1 0-125-125 125 125 0 0 0 125 125z m584-203a88 88 0 0 1-84-92 88 88 0 0 1-83 92 88 88 0 0 1-83-92c0-72 94-156 141-194a41 41 0 0 1 51 0c47 38 141 122 141 194a88 88 0 0 1-83 92z" horiz-adv-x="1000" />

<glyph glyph-name="fi-br-football" unicode="&#xe891;" d="M549 183h-98a104 104 0 0 0-99 72l-31 94a104 104 0 0 0 38 117l80 58h0a104 104 0 0 0 122 0l80-58a104 104 0 0 0 38-117l-31-94a104 104 0 0 0-99-72z m451 167a500 500 0 1 0-500 500 501 501 0 0 0 500-500z m-500-375a377 377 0 0 1 64 6l36 116a125 125 0 0 0 118 87l118 0a372 372 0 0 1 36 121l-94 62a125 125 0 0 0-47 139l35 108a377 377 0 0 1-102 73l-90-63a125 125 0 0 0-147 0l-89 64a377 377 0 0 1-101-71l32-111a125 125 0 0 0-47-139l-93-66a371 371 0 0 1 35-117l118 0a125 125 0 0 0 118-87l36-116a372 372 0 0 1 64-6z" horiz-adv-x="1000" />

<glyph glyph-name="fi-br-form" unicode="&#xe892;" d="M708 121a63 63 0 0 0-62-63h-292a63 63 0 0 0 0 125h292a63 63 0 0 0 62-62z m209 431v-473a229 229 0 0 0-229-229h-375a229 229 0 0 0-230 229v542a229 229 0 0 0 230 229h306a228 228 0 0 0 162-67l69-69a228 228 0 0 0 67-162z m-126 6h-83a83 83 0 0 0-83 84v82c-2 1-312 1-312 1a104 104 0 0 1-105-104v-542a104 104 0 0 1 105-104h375a104 104 0 0 1 104 104s-1 477-1 479z m-187-83h-208a104 104 0 0 1 0-208h208a104 104 0 0 1 0 208z" horiz-adv-x="1000" />

<glyph glyph-name="fi-br-forward" unicode="&#xe893;" d="M173-17a174 174 0 0 0-173 173v388a173 173 0 0 0 276 139l121-89a173 173 0 0 0 268 89l264-193a173 173 0 0 0 0-279l-264-194a173 173 0 0 0-268 89l-121-89a173 173 0 0 0-103-34z m279 303a63 63 0 0 0 63-62v-68a48 48 0 0 1 76-39l264 194a48 48 0 0 1 0 78l-264 194a48 48 0 0 1-76-39v-67a63 63 0 0 0-100-51l-213 157a48 48 0 0 1-77-39v-388a48 48 0 0 1 77-39l213 157a63 63 0 0 0 37 12z" horiz-adv-x="1000" />

<glyph glyph-name="fi-br-ftp" unicode="&#xe894;" d="M938 58h-307a146 146 0 0 1-68 69v98h125a188 188 0 0 1 187 188v208a146 146 0 0 1-146 146h-210l-105 72a63 63 0 0 1-35 11h-108a146 146 0 0 1-146-146v-291a188 188 0 0 1 188-188h125v-98a146 146 0 0 1-69-69h-306a63 63 0 0 1 0-125h306a145 145 0 0 1 262 0h307a63 63 0 0 1 0 125z m-625 292a63 63 0 0 0-63 63v145h500v-145a63 63 0 0 0-62-63z" horiz-adv-x="1000" />

<glyph glyph-name="fi-br-gallery" unicode="&#xe895;" d="M771 850h-208a229 229 0 0 1-229-217 229 229 0 0 1-167-208 229 229 0 0 1-167-221v-125a230 230 0 0 1 229-229h209a230 230 0 0 1 229 229v9a230 230 0 0 1 163 183 215 215 0 0 1 170 225v125a230 230 0 0 1-229 229z m-646-646a104 104 0 0 0 104 104h209a104 104 0 0 0 104-104v-8l-88-88a42 42 0 0 0-59 0l-20 20a42 42 0 0 1-56 2l-154-132a104 104 0 0 0-40 81z m583 104a104 104 0 0 0-42-83 229 229 0 0 1-228 208h-144a104 104 0 0 0 102 84h208a104 104 0 0 0 104-104z m167 188a113 113 0 0 0-42-93v10a230 230 0 0 1-229 229h-143a104 104 0 0 0 102 83h208a104 104 0 0 0 104-104z m-708-292a63 63 0 1 0 62-62 63 63 0 0 0-62 62z" horiz-adv-x="1000" />

<glyph glyph-name="fi-br-glasses" unicode="&#xe896;" d="M813 850a188 188 0 0 1-188-187 63 63 0 0 1 125 0 63 63 0 0 0 125 0v-380a228 228 0 0 1-285-64 164 164 0 0 1-180 0 228 228 0 0 1-285 64v380a63 63 0 0 0 125 0 63 63 0 0 1 125 0 188 188 0 0 1-375 0v-584a229 229 0 0 1 458 0 42 42 0 0 0 84 0 229 229 0 0 1 458 0v584a188 188 0 0 1-187 187z m-584-875a104 104 0 1 0 104 104 104 104 0 0 0-104-104z m542 0a104 104 0 1 0 104 104 104 104 0 0 0-104-104z" horiz-adv-x="1000" />

<glyph glyph-name="fi-br-globe-alt" unicode="&#xe897;" d="M559 225a313 313 0 1 1-312 313 313 313 0 0 1 312-313z m0 500a188 188 0 1 0-187-187 188 188 0 0 0 187 187z m430-481a520 520 0 0 0-388-225v-44h128a63 63 0 0 0 0-125h-375a63 63 0 0 0 0 125h122v49a520 520 0 0 0-353 798 63 63 0 1 0 104-69 396 396 0 0 1 659-439 63 63 0 1 0 103-71z" horiz-adv-x="1000" />

<glyph glyph-name="fi-br-globe" unicode="&#xe898;" d="M500 850a500 500 0 1 1 500-500 501 501 0 0 1-500 500z m373-458h-145a765 765 0 0 1-96 309 376 376 0 0 0 241-309z m-469-125h193a706 706 0 0 0-97-246 706 706 0 0 0-96 246z m-6 125a677 677 0 0 0 102 287 677 677 0 0 0 102-287z m-30 309a765 765 0 0 1-96-309h-144a376 376 0 0 0 240 309z m-233-434h142a788 788 0 0 1 91-268 376 376 0 0 0-233 268z m497-268a787 787 0 0 1 91 268h142a376 376 0 0 0-233-268z" horiz-adv-x="1000" />

<glyph glyph-name="fi-br-golf" unicode="&#xe899;" d="M500 433a904 904 0 0 1-125-8v53l192 79c2 1 3 1 4 2a104 104 0 0 1 14 177c-2 2-184 103-184 103a104 104 0 0 1-151-93v-349c-152-49-250-143-250-255 0-167 215-292 500-292s500 125 500 292-215 291-500 291z m0-458c-215 0-375 88-375 167 0 42 48 88 125 121v-100a63 63 0 0 1 125 0v135a738 738 0 0 0 125 10c215 0 375-88 375-166s-160-167-375-167z m208 167a83 83 0 1 0-83 83 83 83 0 0 0 83-83z" horiz-adv-x="1000" />

<glyph glyph-name="fi-br-graduation-cap" unicode="&#xe89a;" d="M1000 501a167 167 0 0 1-86 139c-1 1-299 139-299 139a238 238 0 0 1-230 0s-297-138-299-139a164 164 0 0 1 0-288c2-1 122-57 122-57v-197a194 194 0 0 1 137-185 539 539 0 0 1 155-21 539 539 0 0 1 155 21 194 194 0 0 1 137 185v197l83 38v-295a63 63 0 0 1 125 0v460c0 1 0 2 0 3z m-333-403a68 68 0 0 0-48-65 460 460 0 0 0-238 0 68 68 0 0 0-48 65v139l52-24a238 238 0 0 1 230 0l52 24z m187 363s-297-137-299-138a111 111 0 0 0-110 0c-1 1-298 138-298 138a39 39 0 0 0 0 70s297 137 298 138a111 111 0 0 0 110 0c2-1 299-138 299-138a39 39 0 0 0 0-70z" horiz-adv-x="1000" />

<glyph glyph-name="fi-br-graphic-tablet" unicode="&#xe89b;" d="M771 725h-542a229 229 0 0 1-229-229v-104h84a41 41 0 0 0 41-42h0a41 41 0 0 0-41-41h-84v-105a229 229 0 0 1 229-229h542a229 229 0 0 1 229 229v292a229 229 0 0 1-229 229z m104-521a103 103 0 0 0-101-104h-483v500h483a103 103 0 0 0 101-104z" horiz-adv-x="1000" />

<glyph glyph-name="fi-br-grid-alt" unicode="&#xe89c;" d="M771 850h-542a229 229 0 0 1-229-229v-542a229 229 0 0 1 229-229h542a229 229 0 0 1 229 229v542a229 229 0 0 1-229 229z m-354-583v166h166v-166z m166-125v-167h-166v167z m-458 291h167v-166h-167z m292 125v167h166v-167z m291-125h167v-166h-167z m167 188v-63h-167v167h63a104 104 0 0 0 104-104z m-646 104h63v-167h-167v63a104 104 0 0 0 104 104z m-104-646v63h167v-167h-63a104 104 0 0 0-104 104z m646-104h-63v167h167v-63a104 104 0 0 0-104-104z" horiz-adv-x="1000" />

<glyph glyph-name="fi-br-grid" unicode="&#xe89d;" d="" horiz-adv-x="1000" />

<glyph glyph-name="fi-br-gym" unicode="&#xe89e;" d="M950 601l-55 55 45 46a63 63 0 0 1-88 88l-46-45-55 55a171 171 0 1 1-243-242l56-56-216-216-56 56a171 171 0 1 1-242-243l55-55-45-46a63 63 0 0 1 88-88l46 45 55-55a171 171 0 1 1 243 242l-56 56 217 216 55-56a171 171 0 1 1 242 243z m-547-612h0a48 48 0 0 0-65 0l-199 199a46 46 0 0 0 65 65l199-199a46 46 0 0 0 0-65z m459 458h0a48 48 0 0 0-66 0l-199 199a46 46 0 0 0 66 66l199-199a46 46 0 0 0 0-66z" horiz-adv-x="1000" />

<glyph glyph-name="fi-br-headphones" unicode="&#xe89f;" d="M875 369v65a375 375 0 0 1-750 0v-65a221 221 0 0 1-125-199v-15a222 222 0 0 1 222-222h7a104 104 0 0 1 104 105v250a104 104 0 0 1-83 102v44a250 250 0 0 0 500 0v-44a104 104 0 0 1-83-102v-250a104 104 0 0 1 104-105h7a222 222 0 0 1 222 222v15a221 221 0 0 1-125 199z m-667-310a97 97 0 0 0-83 96v15a97 97 0 0 0 83 96z m667 96a97 97 0 0 0-83-96v207a97 97 0 0 0 83-96z" horiz-adv-x="1000" />

<glyph glyph-name="fi-br-headset" unicode="&#xe8a0;" d="M875 369v65a375 375 0 0 1-750 0v-65a221 221 0 0 1-125-199v-15a222 222 0 0 1 222-222h7a104 104 0 0 1 104 105v250a104 104 0 0 1-83 102v44a250 250 0 0 0 500 0v-44a104 104 0 0 1-83-102v-230h-63a63 63 0 0 1 0-125h174a222 222 0 0 1 222 222v15a221 221 0 0 1-125 199z m-667-310a97 97 0 0 0-83 96v15a97 97 0 0 0 83 96z m667 96a97 97 0 0 0-83-96v207a97 97 0 0 0 83-96z" horiz-adv-x="1000" />

<glyph glyph-name="fi-br-heart" unicode="&#xe8a1;" d="M719 773a274 274 0 0 1-219-113 274 274 0 0 1-219 113 293 293 0 0 1-281-303c0-190 195-393 358-530a220 220 0 0 1 284 0c164 137 358 340 358 530a293 293 0 0 1-281 303z m-157-737a96 96 0 0 0-124 0c-199 167-313 325-313 434a169 169 0 0 0 156 178 169 169 0 0 0 157-178 63 63 0 0 1 125 0 169 169 0 0 0 156 178 169 169 0 0 0 156-178c0-109-114-267-313-434z" horiz-adv-x="1000" />

<glyph glyph-name="fi-br-home" unicode="&#xe8a2;" d="M957 488l-295 295a230 230 0 0 1-324 0l-295-295a145 145 0 0 1-43-103v-433a102 102 0 0 1 102-102h796a102 102 0 0 1 102 102v433a145 145 0 0 1-43 103z m-82-513h-208v133a159 159 0 0 1-159 159h-16a159 159 0 0 1-159-159v-133h-208v410a21 21 0 0 0 6 14l295 296a104 104 0 0 0 148 0l295-296a21 21 0 0 0 6-14z" horiz-adv-x="1000" />

<glyph glyph-name="fi-br-hourglass-end" unicode="&#xe8a3;" d="M709 350a510 510 0 0 1 165 293 179 179 0 0 1-42 144 182 182 0 0 1-138 63h-386a183 183 0 0 1-139-63 180 180 0 0 1-41-144 508 508 0 0 1 164-293 508 508 0 0 1-164-293 180 180 0 0 1 41-144 183 183 0 0 1 139-63h386a182 182 0 0 1 138 63 179 179 0 0 1 42 144 510 510 0 0 1-165 293z m28-355a58 58 0 0 0-43-20h-386a58 58 0 0 0-44 20 54 54 0 0 0-13 44c14 93 73 182 175 262a63 63 0 0 1 0 98c-102 81-161 169-175 262a54 54 0 0 0 13 44 58 58 0 0 0 44 20h386a58 58 0 0 0 43-20 54 54 0 0 0 13-44c-14-93-73-181-175-262a63 63 0 0 1 0-98c102-81 161-169 175-262a54 54 0 0 0-13-44z m-202 221l-12 10a36 36 0 0 1-45 0l-13-10a273 273 0 0 1-87-108 36 36 0 0 1 33-50h178a36 36 0 0 1 33 50 275 275 0 0 1-87 108z" horiz-adv-x="1000" />

<glyph glyph-name="fi-br-hourglass" unicode="&#xe8a4;" d="M693-150h-386a183 183 0 0 0-138 63 180 180 0 0 0-42 144 509 509 0 0 0 164 293 509 509 0 0 0-164 293 180 180 0 0 0 42 144 183 183 0 0 0 138 63h386a182 182 0 0 0 138-63 179 179 0 0 0 42-144 510 510 0 0 0-164-293 510 510 0 0 0 164-293 179 179 0 0 0-42-144 182 182 0 0 0-138-63z m0 875h-386a58 58 0 0 1-44-20 54 54 0 0 1-12-44c14-93 72-181 174-262a63 63 0 0 0 0-98c-102-81-160-169-174-263a54 54 0 0 1 12-43 58 58 0 0 1 44-20h386a58 58 0 0 1 44 20 54 54 0 0 1 12 44c-14 93-72 181-174 262a63 63 0 0 0 0 98c102 81 160 169 174 262a54 54 0 0 1-12 44 58 58 0 0 1-44 20z" horiz-adv-x="1000" />

<glyph glyph-name="fi-br-ice-skate" unicode="&#xe8a5;" d="M938 100a63 63 0 0 1-63-62 63 63 0 0 0-62-63h-125v125h46a184 184 0 0 1 184 183 271 271 0 0 1-217 266l-143 32a64 64 0 0 0-50 57l-17 87a146 146 0 0 1-176 122c-1-1-179-57-179-57a188 188 0 0 1-136-180v-322a188 188 0 0 1 188-188v-125h-125a63 63 0 0 1 0-125h750a188 188 0 0 1 187 188 63 63 0 0 1-62 62z m-813 188v322a63 63 0 0 0 47 60l172 55a20 20 0 0 0 15-4 23 23 0 0 0 9-17l12-62-68 0a63 63 0 0 1 1-125h0l118 0c3-3 6-5 9-8l-49-55a63 63 0 1 1 93-83l74 82 117-27a146 146 0 0 0 118-143 58 58 0 0 0-59-58h-546a63 63 0 0 0-63 63z m188-188h250v-125h-250z" horiz-adv-x="1000" />

<glyph glyph-name="fi-br-id-badge" unicode="&#xe8a6;" d="M771 683h-146v42a125 125 0 0 1-150 123 128 128 0 0 1-100-128v-37h-146a230 230 0 0 1-229-229v-375a230 230 0 0 1 229-229h542a230 230 0 0 1 229 229v375a230 230 0 0 1-229 229z m104-604a104 104 0 0 0-104-104h-542a104 104 0 0 0-104 104v375a104 104 0 0 0 104 104h154a124 124 0 0 1 234 0h154a104 104 0 0 0 104-104z m-458 229v-166a83 83 0 0 0-84-84h-41a83 83 0 0 0-84 84v166a83 83 0 0 0 84 84h41a83 83 0 0 0 84-84z m333-187a63 63 0 0 0-62-63h-125a63 63 0 0 0 0 125h125a63 63 0 0 0 62-62z m42 208a63 63 0 0 0-63-62h-166a63 63 0 0 0 0 125h166a63 63 0 0 0 63-63z" horiz-adv-x="1000" />

<glyph glyph-name="fi-br-inbox" unicode="&#xe8a7;" d="M771-150h-542a229 229 0 0 0-229 229v167a146 146 0 0 0 146 146h146a63 63 0 0 0 62-63 104 104 0 0 1 104-104h84a104 104 0 0 1 104 104 63 63 0 0 0 62 63h146a146 146 0 0 0 146-146v-167a229 229 0 0 0-229-229z m-625 417a21 21 0 0 1-21-21v-167a104 104 0 0 1 104-104h542a104 104 0 0 1 104 104v167a21 21 0 0 1-21 21h-92a230 230 0 0 0-220-167h-84a230 230 0 0 0-220 167z" horiz-adv-x="1000" />

<glyph glyph-name="fi-br-incognito" unicode="&#xe8a8;" d="M827 554c-34 271-202 295-203 296a63 63 0 0 1-8 0 216 216 0 0 1-118-41 200 200 0 0 1-114 41 63 63 0 0 1-7 0c-2-1-170-25-204-296-59-19-173-67-173-150 0-165 258-179 500-179s500 14 500 179c0 83-113 131-173 150z m-535-135v35c0 211 77 260 98 270a78 78 0 0 0 32-14 128 128 0 0 1 156 0 79 79 0 0 0 32 14c21-9 98-59 98-270v-35a727 727 0 0 0-208-27 727 727 0 0 0-208 27z m583-402a166 166 0 0 0-325-50 240 240 0 0 1-50 8 240 240 0 0 1-50-8 167 167 0 1 0-11 126 314 314 0 0 0 61 7 314 314 0 0 0 61-7 166 166 0 0 0 314-76z" horiz-adv-x="1000" />

<glyph glyph-name="fi-br-indent" unicode="&#xe8a9;" d="M938 600h-875a63 63 0 0 0 0 125h875a63 63 0 0 0 0-125z m0-208h-542a63 63 0 0 0 0 125h542a63 63 0 0 0 0-125z m0-417h-875a63 63 0 0 0 0 125h875a63 63 0 0 0 0-125z m0 208h-542a63 63 0 0 0 0 125h542a63 63 0 0 0 0-125z m-867 11l124 124a46 46 0 0 1 0 64l-124 124a42 42 0 0 1-71-29v-253a42 42 0 0 1 71-30z" horiz-adv-x="1000" />

<glyph glyph-name="fi-br-infinity" unicode="&#xe8aa;" d="M750 600c-112 0-198-77-250-140-52 63-138 140-250 140a250 250 0 0 1 0-500c112 0 198 77 250 140 52-63 138-140 250-140a250 250 0 0 1 0 500z m-500-375a125 125 0 0 0 0 250c75 0 142-74 177-125-35-51-102-125-177-125z m500 0c-75 0-142 74-177 125 35 51 102 125 177 125a125 125 0 0 0 0-250z" horiz-adv-x="1000" />

<glyph glyph-name="fi-br-info" unicode="&#xe8ab;" d="M500 850a500 500 0 1 1 500-500 501 501 0 0 1-500 500z m0-875a375 375 0 1 0 375 375 376 376 0 0 0-375-375z m-19 477h-12a66 66 0 0 1-67-58 63 63 0 0 1 56-66v-194a63 63 0 0 1 125 0v216a102 102 0 0 1-102 102z m12 45a72 72 0 1 1-72 72 72 72 0 0 1 72-72z" horiz-adv-x="1000" />

<glyph glyph-name="fi-br-interactive" unicode="&#xe8ac;" d="M125 433a292 292 0 0 0 580 45l128-47c0 1 0 2 0 2a417 417 0 1 1-416-416c1 0 1 0 2 0l-46 128a292 292 0 0 0-248 288z m440 81c7 0 15-2 22-2a187 187 0 1 1-249-248 229 229 0 0 0 227 250z m417-557l-111 110 70 69a110 110 0 0 1-40 182l-285 103a146 146 0 0 1-187-187l103-285a110 110 0 0 1 80-69 113 113 0 0 1 24-3 110 110 0 0 1 78 32l69 70 110-111a63 63 0 1 1 89 89z m-340 57l-96 263a20 20 0 0 0 5 22 20 20 0 0 0 22 5l263-96z" horiz-adv-x="1000" />

<glyph glyph-name="fi-br-interlining" unicode="&#xe8ad;" d="M439 558h500a63 63 0 0 1 0 125h-500a63 63 0 0 1 0-125z m500-166h-500a63 63 0 0 1 0-125h500a63 63 0 0 1 0 125z m0-292h-500a63 63 0 0 1 0-125h500a63 63 0 0 1 0 125z m-725 458a42 42 0 0 1 29 72l-87 86a42 42 0 0 1-59 0l-86-86a42 42 0 0 1 29-72h24v-458h-24a42 42 0 0 1-29-71l85-86a42 42 0 0 1 59 0l85 86a42 42 0 0 1-29 71h-22v458z" horiz-adv-x="1000" />

<glyph glyph-name="fi-br-interrogation" unicode="&#xe8ae;" d="M500 850a500 500 0 1 1 500-500 501 501 0 0 1-500 500z m0-875a375 375 0 1 0 375 375 375 375 0 0 0-375-375z m32 667a177 177 0 0 1-209-174 63 63 0 0 1 125 0 52 52 0 1 0 77-46 139 139 0 0 1-85-131 63 63 0 0 1 125 0 53 53 0 0 0 1 9 77 77 0 0 0 20 13 177 177 0 0 1-54 329z" horiz-adv-x="1000" />

<glyph glyph-name="fi-br-italic" unicode="&#xe8af;" d="M875 850h-625a63 63 0 0 1 0-125h238l-102-750h-261a63 63 0 0 1 0-125h625a63 63 0 0 1 0 125h-238l102 750h261a63 63 0 0 1 0 125z" horiz-adv-x="1000" />

<glyph glyph-name="fi-br-jpg" unicode="&#xe8b0;" d="M427 622l0 72h35a37 37 0 0 0 37-36 37 37 0 0 0-37-36z m573 41v-473a228 228 0 0 0-67-162l-111-111a228 228 0 0 0-162-67h-472a188 188 0 0 0-188 188v625a188 188 0 0 0 188 187h625a188 188 0 0 0 187-187z m-417-87a83 83 0 0 1 84-83h0a83 83 0 0 1 83 83v14a31 31 0 0 1-31 31h-31a21 21 0 0 1 0-42h10v-3a32 32 0 0 0-31-31 31 31 0 0 0-32 31v87a31 31 0 0 0 32 31 33 33 0 0 0 27-17 26 26 0 1 1 47 24 84 84 0 0 1-74 45h0a83 83 0 0 1-84-83z m-208-57a26 26 0 0 1 52 0v51l35 0a88 88 0 1 1 0 176h-45a42 42 0 0 1-42-42z m-205 23a88 88 0 0 1 77-49h0a86 86 0 0 1 86 86v140a27 27 0 0 1-54 0l0-139a32 32 0 0 0-32-33 34 34 0 0 0-29 19 27 27 0 1 1-48-24z m18-567h437v167a83 83 0 0 0 83 83h167v167h-750v-354a63 63 0 0 1 63-63z" horiz-adv-x="1000" />

<glyph glyph-name="fi-br-key" unicode="&#xe8b1;" d="M271 183a63 63 0 1 0-63-62 63 63 0 0 0 63 62z m125-327a331 331 0 0 1 253 219 325 325 0 0 1 13 160l28 29a63 63 0 0 1 18 44v84h21a104 104 0 0 1 104 104v21h53a105 105 0 0 1 96 63 222 222 0 0 1 17 110 180 180 0 0 1-181 160 228 228 0 0 1-162-67l-271-271a324 324 0 0 1-160-14 333 333 0 0 1 109-648 339 339 0 0 1 62 6z m-8 527a63 63 0 0 1 61 16l295 295a104 104 0 0 0 74 31 56 56 0 0 0 57-48 92 92 0 0 0-4-35h-58a104 104 0 0 1-105-104v-21h-20a104 104 0 0 1-105-104v-79l-34-35a63 63 0 0 1-16-60 205 205 0 0 0-3-123 208 208 0 1 0-265 264 204 204 0 0 0 67 11 211 211 0 0 0 56-8z" horiz-adv-x="1000" />

<glyph glyph-name="fi-br-keyboard" unicode="&#xe8b2;" d="M771 725h-208v63a63 63 0 0 1-63 62h0a63 63 0 0 1-62-62v-63h-209a229 229 0 0 1-229-229v-292a229 229 0 0 1 229-229h542a229 229 0 0 1 229 229v292a229 229 0 0 1-229 229z m104-521a104 104 0 0 0-104-104h-542a104 104 0 0 0-104 104v292a104 104 0 0 0 104 104h542a104 104 0 0 0 104-104z m-146 313h-41a63 63 0 0 1 0-125h41a63 63 0 0 1 0 125z m-250-209h-208a63 63 0 0 1 0-125h208a63 63 0 0 1 0 125z m250 0h-41a63 63 0 0 1 0-125h41a63 63 0 0 1 0 125z" horiz-adv-x="1000" />

<glyph glyph-name="fi-br-label" unicode="&#xe8b3;" d="M842 667l-311 175a63 63 0 0 1-62 0l-311-175a146 146 0 0 1-75-127v-419a271 271 0 0 1 271-271h292a271 271 0 0 1 271 271v419a146 146 0 0 1-75 127z m-50-546a146 146 0 0 0-146-146h-292a146 146 0 0 0-146 146v419a21 21 0 0 0 11 18l281 158 281-158a21 21 0 0 0 11-18z" horiz-adv-x="1000" />

<glyph glyph-name="fi-br-laptop" unicode="&#xe8b4;" d="M917 225v271a229 229 0 0 1-229 229h-375a229 229 0 0 1-230-229v-271a83 83 0 0 1-83-83v-48a77 77 0 0 1 77-77h846a77 77 0 0 1 77 77v48a83 83 0 0 1-83 83z m-302-42h-230l-39 42h-138v271a104 104 0 0 0 105 104h375a104 104 0 0 0 104-104v-271h-138z" horiz-adv-x="1000" />

<glyph glyph-name="fi-br-lasso" unicode="&#xe8b5;" d="M542 850c-253 0-459-168-459-375a308 308 0 0 1 4-47c0 0-1-1-2-2h0a166 166 0 0 1-20-209 263 263 0 0 1-65-179 182 182 0 0 1 188-188 62 62 0 0 1 62 62 63 63 0 0 1-62 63 57 57 0 0 0-63 63 141 141 0 0 0 51 114 723 723 0 0 1 135-11c7 0 14 1 21 1a546 546 0 0 1 210-42c252 0 458 168 458 375s-206 375-458 375z m0-625a430 430 0 0 0-114 16 779 779 0 0 1-108 185 165 165 0 0 1-112 48v1c0 138 150 250 334 250s333-112 333-250-149-250-333-250z" horiz-adv-x="1000" />

<glyph glyph-name="fi-br-layers" unicode="&#xe8b6;" d="M38 408l387-232a146 146 0 0 1 150 0l387 232a78 78 0 0 1 0 133l-387 233a145 145 0 0 1-150 0h0l-387-232a78 78 0 0 1 0-133z m451 259a21 21 0 0 0 22 0l319-192-319-192a21 21 0 0 0-22 0l-319 192z m65-602a104 104 0 0 0-108 0l-351 211a63 63 0 0 1-95-53h0a63 63 0 0 1 30-54l352-211a229 229 0 0 1 236 0l352 211a63 63 0 0 1 30 54h0a63 63 0 0 1-95 53z" horiz-adv-x="1000" />

<glyph glyph-name="fi-br-layout-fluid" unicode="&#xe8b7;" d="" horiz-adv-x="1000" />

<glyph glyph-name="fi-br-letter-case" unicode="&#xe8b8;" d="M321 636a63 63 0 0 1-112 0l-202-404a63 63 0 0 1 56-90h0a63 63 0 0 1 56 34l24 49h244l24-49a63 63 0 0 1 56-34h0a63 63 0 0 1 56 90z m-115-286l59 119 59-119z m732 229a63 63 0 0 1-59-41 206 206 0 0 1-87 20 208 208 0 0 1 0-416 206 206 0 0 1 87 20 63 63 0 0 1 121 21v334a63 63 0 0 1-62 62z m-146-312a83 83 0 1 0 83 83 83 83 0 0 0-83-83z" horiz-adv-x="1000" />

<glyph glyph-name="fi-br-life-ring" unicode="&#xe8b9;" d="M895 44a497 497 0 0 1 0 612l66 67a63 63 0 0 1-88 88l-67-66a497 497 0 0 1-612 0l-66 66a63 63 0 0 1-89-88l67-67a497 497 0 0 1 0-612l-67-67a63 63 0 0 1 89-88l66 66a497 497 0 0 1 612 0l67-66a63 63 0 0 1 88 88z m-20 306a373 373 0 0 0-70-217l-111 112a213 213 0 0 1 0 210l111 112a373 373 0 0 0 70-217z m-472 0a97 97 0 1 0 97-97 97 97 0 0 0-97 97z m97 375a373 373 0 0 0 217-70l-112-111a213 213 0 0 1-210 0l-112 111a373 373 0 0 0 217 70z m-375-375a373 373 0 0 0 70 217l111-112a213 213 0 0 1 0-210l-111-112a373 373 0 0 0-70 217z m375-375a373 373 0 0 0-217 70l112 111a213 213 0 0 1 210 0l112-111a373 373 0 0 0-217-70z" horiz-adv-x="1000" />

<glyph glyph-name="fi-br-line-width" unicode="&#xe8ba;" d="M875-150h-750a125 125 0 0 0 0 250h750a125 125 0 0 0 0-250z m125 438a104 104 0 0 1-104 104h-792a104 104 0 0 1 0-209h792a104 104 0 0 1 104 105z m0 270a83 83 0 0 1-83 84h-834a83 83 0 0 1 0-167h834a83 83 0 0 1 83 83z m0 230a63 63 0 0 1-62 62h-875a63 63 0 0 1 0-125h875a63 63 0 0 1 62 63z" horiz-adv-x="1000" />

<glyph glyph-name="fi-br-link" unicode="&#xe8bb;" d="M434 33a183 183 0 0 0-248-15 177 177 0 0 0-60 153 188 188 0 0 0 56 112l120 120a63 63 0 0 1 0 88h0a63 63 0 0 1-88 0l-117-117a318 318 0 0 1-96-194 302 302 0 0 1 515-242l125 126a63 63 0 0 1 0 88h0a63 63 0 0 1-88 0z m448 755a309 309 0 0 1-405-34l-118-118a63 63 0 0 1 0-88h0a63 63 0 0 1 88 0l120 120a183 183 0 0 0 243 17 178 178 0 0 0 13-262l-125-126a63 63 0 0 1 0-88h0a63 63 0 0 1 88 0l126 125a303 303 0 0 1-30 454z" horiz-adv-x="1000" />

<glyph glyph-name="fi-br-lipstick" unicode="&#xe8bc;" d="M708 335v161a63 63 0 0 1-62 62h-21v217a75 75 0 0 1-109 67l-82-41a107 107 0 0 1-59-95v-148h-21a63 63 0 0 1-62-62v-161a146 146 0 0 1-84-131v-125a229 229 0 0 1 230-229h125a229 229 0 0 1 229 229v125a146 146 0 0 1-84 131z m-291 15v83h166v-83z m250-271a104 104 0 0 0-104-104h-125a104 104 0 0 0-105 104v125a21 21 0 0 0 21 21h292a21 21 0 0 0 21-21z" horiz-adv-x="1000" />

<glyph glyph-name="fi-br-list-check" unicode="&#xe8bd;" d="M188 558a145 145 0 0 0-104 43l-63 57a63 63 0 0 0 83 93l66-59a24 24 0 0 1 18-9 21 21 0 0 1 14 6l151 144a63 63 0 0 0 86-91l-149-142a144 144 0 0 0-102-42z m812 146a63 63 0 0 1-62 63h-334a63 63 0 0 1 0-125h334a63 63 0 0 1 62 62z m-710-437l149 142a63 63 0 0 1-86 90l-151-143a21 21 0 0 0-29 0l-66 66a63 63 0 0 1-89-88l66-66a146 146 0 0 1 206-1z m710 104a63 63 0 0 1-62 62h-334a63 63 0 0 1 0-125h334a63 63 0 0 1 62 63z m-710-438l149 143a63 63 0 0 1-86 90l-151-143a21 21 0 0 0-14-6 24 24 0 0 0-18 8l-66 59a63 63 0 0 1-83-93l63-57a146 146 0 0 1 206-1z m710 105a63 63 0 0 1-62 62h-334a63 63 0 0 1 0-125h334a63 63 0 0 1 62 63z" horiz-adv-x="1000" />

<glyph glyph-name="fi-br-list" unicode="&#xe8be;" d="M333 558h605a63 63 0 0 1 0 125h-605a63 63 0 0 1 0-125z m605-166h-605a63 63 0 0 1 0-125h605a63 63 0 0 1 0 125z m0-292h-605a63 63 0 0 1 0-125h605a63 63 0 0 1 0 125z" horiz-adv-x="1000" />

<glyph glyph-name="fi-br-location-alt" unicode="&#xe8bf;" d="M500 225a135 135 0 0 1 61 14l73 37a135 135 0 0 1 74 121v73a135 135 0 0 1-75 121l-73 36a136 136 0 0 1-121 0l-72-36a135 135 0 0 1-75-121v-73a135 135 0 0 1 75-121l73-37a135 135 0 0 1 60-14z m-83 172v71l55-28a63 63 0 0 1 56 0l55 28v-71a10 10 0 0 0-5-10l-73-36a10 10 0 0 0-10 0l-72 36a10 10 0 0 0-6 10z m354-422h-156a214 214 0 0 1 38 29l142 132a420 420 0 0 1 0 592 416 416 0 0 1-590 0 421 421 0 0 1 2-594l139-129a216 216 0 0 1 39-30h-156a63 63 0 0 1 0-125h542a63 63 0 0 1 0 125z m-477 249a295 295 0 0 0 0 415 290 290 0 0 0 412 0 294 294 0 0 0 2-413l-142-132a96 96 0 0 0-133 2z" horiz-adv-x="1000" />

<glyph glyph-name="fi-br-lock-alt" unicode="&#xe8c0;" d="M500 850a500 500 0 1 1 500-500 501 501 0 0 1-500 500z m0-875a375 375 0 1 0 375 375 375 375 0 0 0-375-375z m125 458a125 125 0 0 0-62-107v-122a63 63 0 0 0-125 0v122a125 125 0 1 0 187 107z" horiz-adv-x="1000" />

<glyph glyph-name="fi-br-lock" unicode="&#xe8c1;" d="M792 491v61a292 292 0 0 1-584 0v-61a229 229 0 0 1-125-203v-209a229 229 0 0 1 230-229h375a229 229 0 0 1 229 229v209a229 229 0 0 1-125 203z m-292 228a167 167 0 0 0 167-167v-35h-334v35a167 167 0 0 0 167 167z m292-640a104 104 0 0 0-104-104h-375a104 104 0 0 0-105 104v209a104 104 0 0 0 105 104h375a104 104 0 0 0 104-104z" horiz-adv-x="1000" />

<glyph glyph-name="fi-br-magic-wand" unicode="&#xe8c2;" d="M203 731l64 19 19 64a50 50 0 0 0 95 0l19-64 64-19a50 50 0 0 0 0-95l-64-19-19-64a50 50 0 0 0-95 0l-19 64-64 19a50 50 0 0 0 0 95z m761-500l-64 19-19 64a50 50 0 0 1-95 0l-19-64-64-19a50 50 0 0 1 0-95l64-19 19-64a50 50 0 0 1 95 0l19 64 64 19a50 50 0 0 1 0 95z m-224 432l56-17 17-56a43 43 0 0 1 83 0l16 56 57 17a43 43 0 0 1 0 83l-57 16-16 57a43 43 0 0 1-83 0l-17-57-56-16a43 43 0 0 1 0-83z m-25-340l-436-426a164 164 0 0 0-231 1 164 164 0 0 0 0 231l438 428a164 164 0 0 0 278-118 162 162 0 0 0-49-116z m-258-77l-54 55-267-261a38 38 0 0 1 0-54 39 39 0 0 1 55 0z m182 194a39 39 0 0 1-65 28l-82-80 55-54 81 79a38 38 0 0 1 11 27z" horiz-adv-x="1000" />

<glyph glyph-name="fi-br-makeup-brush" unicode="&#xe8c3;" d="M958 808a145 145 0 0 1-197 7l-526-455c-86-19-235-73-235-210a300 300 0 0 1 300-300c137 0 191 149 210 235l456 527a145 145 0 0 1-8 196z m-658-833a175 175 0 0 0-175 175c0 46 88 79 153 92l114-114c-13-65-46-153-92-153z m571 718l-260-301-69 69 301 259a20 20 0 0 0 28-27z" horiz-adv-x="1000" />

<glyph glyph-name="fi-br-marker-time" unicode="&#xe8c4;" d="M824 715a457 457 0 0 1-648 0 463 463 0 0 1 2-652l155-145a238 238 0 0 1 333-1l158 148a462 462 0 0 1 0 650z m-86-561l-159-147a115 115 0 0 0-159 2l-156 144a337 337 0 0 0 0 474 332 332 0 0 0 472 0 336 336 0 0 0 2-473z m-89 89a63 63 0 0 0-89 0l-104 104a63 63 0 0 0-18 45v146a63 63 0 0 0 125 0v-120l85-86a63 63 0 0 0 0-89z" horiz-adv-x="1000" />

<glyph glyph-name="fi-br-marker" unicode="&#xe8c5;" d="M500 850a438 438 0 0 1-437-437c0-118 91-282 272-488a220 220 0 0 1 330 0c181 206 273 370 273 488a438 438 0 0 1-438 437z m71-843a97 97 0 0 0-142 0c-153 175-242 323-242 406a313 313 0 0 0 625 0c1-83-87-231-241-406z m-71 591a182 182 0 1 1 182-182 182 182 0 0 1-182 182z m0-239a57 57 0 1 0 57 57 57 57 0 0 0-57-57z" horiz-adv-x="1000" />

<glyph glyph-name="fi-br-medicine" unicode="&#xe8c6;" d="M667 578v64c0 0 0 1 0 2a104 104 0 0 1-21 206h-292a104 104 0 0 1-20-206c-1-1-1-2-1-2v-64a230 230 0 0 1-208-228v-271a229 229 0 0 1 229-229h292a229 229 0 0 1 229 229v271a230 230 0 0 1-208 228z m83-499a104 104 0 0 0-104-104h-292a104 104 0 0 0-104 104v271a104 104 0 0 0 104 104h42a63 63 0 0 1 62 63v125h84v-125a63 63 0 0 1 62-63h42a104 104 0 0 0 104-104z m-83 146a63 63 0 0 0-63-62h-41v-42a63 63 0 0 0-125 0v42h-42a63 63 0 0 0 0 125h42v41a63 63 0 0 0 125 0v-41h41a63 63 0 0 0 63-63z" horiz-adv-x="1000" />

<glyph glyph-name="fi-br-megaphone" unicode="&#xe8c7;" d="M688 850a63 63 0 0 1-63-62c0-55-14-105-187-105h-250a188 188 0 0 1-188-187v-125a187 187 0 0 1 99-164l133-296a103 103 0 0 1 93-61 91 91 0 0 1 84 128l-94 205h123c173 0 187-49 187-104a63 63 0 0 1 125 0v709a63 63 0 0 1-62 62z m-63-571a484 484 0 0 1-187 29h-250a63 63 0 0 0-63 63v125a63 63 0 0 0 63 62h250a484 484 0 0 1 187 30z m368-82a63 63 0 0 0-83-28l-42 21a63 63 0 0 0 56 112l42-21a63 63 0 0 0 27-84z m-153 396a63 63 0 0 0 28 84l42 21a63 63 0 0 0 56-112l-42-21a63 63 0 0 0-84 28z m-7-160a63 63 0 0 0 63 63h42a63 63 0 0 0 0-125h-42a63 63 0 0 0-63 62z" horiz-adv-x="1000" />

<glyph glyph-name="fi-br-menu-burger" unicode="&#xe8c8;" d="M938 413h-875a63 63 0 0 1 0-125h875a63 63 0 0 1 0 125z m-875 166h875a63 63 0 0 1 0 125h-875a63 63 0 0 1 0-125z m875-458h-875a63 63 0 0 1 0-125h875a63 63 0 0 1 0 125z" horiz-adv-x="1000" />

<glyph glyph-name="fi-br-menu-dots-vertical" unicode="&#xe8c9;" d="" horiz-adv-x="1000" />

<glyph glyph-name="fi-br-menu-dots" unicode="&#xe8ca;" d="" horiz-adv-x="1000" />

<glyph glyph-name="fi-br-microphone" unicode="&#xe8cb;" d="M500 58a292 292 0 0 1 292 292v208a292 292 0 0 1-584 0v-208a292 292 0 0 1 292-292z m0 667a167 167 0 0 0 167-167v-41h-63a63 63 0 0 1 0-125h63v-42a167 167 0 0 0-334 0v42h63a63 63 0 0 1 0 125h-63v41a167 167 0 0 0 167 167z m438-354a63 63 0 0 1-63-63v-16a318 318 0 0 0-317-317h-116a318 318 0 0 0-317 317v16a63 63 0 0 1-125 0v-16a443 443 0 0 1 442-442h116a443 443 0 0 1 442 442v16a63 63 0 0 1-62 63z" horiz-adv-x="1000" />

<glyph glyph-name="fi-br-minus-small" unicode="&#xe8cc;" d="M688 288h-375a63 63 0 0 0 0 125h375a63 63 0 0 0 0-125z" horiz-adv-x="1000" />

<glyph glyph-name="fi-br-minus" unicode="&#xe8cd;" d="M938 288h-875a63 63 0 0 0 0 125h875a63 63 0 0 0 0-125z" horiz-adv-x="1000" />

<glyph glyph-name="fi-br-mobile" unicode="&#xe8ce;" d="M688 850h-375a229 229 0 0 1-230-229v-542a229 229 0 0 1 230-229h375a229 229 0 0 1 229 229v542a229 229 0 0 1-229 229z m104-771a104 104 0 0 0-104-104h-125v21a63 63 0 0 1-125 0v-21h-125a104 104 0 0 0-105 104v542a104 104 0 0 0 105 104h375a104 104 0 0 0 104-104z m-125 84a63 63 0 0 0-63-63h-208a63 63 0 0 0 0 125h208a63 63 0 0 0 63-62z m-167 520a167 167 0 0 1-167-166v-146a63 63 0 0 1 122-21h91a63 63 0 0 1 121 21v146a167 167 0 0 1-167 166z m0-125a42 42 0 0 0 42-41v-42h-84v42a42 42 0 0 0 42 41z" horiz-adv-x="1000" />

<glyph glyph-name="fi-br-mode-landscape" unicode="&#xe8cf;" d="M721 130l-228 227a167 167 0 0 1-236 0l-36-36a42 42 0 0 1-13-30v-149a83 83 0 0 1 84-84h399a42 42 0 0 1 30 72z m217 74a63 63 0 0 1-63-62v-63a104 104 0 0 0-104-104h-63a63 63 0 0 1 0-125h63a229 229 0 0 1 229 229v63a63 63 0 0 1-62 62z m-875 292a63 63 0 0 1 62 62v63a104 104 0 0 0 104 104h63a63 63 0 0 1 0 125h-63a229 229 0 0 1-229-229v-63a63 63 0 0 1 63-62z m229-521h-63a104 104 0 0 0-104 104v63a63 63 0 0 1-125 0v-63a229 229 0 0 1 229-229h63a63 63 0 0 1 0 125z m479 875h-63a63 63 0 0 1 0-125h63a104 104 0 0 0 104-104v-63a63 63 0 0 1 125 0v63a229 229 0 0 1-229 229z" horiz-adv-x="1000" />

<glyph glyph-name="fi-br-mode-portrait" unicode="&#xe8d0;" d="M938 204a63 63 0 0 1-63-62v-63a104 104 0 0 0-104-104h-63a63 63 0 0 1 0-125h63a229 229 0 0 1 229 229v63a63 63 0 0 1-62 62z m-875 292a63 63 0 0 1 62 62v63a104 104 0 0 0 104 104h63a63 63 0 0 1 0 125h-63a229 229 0 0 1-229-229v-63a63 63 0 0 1 63-62z m229-521h-63a104 104 0 0 0-104 104v63a63 63 0 0 1-125 0v-63a229 229 0 0 1 229-229h63a63 63 0 0 1 0 125z m479 875h-63a63 63 0 0 1 0-125h63a104 104 0 0 0 104-104v-63a63 63 0 0 1 125 0v63a229 229 0 0 1-229 229z m-516-744a41 41 0 0 1 41-48h408a41 41 0 0 1 42 48 250 250 0 0 1-491 0z" horiz-adv-x="1000" />

<glyph glyph-name="fi-br-money" unicode="&#xe8d1;" d="M771-25h-542a229 229 0 0 0-229 229v292a229 229 0 0 0 229 229h542a229 229 0 0 0 229-229v-292a229 229 0 0 0-229-229z m-542 625a104 104 0 0 1-104-104v-292a104 104 0 0 1 104-104h542a104 104 0 0 1 104 104v292a104 104 0 0 1-104 104z m0-42a63 63 0 1 1 63-62 63 63 0 0 1-63 62z m479-62a63 63 0 1 1 63 62 63 63 0 0 1-63-62z m-435-248a63 63 0 1 1 0-88 63 63 0 0 1 0 88z m435-44a63 63 0 1 1 63 63 63 63 0 0 1-63-63z m-354 146a146 146 0 1 0 146-146 146 146 0 0 0-146 146z" horiz-adv-x="1000" />

<glyph glyph-name="fi-br-mouse" unicode="&#xe8d2;" d="M563 725v63a63 63 0 0 1-63 62h0a63 63 0 0 1-62-62v-63a313 313 0 0 1-313-312v-175a384 384 0 0 1 349-387 375 375 0 0 1 401 374v188a313 313 0 0 1-312 312z m187-500a250 250 0 0 0-500 0v188a188 188 0 0 0 188 187h125a188 188 0 0 0 187-187z m-250 292a63 63 0 0 1-62-63v-83a63 63 0 0 1 125 0v83a63 63 0 0 1-63 63z" horiz-adv-x="1000" />

<glyph glyph-name="fi-br-music-alt" unicode="&#xe8d3;" d="M932 807a188 188 0 0 1-154 40l-383-72a229 229 0 0 1-187-225v-372a166 166 0 0 1-41 5 167 167 0 1 1 166-166v333a63 63 0 0 0 51 61l466 88a20 20 0 0 0 18-4 21 21 0 0 0 7-17v-175a166 166 0 1 1 125-161v521a187 187 0 0 1-68 144z m-105-185l-466-88a189 189 0 0 1-28-8v24a104 104 0 0 0 85 102l383 72a63 63 0 0 0 74-61v-41a147 147 0 0 1-48 0z" horiz-adv-x="1000" />

<glyph glyph-name="fi-br-music" unicode="&#xe8d4;" d="M771 808h-208a229 229 0 0 1-230-229v-254a229 229 0 1 1 124-225h1v479a104 104 0 0 0 105 104h208a104 104 0 0 0 104-104v-254a229 229 0 1 1 124-225h1v479a229 229 0 0 1-229 229z m-542-791a104 104 0 1 0 104 104 104 104 0 0 0-104-104z m542 0a104 104 0 1 0 104 104 104 104 0 0 0-104-104z" horiz-adv-x="1000" />

<glyph glyph-name="fi-br-network-cloud" unicode="&#xe8d5;" d="M935 58h-306a146 146 0 0 1-69 69v140c44 0 81 0 100 1a228 228 0 0 1 47 5 214 214 0 0 1 6 417l-8 2c-2 0-6 1-5 0a19 19 0 0 0-1 2 259 259 0 0 1-276 153 251 251 0 0 1-209-189 247 247 0 0 1-5-96 156 156 0 0 1 34-289 171 171 0 0 1 38-5c23-1 86-1 154-1v-140a146 146 0 0 1-68-69h-307a63 63 0 0 1 0-125h307a145 145 0 0 1 262 0h306a63 63 0 0 1 0 125z m-661 336a33 33 0 0 0-23 22 35 35 0 0 0 23 39 102 102 0 0 1 60 116 124 124 0 0 0 1 57 129 129 0 0 0 105 96 148 148 0 0 0 20 1 133 133 0 0 0 124-80l0 0a127 127 0 0 1 97-75 89 89 0 0 0-2-175 106 106 0 0 0-21-2c-64-1-322-2-374 0a46 46 0 0 0-10 1z" horiz-adv-x="1000" />

<glyph glyph-name="fi-br-network" unicode="&#xe8d6;" d="M938 58h-307a146 146 0 0 1-68 69v140h318a77 77 0 0 1 77 77v48a83 83 0 0 1-83 83v188a188 188 0 0 1-187 187h-375a188 188 0 0 1-188-187v-188a83 83 0 0 1-83-83v-48a77 77 0 0 1 77-77h319v-140a146 146 0 0 1-69-69h-306a63 63 0 0 1 0-125h306a145 145 0 0 1 262 0h307a63 63 0 0 1 0 125z m-566 389l-13 15a42 42 0 0 1-31 13h-78v188a63 63 0 0 0 63 62h375a63 63 0 0 0 62-62v-188h-78a42 42 0 0 1-30-13l-14-15a42 42 0 0 0-31-14h-194a42 42 0 0 0-31 14z" horiz-adv-x="1000" />

<glyph glyph-name="fi-br-notebook" unicode="&#xe8d7;" d="M792 741v47a63 63 0 0 1-125 0v-21h-104v21a63 63 0 0 1-125 0v-21h-105v21a63 63 0 0 1-125 0v-47a229 229 0 0 1-125-203v-459a229 229 0 0 1 230-229h375a230 230 0 0 1 229 229v459a229 229 0 0 1-125 203z m0-662a104 104 0 0 0-104-104h-375a104 104 0 0 0-105 104v459a104 104 0 0 0 105 104h375a104 104 0 0 0 104-104z m-84 417a63 63 0 0 0-62-63h-292a63 63 0 0 0 0 125h292a63 63 0 0 0 62-62z m-145-208a63 63 0 0 0-63-63h-146a63 63 0 0 0 0 125h146a63 63 0 0 0 63-62z" horiz-adv-x="1000" />

<glyph glyph-name="fi-br-opacity" unicode="&#xe8d8;" d="M552 847a507 507 0 0 1-128-3 60 60 0 0 1-47-76l2-5a61 61 0 0 1 67-42 383 383 0 0 0 54 4v-750a383 383 0 0 0-54 4 61 61 0 0 1-67-42l-2-5a60 60 0 0 1 47-76 507 507 0 0 1 76-6 500 500 0 0 1 52 997z m-427-708l-5-3a60 60 0 0 1-19-87 505 505 0 0 1 86-89 60 60 0 0 1 88 17l3 5a60 60 0 0 1-15 77 375 375 0 0 0-61 63 60 60 0 0 1-77 17z m153 579l-3 5a60 60 0 0 1-88 17 504 504 0 0 1-86-89 60 60 0 0 1 19-87l5-2a60 60 0 0 1 77 16 378 378 0 0 0 61 63 60 60 0 0 1 15 77z m-153-368a386 386 0 0 0 3 44 60 60 0 0 1-44 65l-6 2a60 60 0 0 1-75-52 507 507 0 0 1 0-118 60 60 0 0 1 75-52l6 2a60 60 0 0 1 44 65 380 380 0 0 0-3 44z" horiz-adv-x="1000" />

<glyph glyph-name="fi-br-package" unicode="&#xe8d9;" d="M854 558h-166a146 146 0 0 1-146-145v-188h-84v146a230 230 0 0 1-146 213 146 146 0 1 1-166 0 230 230 0 0 1-146-213v-459a63 63 0 0 1 125 0v188h750v-188a63 63 0 0 1 125 0v501a146 146 0 0 1-146 145z m-625-83a104 104 0 0 0 104-104v-146h-208v146a104 104 0 0 0 104 104z m438-250v188a21 21 0 0 0 21 20h20v-20a63 63 0 0 1 125 0v20h21a21 21 0 0 0 21-20v-188z" horiz-adv-x="1000" />

<glyph glyph-name="fi-br-paint-brush" unicode="&#xe8da;" d="M1000 686a162 162 0 0 1-48 117 164 164 0 0 1-230 1l-423-414a249 249 0 0 1-184-72h0c-67-67-105-241-113-302a146 146 0 0 1 144-167 148 148 0 0 1 21 2c61 9 234 46 302 114a248 248 0 0 1 70 203l412 402a162 162 0 0 1 49 116z m-620-633c-27-27-139-65-231-78a21 21 0 0 0-24 24c13 91 52 203 79 231a125 125 0 0 0 176 0 124 124 0 0 0 31-52 60 60 0 0 1 4-15 125 125 0 0 0-35-110z m484 606l-375-365a245 245 0 0 1-20 24 250 250 0 0 1-36 29l377 367a39 39 0 0 0 54 0 38 38 0 0 0-1-55z" horiz-adv-x="1000" />

<glyph glyph-name="fi-br-palette" unicode="&#xe8db;" d="M1002 395a506 506 0 0 1-481 455 500 500 0 1 1-17-1000c14 0 27 1 41 2a63 63 0 0 1 58 63l-2 143a119 119 0 0 0 204 85l4-4a99 99 0 0 1 91-27 98 98 0 0 1 71 61 496 496 0 0 1 31 222z m-136-141a244 244 0 0 1-390-197l1-81a375 375 0 0 0 26 749c5 0 9 0 14 0a379 379 0 0 0 360-341 374 374 0 0 0-11-130z" horiz-adv-x="1000" />

<glyph glyph-name="fi-br-paper-plane" unicode="&#xe8dc;" d="M958 808a140 140 0 0 1-132 38l-637-134a221 221 0 0 1-124-376l68-68a17 17 0 0 0 5-12v-126a142 142 0 0 1 142-142h126a17 17 0 0 0 12-5l68-68a220 220 0 0 1 156-65 223 223 0 0 1 72 11 220 220 0 0 1 148 178l134 635a141 141 0 0 1-38 134z m-828-284a95 95 0 0 0 78 65q3 0 5 0l555 117-505-505v55a141 141 0 0 1-42 100l-68 69a95 95 0 0 0-23 99z m609-461c0-2 0-3 0-5a97 97 0 0 0-164-55l-68 68a141 141 0 0 1-101 42h-55l505 505z" horiz-adv-x="1000" />

<glyph glyph-name="fi-br-password" unicode="&#xe8dd;" d="M667 163a63 63 0 0 0-63-63h-208a63 63 0 0 0 0 125h208a63 63 0 0 0 63-62z m-294 164a63 63 0 0 1 88 0l39 39 39-39a63 63 0 0 1 89 88l-40 39 40 39a63 63 0 0 1-89 89l-39-39-39 39a63 63 0 0 1-88-89l39-39-39-39a63 63 0 0 1 0-88z m-144-102h-166a63 63 0 0 1 0-125h166a63 63 0 0 1 0 125z m44 357a63 63 0 0 1-88 0l-39-39-39 39a63 63 0 0 1-89-89l40-39-40-39a63 63 0 0 1 89-88l39 39 39-39a63 63 0 0 1 88 88l-39 39 39 39a63 63 0 0 1 0 89z m665-357h-167a63 63 0 0 1 0-125h167a63 63 0 0 1 0 125z m5 229l39 39a63 63 0 0 1-89 89l-39-39-39 39a63 63 0 0 1-88-89l39-39-39-39a63 63 0 0 1 88-88l39 39 39-39a63 63 0 0 1 89 88z" horiz-adv-x="1000" />

</font>
</defs>
</svg>
